<svg width="171" height="125" viewBox="0 0 171 125" fill="none" xmlns="http://www.w3.org/2000/svg">
<path d="M142.678 110.31L159.278 109.847C159.44 109.844 159.601 109.871 159.751 109.929C159.902 109.987 160.039 110.074 160.155 110.184C160.271 110.295 160.363 110.427 160.425 110.573C160.488 110.718 160.521 110.875 160.521 111.033V111.592C160.521 111.95 160.375 112.293 160.116 112.546C159.857 112.799 159.506 112.941 159.14 112.941H153.961C153.827 112.941 153.695 112.976 153.579 113.042C153.463 113.108 153.367 113.203 153.301 113.317L152.936 113.925C152.873 114.033 152.781 114.123 152.67 114.186C152.56 114.248 152.433 114.281 152.304 114.281H143.861C143.698 114.28 143.539 114.336 143.411 114.437C143.284 114.539 143.195 114.682 143.161 114.84L142.895 116.132C142.876 116.217 142.835 116.296 142.776 116.361C142.717 116.426 142.642 116.476 142.558 116.505C142.474 116.534 142.384 116.541 142.296 116.527C142.208 116.512 142.126 116.476 142.056 116.421C140.919 115.515 138.986 115.065 136.257 115.072C124.375 115.091 113.019 114.715 102.189 113.944C91.7406 113.205 83.3699 112.89 77.0772 112.999C62.736 113.256 53.4086 113.504 49.0951 113.742C37.1473 114.41 27.7641 114.648 20.9453 114.455C18.8082 114.397 17.0032 113.523 15.5303 111.833C15.4108 111.696 15.2525 111.596 15.0753 111.546C14.8981 111.497 14.7099 111.499 14.5341 111.554L13.0053 111.997C12.8366 112.048 12.6605 112.057 12.4924 112.026L5.33168 110.744C5.14882 110.712 4.98329 110.618 4.86422 110.479C4.74515 110.34 4.68012 110.164 4.68067 109.982V109.703C4.68067 109.45 4.78356 109.207 4.96668 109.028C5.1498 108.849 5.39821 108.749 5.65718 108.749H19.1797C19.3039 108.749 19.4238 108.702 19.5152 108.618C19.6066 108.534 19.6629 108.419 19.6729 108.296L23.1151 62.7818C23.1607 62.1896 23.3214 61.6107 23.5886 61.0758C24.7525 58.7368 26.061 57.1561 27.5142 56.3336C28.974 55.5046 30.6507 55.6974 32.8108 55.4083C38.0646 54.6886 43.4467 54.6115 48.957 55.1769C49.0848 55.1869 49.2122 55.1515 49.3154 55.0771C49.4187 55.0028 49.4911 54.8944 49.5192 54.7721L55.6048 25.4031C55.6244 25.307 55.6344 25.2133 55.6344 25.1235L55.7231 23.0994C55.7268 23.0057 55.7499 22.9136 55.791 22.8288C55.8321 22.744 55.8904 22.6683 55.9623 22.6061C56.0342 22.5439 56.1183 22.4967 56.2094 22.4671C56.3005 22.4376 56.3968 22.4265 56.4925 22.4344L61.6609 22.8006C61.9342 22.8255 62.2111 22.7502 62.44 22.5886L87.118 5.42209C87.3334 5.27538 87.52 5.09959 87.6703 4.90162C88.7027 3.53935 90.1921 2.35699 92.1384 1.35457C92.4298 1.20529 92.7669 1.16504 93.0865 1.24135C93.4061 1.31765 93.6862 1.50529 93.8744 1.76905C95.2059 3.64859 97.218 4.86305 99.1413 6.72331C106.782 14.1258 114.459 21.9203 122.172 30.1067C123.099 31.0995 123.78 32.3236 124.608 33.2393C124.88 33.5427 125.258 33.7324 125.664 33.7694C131.299 34.2899 137.881 35.5269 145.41 37.4803C147.185 37.943 149.119 39.0225 150.667 38.9936C150.841 38.9934 151.013 39.0285 151.173 39.0965C151.333 39.1645 151.476 39.264 151.594 39.3888C152.659 40.5262 153.074 41.6507 152.837 42.7623C152.239 45.5768 150.49 51.6941 147.59 61.1143C147.566 61.1934 147.558 61.2765 147.566 61.3586C147.575 61.4407 147.6 61.5203 147.641 61.5929C147.681 61.6654 147.736 61.7295 147.801 61.7813C147.867 61.8332 147.943 61.8718 148.024 61.8951C150.351 62.5569 151.847 64.1152 152.512 66.5698C152.596 66.8688 152.616 67.1839 152.571 67.4952C151.953 71.7169 151.341 74.7756 150.736 76.6712C147.179 87.7749 144.318 98.7887 142.155 109.712C142.14 109.787 142.143 109.863 142.162 109.936C142.182 110.01 142.218 110.077 142.269 110.135C142.319 110.192 142.382 110.238 142.453 110.268C142.523 110.299 142.601 110.313 142.678 110.31ZM119.351 33.2779C119.424 33.2904 119.5 33.2796 119.566 33.2469C119.633 33.2142 119.686 33.1615 119.72 33.0965C119.753 33.0315 119.764 32.9578 119.751 32.8862C119.738 32.8147 119.701 32.7492 119.647 32.6995C110.902 25.0978 102.084 16.5098 93.1938 6.93536C93.0436 6.77451 92.8358 6.67606 92.6123 6.65995C92.3889 6.64384 92.1665 6.71129 91.9904 6.84862C87.2429 10.5949 84.0505 12.9499 82.4132 13.9138C80.6838 14.9226 78.3726 16.4487 75.4793 18.4921C73.5922 19.8287 70.8206 21.4062 67.1646 23.2247C67.0423 23.2845 66.9426 23.3799 66.879 23.4978C66.8154 23.6157 66.7912 23.7504 66.8095 23.8834C66.8279 24.0164 66.888 24.1412 66.9816 24.2407C67.0752 24.3402 67.1976 24.4095 67.3322 24.4392C74.8579 26.0199 81.348 26.9645 87.473 28.2079C98.2898 30.3927 105.424 31.6361 108.876 31.9381C112.25 32.2272 115.741 32.6738 119.351 33.2779ZM49.7362 70.5313C50.1373 70.8655 51.6529 71.8358 54.2831 73.4422C67.1514 81.2881 78.6849 87.987 88.8835 93.5388C89.0614 93.6347 89.2641 93.6799 89.4694 93.6697C89.6747 93.6595 89.8747 93.5943 90.0474 93.481C94.0059 90.8143 98.0334 88.5525 102.13 86.6954C102.426 86.5605 113.134 81.6447 134.255 71.9482C137.339 70.5281 139.745 69.5353 141.475 68.9699C141.7 68.8966 141.896 68.7574 142.037 68.5712C142.178 68.3849 142.258 68.1606 142.264 67.9289C142.329 65.9433 142.711 63.5754 143.408 60.8252C145.528 52.4974 146.564 47.013 148.33 43.2153C148.385 43.0972 148.413 42.9687 148.413 42.839C148.413 42.7092 148.384 42.5813 148.329 42.4639C148.274 42.3466 148.193 42.2427 148.093 42.1594C147.992 42.0761 147.874 42.0154 147.748 41.9816C142.5 40.5743 136.688 39.5012 130.309 38.7623C119.703 37.5349 110.487 36.4072 102.663 35.3791C94.762 34.3381 87.8183 32.4393 79.5232 30.9839C78.0109 30.714 72.0107 29.2682 61.5228 26.6465C61.3227 26.5967 61.1144 26.5876 60.9108 26.6197C60.7072 26.6518 60.5127 26.7245 60.3396 26.833C60.1664 26.9416 60.0183 27.0838 59.9046 27.2508C59.7908 27.4177 59.7137 27.6057 59.6783 27.8031C57.6136 39.3631 55.1577 51.2187 52.3105 63.3698C51.5806 66.4927 50.7027 68.6229 49.677 69.7602C49.5808 69.8705 49.5332 70.0133 49.5443 70.1577C49.5554 70.3021 49.6243 70.4364 49.7362 70.5313ZM33.3138 58.9167L46.4911 68.3048C46.584 68.3711 46.6927 68.4134 46.8068 68.4275C46.9208 68.4417 47.0364 68.4273 47.1424 68.3857C47.2484 68.344 47.3412 68.2766 47.412 68.1898C47.4828 68.1031 47.5291 67.9999 47.5465 67.8903L49.1937 58.5119C49.2096 58.4284 49.2065 58.3425 49.1846 58.2603C49.1627 58.1781 49.1226 58.1016 49.0671 58.0363C49.0115 57.9709 48.9419 57.9184 48.8632 57.8823C48.7845 57.8462 48.6987 57.8275 48.6118 57.8276C48.237 57.8179 47.4577 58.2999 46.6687 58.3095C39.817 58.393 35.4147 58.4444 33.4618 58.4637C33.4079 58.4644 33.3557 58.4816 33.3124 58.5129C33.2691 58.5442 33.237 58.588 33.2207 58.6381C33.2043 58.6882 33.2045 58.7421 33.2212 58.7921C33.2379 58.8421 33.2703 58.8857 33.3138 58.9167ZM146.436 70.3L145.025 72.1988C144.825 72.4643 144.56 72.6764 144.256 72.8157L93.539 95.9196C93.489 95.944 93.4447 95.9784 93.4091 96.0203C93.3735 96.0622 93.3474 96.1107 93.3324 96.1626C93.3175 96.2146 93.3142 96.2688 93.3226 96.3216C93.331 96.3744 93.351 96.4246 93.3812 96.469C93.6771 96.9123 94.1932 97.2144 94.9297 97.375C99.6641 98.4417 104.796 99.8457 110.326 101.587C114.521 102.911 120.071 104.151 126.976 105.308C127.064 105.323 127.144 105.37 127.201 105.438C127.259 105.507 127.291 105.594 127.291 105.684V105.963C127.291 106.109 127.233 106.249 127.129 106.352C127.026 106.455 126.885 106.513 126.739 106.513C123.865 106.506 121.945 106.442 120.979 106.32C113.93 105.465 107.334 103.961 101.193 101.809C98.7271 100.941 95.6398 100.565 92.957 99.3992C92.6414 99.2638 92.3932 99.0107 92.2666 98.6955C92.0957 98.2971 92.0233 97.7766 92.0496 97.134C92.0531 97.0417 92.0319 96.95 91.9879 96.8682C91.944 96.7863 91.8789 96.7171 91.7991 96.6675C91.7194 96.6178 91.6278 96.5894 91.5333 96.585C91.4388 96.5806 91.3448 96.6004 91.2606 96.6425C89.6364 97.465 88.0616 97.4714 86.5361 96.6618C76.9194 91.5533 63.9886 84.8158 53.9478 78.5218C45.4653 73.2012 37.075 67.6687 28.7767 61.924C28.698 61.8697 28.606 61.8364 28.51 61.8276C28.414 61.8187 28.3174 61.8346 28.2296 61.8736C28.1418 61.9125 28.0661 61.9733 28.0098 62.0498C27.9535 62.1263 27.9186 62.2158 27.9087 62.3095C26.6068 75.7137 25.5251 88.2536 24.6637 99.9293C24.5322 101.69 24.0818 104.495 23.3124 108.344C23.2859 108.475 23.2901 108.61 23.3246 108.74C23.3592 108.869 23.4233 108.99 23.5122 109.092C23.6011 109.195 23.7125 109.277 23.8384 109.333C23.9643 109.388 24.1013 109.416 24.2396 109.414C39.9025 109.092 54.3916 108.697 67.7071 108.228C79.1024 107.83 88.3904 107.865 95.5708 108.334C109.636 109.259 123.596 109.761 137.45 109.838C137.534 109.839 137.615 109.81 137.678 109.757C137.742 109.703 137.784 109.63 137.796 109.549C139.518 96.5236 142.629 83.5564 147.126 70.647C147.153 70.5606 147.148 70.4677 147.112 70.3845C147.076 70.3013 147.011 70.2331 146.929 70.1918C146.847 70.1505 146.753 70.1388 146.662 70.1585C146.572 70.1783 146.492 70.2284 146.436 70.3ZM147.511 66.8012C147.932 66.6919 148.234 66.5795 148.418 66.4638C148.553 66.3806 148.648 66.2486 148.683 66.0968C148.718 65.9451 148.69 65.7859 148.606 65.6542C148.172 64.9795 147.629 64.7289 146.978 64.9023C146.334 65.0694 145.998 65.5514 145.972 66.3481C145.97 66.4254 145.983 66.5023 146.01 66.5746C146.038 66.647 146.08 66.7132 146.134 66.7696C146.188 66.826 146.253 66.8715 146.325 66.9033C146.397 66.9352 146.475 66.9529 146.554 66.9554C146.771 66.9682 147.09 66.9168 147.511 66.8012Z" fill="black"/>
<path d="M119.351 33.2779C115.741 32.6739 112.25 32.2273 108.876 31.9381C105.424 31.6361 98.2898 30.3927 87.473 28.2079C81.3479 26.9645 74.8579 26.02 67.3322 24.4392C67.1976 24.4095 67.0751 24.3402 66.9815 24.2407C66.888 24.1412 66.8279 24.0164 66.8095 23.8834C66.7911 23.7504 66.8154 23.6157 66.879 23.4978C66.9425 23.3799 67.0423 23.2845 67.1646 23.2247C70.8205 21.4062 73.5921 19.8287 75.4793 18.4921C78.3725 16.4487 80.6838 14.9226 82.4132 13.9138C84.0505 12.9499 87.2429 10.5949 91.9904 6.84863C92.1665 6.7113 92.3888 6.64386 92.6123 6.65996C92.8357 6.67607 93.0436 6.77453 93.1938 6.93538C102.084 16.5098 110.902 25.0979 119.647 32.6996C119.701 32.7493 119.738 32.8147 119.751 32.8863C119.764 32.9578 119.753 33.0315 119.72 33.0965C119.686 33.1615 119.633 33.2142 119.566 33.2469C119.5 33.2796 119.424 33.2905 119.351 33.2779Z" fill="white"/>
<path d="M49.6769 69.7603C50.7027 68.6229 51.5806 66.4928 52.3105 63.3698C55.1577 51.2187 57.6136 39.3631 59.6783 27.8031C59.7137 27.6057 59.7908 27.4177 59.9045 27.2508C60.0183 27.0839 60.1664 26.9416 60.3395 26.8331C60.5127 26.7245 60.7072 26.6519 60.9108 26.6197C61.1144 26.5876 61.3227 26.5968 61.5227 26.6465C72.0107 29.2682 78.0109 30.714 79.5232 30.9839C87.8182 32.4393 94.762 34.3381 102.663 35.3791C110.487 36.4072 119.703 37.5349 130.309 38.7623C136.688 39.5012 142.5 40.5744 147.748 41.9816C147.874 42.0155 147.992 42.0761 148.093 42.1594C148.193 42.2427 148.274 42.3466 148.329 42.4639C148.384 42.5813 148.413 42.7093 148.413 42.839C148.413 42.9687 148.385 43.0972 148.329 43.2154C146.564 47.013 145.528 52.4974 143.408 60.8252C142.711 63.5754 142.329 65.9433 142.264 67.9289C142.258 68.1606 142.178 68.3849 142.037 68.5712C141.896 68.7574 141.7 68.8967 141.474 68.9699C139.745 69.5354 137.338 70.5281 134.255 71.9482C113.134 81.6447 102.426 86.5605 102.13 86.6954C98.0334 88.5525 94.0058 90.8143 90.0474 93.481C89.8747 93.5943 89.6747 93.6596 89.4694 93.6698C89.2641 93.68 89.0614 93.6347 88.8835 93.5389C78.6848 87.987 67.1514 81.2881 54.2831 73.4423C51.6529 71.8358 50.1373 70.8655 49.7362 70.5314C49.6243 70.4364 49.5553 70.3021 49.5442 70.1577C49.5332 70.0133 49.5808 69.8705 49.6769 69.7603ZM83.8631 39.6201C81.7721 38.5277 80.286 37.9141 79.4049 37.7791C74.8086 37.0723 70.8863 36.041 67.638 34.6851C67.3059 34.5515 66.9541 34.4828 66.6023 34.4827H64.2253C63.8685 34.4833 63.524 34.6081 63.2543 34.8345C62.9846 35.0609 62.8076 35.3739 62.7556 35.7165C62.3151 38.5824 61.8515 41.4933 61.3649 44.4491C61.069 46.2805 61.9863 47.5431 63.959 47.8612C66.5169 48.2724 68.9268 48.5423 71.1888 48.6709C75.0059 48.8925 78.961 50.0684 82.8176 50.3094C83.4047 50.3475 83.9855 50.1741 84.4493 49.8222C84.9131 49.4702 85.2276 48.9643 85.3327 48.4009C86.3914 42.8169 87.0555 39.649 87.3251 38.8972C87.6473 37.9848 87.2626 37.2844 86.1711 36.796C86.0444 36.7412 85.9056 36.7215 85.768 36.7388C85.6303 36.7562 85.4983 36.8099 85.3847 36.8949C85.271 36.9799 85.1793 37.0934 85.1185 37.2245C85.0576 37.3557 85.0295 37.5002 85.0368 37.6442C85.0763 38.4474 84.9842 39.0257 84.7606 39.3792C84.6736 39.5223 84.5325 39.6269 84.3658 39.6717C84.1991 39.7164 84.0193 39.698 83.8631 39.6201ZM113.986 47.1576C118.496 47.723 123.007 48.2757 127.518 48.8154C130.615 49.1817 133.071 49.9624 136.109 49.6926C136.377 49.6639 136.627 49.5426 136.813 49.3504C137 49.1582 137.11 48.9079 137.124 48.6448C137.139 48.3816 137.056 48.123 136.891 47.9156C136.727 47.7083 136.491 47.5659 136.227 47.5142C126.969 45.7535 119.696 44.5423 114.41 43.8804C109.123 43.2186 101.775 42.6017 92.3652 42.0298C92.0942 42.0107 91.8261 42.0882 91.6101 42.2479C91.3942 42.4076 91.2449 42.6388 91.1897 42.8991C91.1345 43.1594 91.1771 43.4312 91.3097 43.6646C91.4423 43.898 91.656 44.0773 91.9115 44.1696C94.7817 45.1816 97.3659 45.0274 100.453 45.4322C104.957 46.0234 109.468 46.5985 113.986 47.1576ZM132.617 57.3553C131.993 56.3272 130.983 55.7199 129.589 55.5336C121.153 54.3769 113.726 53.4355 107.308 52.7094C103.294 52.2468 98.6876 51.2347 93.894 51.1576C93.6338 51.1576 93.3754 51.1051 93.1346 51.0034L91.6551 50.4058C91.5266 50.3535 91.3875 50.3304 91.2483 50.3384C91.1092 50.3463 90.9734 50.3851 90.8512 50.4517C90.729 50.5184 90.6234 50.6113 90.5423 50.7235C90.4612 50.8357 90.4066 50.9643 90.3827 51.0998L90.3235 51.4661C90.2691 51.7728 90.3413 52.088 90.5244 52.3428C90.7074 52.5976 90.9863 52.771 91.3 52.8251L99.4569 54.2034C99.5617 54.2226 99.6644 54.255 99.7627 54.2998C103.195 55.8517 106.805 55.1962 109.932 56.0348C110.004 56.054 110.077 56.0669 110.149 56.0733L132.252 57.924C132.323 57.9304 132.395 57.9175 132.458 57.8867C132.522 57.8559 132.576 57.8084 132.614 57.7494C132.652 57.6905 132.672 57.6224 132.673 57.5528C132.673 57.4832 132.654 57.4148 132.617 57.3553ZM68.9103 56.883C69.489 55.8549 70.38 55.7039 71.5833 56.43C71.7164 56.5148 71.8671 56.5707 72.0253 56.5939C72.1835 56.6172 72.3455 56.6073 72.5006 56.5649C73.362 56.3336 74.1214 56.4011 74.779 56.7673C74.8414 56.8017 74.8954 56.849 74.9374 56.9059C74.9793 56.9629 75.0082 57.0282 75.0223 57.0976C75.0363 57.167 75.035 57.2387 75.0186 57.3081C75.0021 57.3775 74.9709 57.4428 74.927 57.4999C73.6908 59.0677 73.4475 60.1601 74.1971 60.777C74.2484 60.8205 74.3114 60.8445 74.3746 60.8445L75.4793 60.883C75.6244 60.8882 75.7691 60.8653 75.9052 60.8158C76.0412 60.7663 76.1659 60.691 76.2722 60.5943C76.3785 60.4976 76.4642 60.3814 76.5244 60.2523C76.5847 60.1233 76.6183 59.9839 76.6234 59.8421L76.6629 58.7336C76.6654 58.6467 76.6856 58.5611 76.7223 58.4819C76.759 58.4027 76.8115 58.3314 76.8767 58.2722C76.9419 58.213 77.0184 58.167 77.1019 58.137C77.1855 58.107 77.2743 58.0936 77.3632 58.0975C79.6777 58.2067 81.44 58.5184 82.6499 59.0324C82.7628 59.0806 82.8858 59.1015 83.0087 59.0935C83.1316 59.0855 83.2507 59.0488 83.3561 58.9865C83.4614 58.9241 83.5499 58.838 83.6141 58.7353C83.6783 58.6326 83.7163 58.5163 83.725 58.3963L83.7842 57.3071C83.8008 57.0395 83.7167 56.7751 83.5478 56.5638C83.3788 56.3526 83.1367 56.209 82.8669 56.1601C81.1112 55.8517 77.304 54.9552 74.1872 53.9528C72.8984 53.5416 71.6852 53.3006 70.5477 53.2299C65.3727 52.9343 62.0126 52.5616 60.4674 52.1118C60.3483 52.0757 60.2211 52.0742 60.1013 52.1075C59.9814 52.1409 59.8741 52.2077 59.7924 52.2998C59.7108 52.3918 59.6584 52.5051 59.6416 52.6258C59.6249 52.7465 59.6445 52.8693 59.698 52.9793L60.2405 54.1167C60.4245 54.505 60.7145 54.8359 61.0785 55.0724C61.4424 55.309 61.866 55.4419 62.302 55.4565L67.0462 55.6107C67.1653 55.6137 67.2801 55.6551 67.3728 55.7282C67.4655 55.8014 67.5309 55.9024 67.5591 56.0155C67.6511 56.3882 67.8582 56.7159 68.1804 56.9987C68.2331 57.0452 68.2958 57.0796 68.3639 57.0992C68.432 57.1189 68.5038 57.1234 68.5739 57.1123C68.6439 57.1011 68.7106 57.0748 68.7688 57.0351C68.8271 56.9954 68.8754 56.9434 68.9103 56.883ZM69.2654 58.483C70.1071 59.0613 70.8666 59.0163 71.5439 58.3481C71.6209 58.2704 71.6667 58.1673 71.6725 58.0584C71.6783 57.9495 71.6438 57.8425 71.5754 57.7578C71.5071 57.6731 71.4097 57.6167 71.302 57.5994C71.1943 57.582 71.0838 57.6049 70.9915 57.6637C70.4918 57.9722 69.9657 58.1071 69.4134 58.0686C69.3637 58.0679 69.315 58.0825 69.2743 58.1103C69.2336 58.1381 69.2029 58.1778 69.1865 58.2237C69.1702 58.2695 69.169 58.3192 69.1832 58.3658C69.1973 58.4123 69.2261 58.4534 69.2654 58.483ZM132.85 65.2471C132.88 65.057 132.871 64.8629 132.824 64.676C132.777 64.4892 132.693 64.3132 132.576 64.1581C132.46 64.0031 132.313 63.872 132.145 63.7723C131.976 63.6726 131.79 63.6063 131.595 63.5772L90.7629 57.4713C90.3698 57.4126 89.969 57.5088 89.6486 57.7388C89.3281 57.9689 89.1143 58.3139 89.0541 58.6979L89.0452 58.7551C89.0154 58.9453 89.0242 59.1394 89.0712 59.3262C89.1181 59.5131 89.2023 59.689 89.3188 59.8441C89.4354 59.9992 89.5821 60.1303 89.7505 60.23C89.9189 60.3296 90.1057 60.3959 90.3003 60.425L131.132 66.5309C131.526 66.5897 131.926 66.4935 132.247 66.2634C132.567 66.0334 132.781 65.6884 132.841 65.3043L132.85 65.2471ZM81.486 68.1217L81.8411 66.5988C81.8797 66.4378 81.8516 66.2684 81.7629 66.1275C81.6742 65.9867 81.5321 65.8858 81.3676 65.8469L67.5591 62.7337C66.5 62.4948 65.4438 62.2903 64.4507 62.1319C63.4577 61.9736 62.5472 61.8644 61.7714 61.8107C60.9956 61.757 60.3697 61.7598 59.9293 61.819C59.489 61.8781 59.2428 61.9924 59.2049 62.1553L59.1457 62.4156C59.1024 62.5778 59.2693 62.786 59.6369 63.028C60.0046 63.2701 60.5656 63.5413 61.2878 63.8261C62.01 64.111 62.8792 64.4037 63.8454 64.6877C64.8116 64.9716 65.8558 65.2411 66.918 65.4807L80.7167 68.594C80.799 68.6125 80.8841 68.615 80.9674 68.6013C81.0506 68.5875 81.1303 68.5579 81.2017 68.514C81.2732 68.4701 81.3351 68.4129 81.3839 68.3455C81.4327 68.2782 81.4674 68.2021 81.486 68.1217ZM104.724 71.1097C107.729 71.5273 110.678 71.9001 113.571 72.2278C116.629 72.5748 118.865 72.5715 120.278 72.2181C120.464 72.1733 120.631 72.0755 120.759 71.937C120.887 71.7986 120.97 71.6257 120.998 71.4401C121.025 71.2545 120.996 71.0646 120.913 70.8943C120.831 70.724 120.699 70.581 120.535 70.4832C120.068 70.2069 119.489 70.0398 118.799 69.9819C117.878 69.9048 113.331 69.2944 105.158 68.1506C96.9845 67.0068 92.4441 66.345 91.5367 66.165C90.8594 66.0301 90.2578 66.0301 89.7318 66.165C89.5457 66.2134 89.3779 66.3141 89.2495 66.4547C89.1212 66.5952 89.0381 66.7693 89.0107 66.9548C88.9832 67.1404 89.0127 67.3292 89.0954 67.4974C89.1781 67.6656 89.3103 67.8057 89.4753 67.9C90.7312 68.6261 92.8749 69.243 95.9062 69.7506C98.7797 70.2326 101.719 70.6855 104.724 71.1097Z" fill="white"/>
<path d="M84.7606 39.3792C84.9842 39.0257 85.0763 38.4474 85.0368 37.6442C85.0295 37.5002 85.0576 37.3557 85.1185 37.2245C85.1794 37.0934 85.271 36.9799 85.3847 36.8949C85.4984 36.8099 85.6303 36.7562 85.768 36.7388C85.9056 36.7215 86.0444 36.7412 86.1711 36.796C87.2626 37.2844 87.6473 37.9848 87.3251 38.8972C87.0555 39.649 86.3914 42.8169 85.3327 48.4009C85.2276 48.9643 84.9132 49.4702 84.4493 49.8222C83.9855 50.1741 83.4047 50.3475 82.8176 50.3094C78.9611 50.0684 75.0059 48.8925 71.1888 48.6709C68.9268 48.5423 66.5169 48.2724 63.959 47.8612C61.9864 47.5431 61.0691 46.2805 61.365 44.4491C61.8516 41.4933 62.3151 38.5824 62.7557 35.7165C62.8076 35.3739 62.9846 35.0609 63.2543 34.8345C63.524 34.6081 63.8685 34.4833 64.2253 34.4827H66.6024C66.9541 34.4828 67.3059 34.5515 67.638 34.6851C70.8863 36.041 74.8086 37.0723 79.4049 37.7791C80.286 37.9141 81.7721 38.5277 83.8631 39.6201C84.0194 39.698 84.1991 39.7164 84.3658 39.6717C84.5325 39.6269 84.6736 39.5223 84.7606 39.3792ZM78.8723 42.5792C79.1353 42.3543 79.349 41.9527 79.5134 41.3744C79.7435 40.5454 79.543 40.0956 78.9117 40.025C78.3331 39.9607 77.7544 40.2659 77.1758 40.9406C77.1068 41.0207 77.0567 41.1146 77.0289 41.2156C77.0012 41.3167 76.9966 41.4226 77.0155 41.5256C77.0343 41.6286 77.0761 41.7263 77.1379 41.8118C77.1997 41.8973 77.28 41.9684 77.3731 42.0201L77.9451 42.3479C78.0171 42.3883 78.0792 42.4435 78.1271 42.5098C78.1751 42.576 78.2077 42.6517 78.2227 42.7315C78.2377 42.8112 78.2348 42.8933 78.2141 42.9718C78.1934 43.0504 78.1555 43.1236 78.1029 43.1864C77.3928 44.0475 76.6991 44.1889 76.0218 43.6106C75.9613 43.5579 75.8907 43.5176 75.8143 43.4919C75.7379 43.4662 75.6573 43.4558 75.5771 43.4612C75.497 43.4666 75.4191 43.4877 75.348 43.5233C75.277 43.5589 75.2143 43.6083 75.1637 43.6684C74.8481 44.0282 74.5883 44.2756 74.3845 44.4105C74.292 44.468 74.1849 44.4991 74.0753 44.5006C73.9656 44.502 73.8578 44.4737 73.7637 44.4187C73.6696 44.3637 73.5929 44.2843 73.5423 44.1892C73.4917 44.0942 73.4691 43.9873 73.477 43.8804L73.842 39.0418C73.8509 38.9163 73.8112 38.7922 73.7308 38.694C73.6505 38.5958 73.5353 38.5307 73.4081 38.5117C73.0398 38.4539 72.7275 38.4699 72.471 38.5599C72.3239 38.6084 72.1999 38.7075 72.1219 38.8387C72.0439 38.9698 72.0173 39.1242 72.0469 39.2731C72.3297 40.6097 72.3461 41.9238 72.0962 43.2154C72.0573 43.4086 71.9524 43.5827 71.7994 43.7075C71.6464 43.8324 71.4549 43.9003 71.2578 43.8997H68.5158C68.338 43.8997 68.1674 43.8307 68.0416 43.7077C67.9158 43.5848 67.8451 43.4181 67.8451 43.2443V40.025C67.8456 39.957 67.8611 39.8899 67.8905 39.8284C67.9199 39.767 67.9625 39.7127 68.0152 39.6695C68.0679 39.6262 68.1295 39.5951 68.1956 39.5782C68.2616 39.5614 68.3306 39.5592 68.3975 39.5719C69.3378 39.7583 70.1334 39.7294 70.7844 39.4852C70.8873 39.449 70.9775 39.3846 71.0442 39.2999C71.1108 39.2151 71.1512 39.1135 71.1606 39.0069C71.1699 38.9004 71.1478 38.7935 71.0968 38.6989C71.0459 38.6043 70.9683 38.5259 70.8732 38.4731L66.9673 36.2659C66.8469 36.1964 66.7104 36.1583 66.5706 36.1551C66.4309 36.1519 66.2926 36.1836 66.169 36.2474C66.0454 36.3112 65.9406 36.4048 65.8645 36.5194C65.7884 36.634 65.7436 36.7657 65.7344 36.902L65.1426 44.6612C65.13 44.8345 65.1549 45.0084 65.2158 45.1716C65.2767 45.3349 65.3722 45.4837 65.4961 45.6084C65.6199 45.733 65.7693 45.8307 65.9344 45.895C66.0996 45.9594 66.2768 45.9889 66.4544 45.9817C71.7214 45.776 76.7221 46.425 81.4565 47.9287C81.5928 47.9726 81.7404 47.9698 81.8749 47.9207C82.0093 47.8717 82.1227 47.7793 82.1962 47.6588C83.3864 45.7567 83.8532 43.6684 83.5968 41.3936C83.5774 41.2337 83.4993 41.0863 83.3774 40.9796C83.2555 40.873 83.0984 40.8144 82.936 40.8153H82.5316C82.3682 40.815 82.2108 40.8757 82.0916 40.985C81.9725 41.0943 81.9005 41.2439 81.8905 41.4033L81.703 43.8611C81.6894 44.0142 81.6203 44.1575 81.5082 44.2653C81.3961 44.373 81.2484 44.4382 81.0915 44.4491C80.0657 44.5069 79.2931 44.1278 78.7736 43.3117C78.6993 43.1964 78.6685 43.0597 78.6865 42.9256C78.7046 42.7916 78.7704 42.6689 78.8723 42.5792ZM76.436 40.6997C76.5412 39.8707 76.5215 39.3631 76.3768 39.1768C76.3042 39.083 76.2058 39.0079 76.0938 38.9609C75.9819 38.9139 75.8615 38.897 75.7477 38.9125C75.6339 38.9279 75.5318 38.975 75.4542 39.0477C75.3766 39.1204 75.3271 39.2156 75.3117 39.3213C75.2591 39.7326 75.453 40.237 75.8936 40.8346C75.9271 40.883 75.9748 40.9198 76.0305 40.9403C76.0862 40.9608 76.1473 40.9639 76.2058 40.9494C76.2644 40.9348 76.3177 40.9032 76.3587 40.8586C76.3998 40.8141 76.4267 40.7587 76.436 40.6997ZM81.1705 40.2177C81.2296 40.0571 81.1803 39.9703 81.0225 39.9575C80.7529 39.9318 80.6148 40.0025 80.6082 40.1695C80.6048 40.234 80.6258 40.2945 80.6675 40.3403C80.7092 40.3862 80.7689 40.4145 80.8362 40.4203C80.9034 40.4261 80.9738 40.4089 81.0349 40.3719C81.0961 40.3348 81.1441 40.2802 81.1705 40.2177Z" fill="black"/>
<path d="M78.7736 43.3117C79.2931 44.1278 80.0657 44.5069 81.0915 44.4491C81.2484 44.4382 81.3961 44.373 81.5082 44.2653C81.6202 44.1575 81.6893 44.0142 81.703 43.8611L81.8904 41.4033C81.9005 41.2439 81.9725 41.0942 82.0916 40.985C82.2108 40.8757 82.3682 40.815 82.5316 40.8153H82.9359C83.0984 40.8144 83.2555 40.8729 83.3774 40.9796C83.4993 41.0863 83.5774 41.2337 83.5968 41.3936C83.8532 43.6684 83.3864 45.7567 82.1962 47.6588C82.1227 47.7792 82.0093 47.8716 81.8748 47.9207C81.7404 47.9698 81.5928 47.9726 81.4565 47.9286C76.7221 46.425 71.7214 45.776 66.4544 45.9816C66.2767 45.9889 66.0996 45.9593 65.9344 45.895C65.7693 45.8307 65.6199 45.733 65.496 45.6083C65.3722 45.4837 65.2767 45.3348 65.2158 45.1716C65.1549 45.0084 65.13 44.8345 65.1426 44.6612L65.7344 36.902C65.7436 36.7657 65.7884 36.634 65.8645 36.5194C65.9406 36.4048 66.0454 36.3112 66.169 36.2474C66.2926 36.1836 66.4309 36.1518 66.5706 36.1551C66.7104 36.1583 66.8469 36.1964 66.9673 36.2658L70.8732 38.4731C70.9683 38.5259 71.0459 38.6043 71.0968 38.6989C71.1478 38.7935 71.1699 38.9004 71.1606 39.0069C71.1512 39.1135 71.1108 39.2151 71.0441 39.2999C70.9775 39.3846 70.8873 39.4489 70.7844 39.4852C70.1334 39.7293 69.3378 39.7583 68.3975 39.5719C68.3306 39.5592 68.2616 39.5613 68.1956 39.5782C68.1295 39.5951 68.0679 39.6262 68.0152 39.6695C67.9625 39.7127 67.9199 39.767 67.8905 39.8284C67.8611 39.8899 67.8456 39.957 67.8451 40.025V43.2443C67.8451 43.4181 67.9158 43.5848 68.0416 43.7077C68.1674 43.8306 68.338 43.8997 68.5158 43.8997H71.2578C71.4549 43.9003 71.6464 43.8324 71.7994 43.7075C71.9523 43.5826 72.0573 43.4086 72.0962 43.2154C72.3461 41.9238 72.3297 40.6097 72.0469 39.2731C72.0172 39.1242 72.0439 38.9698 72.1219 38.8386C72.1999 38.7075 72.3239 38.6084 72.471 38.5599C72.7275 38.4699 73.0398 38.4538 73.408 38.5117C73.5352 38.5307 73.6504 38.5958 73.7308 38.694C73.8112 38.7922 73.8509 38.9163 73.842 39.0418L73.477 43.8804C73.4691 43.9873 73.4917 44.0942 73.5423 44.1892C73.5929 44.2843 73.6695 44.3637 73.7636 44.4187C73.8577 44.4737 73.9656 44.502 74.0752 44.5005C74.1849 44.4991 74.2919 44.468 74.3845 44.4105C74.5883 44.2756 74.848 44.0282 75.1637 43.6684C75.2143 43.6083 75.277 43.5589 75.348 43.5233C75.419 43.4877 75.497 43.4666 75.5771 43.4612C75.6573 43.4558 75.7379 43.4662 75.8143 43.4919C75.8907 43.5175 75.9613 43.5579 76.0218 43.6105C76.6991 44.1889 77.3928 44.0475 78.1029 43.1864C78.1555 43.1236 78.1934 43.0504 78.2141 42.9718C78.2348 42.8933 78.2377 42.8112 78.2227 42.7314C78.2077 42.6517 78.175 42.576 78.1271 42.5098C78.0792 42.4435 78.0171 42.3883 77.9451 42.3478L77.373 42.0201C77.28 41.9684 77.1997 41.8973 77.1379 41.8118C77.0761 41.7263 77.0343 41.6286 77.0154 41.5256C76.9966 41.4226 77.0012 41.3167 77.0289 41.2156C77.0566 41.1145 77.1068 41.0206 77.1758 40.9406C77.7544 40.2659 78.3331 39.9607 78.9117 40.025C79.543 40.0956 79.7435 40.5454 79.5134 41.3744C79.349 41.9527 79.1353 42.3543 78.8723 42.5792C78.7704 42.6689 78.7045 42.7916 78.6865 42.9256C78.6685 43.0596 78.6993 43.1964 78.7736 43.3117Z" fill="white"/>
<path d="M75.8935 40.8346C75.453 40.237 75.259 39.7326 75.3116 39.3213C75.3271 39.2156 75.3766 39.1204 75.4542 39.0477C75.5318 38.975 75.6339 38.9279 75.7477 38.9125C75.8615 38.897 75.9819 38.9139 76.0938 38.9609C76.2058 39.0079 76.3042 39.083 76.3768 39.1768C76.5215 39.3631 76.5412 39.8707 76.436 40.6997C76.4267 40.7587 76.3998 40.8141 76.3587 40.8586C76.3176 40.9032 76.2643 40.9348 76.2058 40.9494C76.1473 40.9639 76.0861 40.9608 76.0304 40.9403C75.9747 40.9198 75.927 40.883 75.8935 40.8346Z" fill="white"/>
<path d="M81.1704 40.2177C81.1441 40.2802 81.0961 40.3348 81.0349 40.3718C80.9738 40.4089 80.9033 40.426 80.8361 40.4203C80.7689 40.4145 80.7092 40.3862 80.6675 40.3403C80.6258 40.2945 80.6048 40.234 80.6082 40.1695C80.6148 40.0025 80.7528 39.9318 81.0224 39.9575C81.1803 39.9703 81.2296 40.0571 81.1704 40.2177Z" fill="white"/>
<path d="M114.41 43.8804C119.696 44.5423 126.969 45.7535 136.227 47.5142C136.491 47.5659 136.727 47.7083 136.891 47.9156C137.056 48.123 137.138 48.3816 137.124 48.6448C137.11 48.9079 137 49.1582 136.813 49.3504C136.627 49.5426 136.377 49.6639 136.109 49.6925C133.071 49.9624 130.615 49.1817 127.518 48.8154C123.007 48.2757 118.496 47.723 113.986 47.1576C109.468 46.5985 104.957 46.0234 100.453 45.4322C97.3659 45.0274 94.7817 45.1816 91.9115 44.1696C91.656 44.0773 91.4423 43.898 91.3097 43.6646C91.1771 43.4312 91.1345 43.1594 91.1897 42.8991C91.2449 42.6388 91.3941 42.4076 91.6101 42.2479C91.8261 42.0882 92.0942 42.0107 92.3652 42.0298C101.775 42.6017 109.123 43.2186 114.41 43.8804Z" fill="black"/>
<path d="M132.617 57.3553C132.654 57.4148 132.673 57.4832 132.673 57.5528C132.672 57.6224 132.652 57.6905 132.614 57.7494C132.576 57.8084 132.522 57.8559 132.458 57.8867C132.395 57.9175 132.323 57.9304 132.252 57.924L110.149 56.0733C110.077 56.0669 110.004 56.054 109.932 56.0348C106.805 55.1962 103.195 55.8517 99.7627 54.2998C99.6645 54.255 99.5617 54.2226 99.457 54.2034L91.3 52.8251C90.9863 52.771 90.7074 52.5976 90.5244 52.3428C90.3414 52.088 90.2691 51.7728 90.3236 51.4661L90.3827 51.0998C90.4067 50.9643 90.4612 50.8357 90.5423 50.7235C90.6234 50.6113 90.729 50.5184 90.8512 50.4517C90.9735 50.3851 91.1092 50.3463 91.2484 50.3384C91.3875 50.3304 91.5266 50.3535 91.6551 50.4058L93.1346 51.0034C93.3754 51.1051 93.6339 51.1576 93.8941 51.1576C98.6876 51.2347 103.294 52.2468 107.308 52.7094C113.726 53.4355 121.153 54.3769 129.589 55.5336C130.983 55.7199 131.993 56.3272 132.617 57.3553Z" fill="black"/>
<path d="M68.1804 56.9986C67.8582 56.7159 67.6511 56.3882 67.559 56.0155C67.5309 55.9024 67.4655 55.8014 67.3728 55.7282C67.2801 55.655 67.1653 55.6137 67.0462 55.6107L62.302 55.4565C61.866 55.4419 61.4424 55.3089 61.0784 55.0724C60.7145 54.8359 60.4244 54.505 60.2405 54.1167L59.698 52.9793C59.6445 52.8693 59.6249 52.7465 59.6416 52.6258C59.6584 52.5051 59.7108 52.3918 59.7924 52.2998C59.8741 52.2077 59.9814 52.1409 60.1013 52.1075C60.2211 52.0742 60.3483 52.0757 60.4673 52.1118C62.0126 52.5616 65.3727 52.9343 70.5476 53.2299C71.6852 53.3006 72.8984 53.5416 74.1872 53.9528C77.304 54.9552 81.1112 55.8516 82.8669 56.1601C83.1366 56.209 83.3788 56.3526 83.5477 56.5638C83.7167 56.7751 83.8008 57.0395 83.7842 57.3071L83.725 58.3963C83.7163 58.5163 83.6783 58.6326 83.6141 58.7353C83.5499 58.838 83.4614 58.9241 83.3561 58.9864C83.2507 59.0488 83.1316 59.0855 83.0087 59.0935C82.8858 59.1015 82.7628 59.0806 82.6499 59.0324C81.44 58.5184 79.6777 58.2067 77.3631 58.0975C77.2742 58.0936 77.1855 58.107 77.1019 58.137C77.0184 58.167 76.9418 58.213 76.8767 58.2722C76.8115 58.3314 76.759 58.4027 76.7223 58.4819C76.6856 58.5611 76.6654 58.6467 76.6629 58.7336L76.6234 59.8421C76.6183 59.9839 76.5847 60.1233 76.5244 60.2523C76.4642 60.3814 76.3785 60.4976 76.2722 60.5943C76.1659 60.691 76.0412 60.7662 75.9051 60.8158C75.7691 60.8653 75.6244 60.8882 75.4793 60.883L74.3746 60.8445C74.3114 60.8445 74.2483 60.8205 74.1971 60.777C73.4475 60.1601 73.6907 59.0677 74.9269 57.4998C74.9709 57.4428 75.0021 57.3775 75.0186 57.3081C75.035 57.2387 75.0363 57.167 75.0222 57.0976C75.0082 57.0282 74.9793 56.9629 74.9374 56.9059C74.8954 56.849 74.8414 56.8017 74.779 56.7673C74.1214 56.4011 73.362 56.3336 72.5006 56.5649C72.3455 56.6073 72.1835 56.6172 72.0253 56.5939C71.8671 56.5707 71.7164 56.5148 71.5833 56.43C70.38 55.7039 69.489 55.8549 68.9103 56.883C68.8754 56.9434 68.8271 56.9954 68.7688 57.0351C68.7106 57.0747 68.6439 57.1011 68.5738 57.1122C68.5038 57.1234 68.432 57.1189 68.3639 57.0992C68.2958 57.0796 68.2331 57.0452 68.1804 56.9986Z" fill="black"/>
<path d="M69.4134 58.0686C69.9657 58.1071 70.4918 57.9722 70.9915 57.6637C71.0838 57.6049 71.1943 57.582 71.302 57.5994C71.4097 57.6167 71.5071 57.6731 71.5754 57.7578C71.6438 57.8425 71.6783 57.9495 71.6725 58.0584C71.6667 58.1673 71.6209 58.2704 71.5439 58.3481C70.8666 59.0164 70.1071 59.0613 69.2655 58.483C69.2261 58.4534 69.1973 58.4124 69.1832 58.3658C69.169 58.3193 69.1702 58.2695 69.1865 58.2237C69.2029 58.1778 69.2336 58.1382 69.2743 58.1103C69.315 58.0825 69.3637 58.0679 69.4134 58.0686Z" fill="black"/>
<path d="M131.595 63.5773L90.7628 57.4714C89.9443 57.349 89.1793 57.8981 89.054 58.698L89.0451 58.7551C88.9199 59.555 89.4818 60.3026 90.3003 60.425L131.132 66.5309C131.951 66.6533 132.716 66.1041 132.841 65.3043L132.85 65.2471C132.975 64.4473 132.413 63.6997 131.595 63.5773Z" fill="black"/>
<path d="M33.4617 58.4637C35.4147 58.4444 39.8169 58.393 46.6686 58.3095C47.4577 58.2999 48.2369 57.8179 48.6117 57.8276C48.6986 57.8275 48.7845 57.8462 48.8632 57.8823C48.9419 57.9183 49.0115 57.9709 49.067 58.0363C49.1226 58.1016 49.1627 58.1781 49.1846 58.2603C49.2065 58.3425 49.2096 58.4284 49.1936 58.5119L47.5465 67.8903C47.5291 67.9999 47.4828 68.1031 47.412 68.1898C47.3412 68.2766 47.2484 68.344 47.1423 68.3857C47.0363 68.4273 46.9208 68.4417 46.8067 68.4275C46.6927 68.4134 46.5839 68.3711 46.4911 68.3048L33.3138 58.9167C33.2703 58.8857 33.2379 58.8421 33.2212 58.7921C33.2045 58.7421 33.2043 58.6882 33.2206 58.6381C33.237 58.588 33.2691 58.5442 33.3124 58.5129C33.3556 58.4816 33.4079 58.4644 33.4617 58.4637Z" fill="white"/>
<path d="M81.486 68.1217C81.4674 68.2021 81.4327 68.2782 81.3839 68.3455C81.3352 68.4128 81.2733 68.4701 81.2018 68.514C81.1303 68.5578 81.0506 68.5875 80.9674 68.6012C80.8842 68.615 80.799 68.6125 80.7167 68.5939L66.918 65.4806C65.8558 65.2411 64.8116 64.9716 63.8454 64.6876C62.8792 64.4037 62.01 64.1109 61.2878 63.8261C60.5656 63.5413 60.0046 63.2701 59.637 63.028C59.2694 62.7859 59.1024 62.5778 59.1457 62.4156L59.2049 62.1553C59.2428 61.9924 59.489 61.8781 59.9294 61.8189C60.3698 61.7598 60.9957 61.757 61.7715 61.8107C62.5472 61.8644 63.4577 61.9735 64.4507 62.1319C65.4438 62.2903 66.5 62.4948 67.5591 62.7336L81.3677 65.8469C81.5322 65.8858 81.6743 65.9867 81.763 66.1275C81.8516 66.2683 81.8798 66.4377 81.8412 66.5987L81.486 68.1217Z" fill="black"/>
<path d="M146.436 70.3C146.492 70.2284 146.572 70.1783 146.662 70.1586C146.753 70.1388 146.847 70.1505 146.929 70.1919C147.011 70.2332 147.076 70.3013 147.112 70.3845C147.148 70.4677 147.153 70.5606 147.126 70.647C142.629 83.5564 139.518 96.5236 137.795 109.549C137.784 109.63 137.742 109.703 137.678 109.757C137.615 109.81 137.534 109.839 137.45 109.838C123.596 109.761 109.636 109.26 95.5708 108.334C88.3903 107.865 79.1024 107.83 67.707 108.228C54.3916 108.697 39.9024 109.092 24.2395 109.414C24.1013 109.416 23.9642 109.388 23.8383 109.333C23.7125 109.277 23.601 109.195 23.5121 109.092C23.4232 108.99 23.3592 108.869 23.3246 108.74C23.29 108.61 23.2859 108.475 23.3124 108.344C24.0817 104.495 24.5321 101.69 24.6636 99.9293C25.525 88.2537 26.6067 75.7138 27.9087 62.3096C27.9186 62.2159 27.9534 62.1263 28.0097 62.0498C28.066 61.9733 28.1418 61.9126 28.2296 61.8736C28.3173 61.8346 28.414 61.8188 28.51 61.8276C28.606 61.8365 28.6979 61.8697 28.7767 61.924C37.075 67.6687 45.4653 73.2013 53.9477 78.5218C63.9885 84.8159 76.9193 91.5533 86.536 96.6618C88.0616 97.4714 89.6364 97.465 91.2605 96.6425C91.3447 96.6004 91.4388 96.5806 91.5332 96.585C91.6277 96.5894 91.7193 96.6178 91.7991 96.6675C91.8788 96.7172 91.9439 96.7864 91.9879 96.8682C92.0318 96.9501 92.0531 97.0417 92.0496 97.1341C92.0233 97.7767 92.0956 98.2971 92.2666 98.6955C92.3932 99.0108 92.6414 99.2638 92.957 99.3992C95.6398 100.565 98.727 100.941 101.193 101.809C107.334 103.961 113.93 105.465 120.979 106.32C121.945 106.442 123.865 106.506 126.739 106.513C126.885 106.513 127.026 106.455 127.129 106.352C127.233 106.249 127.291 106.109 127.291 105.963V105.684C127.291 105.594 127.259 105.507 127.201 105.438C127.144 105.37 127.064 105.323 126.975 105.308C120.071 104.151 114.521 102.911 110.326 101.587C104.796 99.8457 99.664 98.4417 94.9296 97.375C94.1932 97.2144 93.6771 96.9124 93.3812 96.469C93.3509 96.4247 93.3309 96.3744 93.3225 96.3216C93.3141 96.2688 93.3175 96.2146 93.3324 96.1627C93.3473 96.1107 93.3735 96.0622 93.4091 96.0203C93.4447 95.9784 93.489 95.944 93.539 95.9196L144.256 72.8157C144.56 72.6764 144.825 72.4644 145.025 72.1988L146.436 70.3ZM80.835 100.276C80.9 100.189 80.9373 100.085 80.9422 99.9773C80.9471 99.8695 80.9195 99.7627 80.8627 99.6702C80.8059 99.5777 80.7225 99.5036 80.6228 99.4571C80.5232 99.4106 80.4118 99.3938 80.3024 99.4088C77.7774 99.7815 75.1637 99.2386 72.4611 97.7799C68.0292 95.3895 65.639 94.0626 65.2905 93.7991C56.3741 87.0007 47.3755 81.1532 38.2947 76.2567C38.2153 76.2151 38.1279 76.1904 38.038 76.184C37.9482 76.1777 37.8579 76.1899 37.7732 76.2199C37.6886 76.2499 37.6113 76.2971 37.5465 76.3582C37.4817 76.4194 37.4308 76.4932 37.3972 76.5748C37.1933 77.076 37.2328 77.4102 37.5155 77.5772C40.1326 79.1451 42.3288 80.7933 44.1042 82.5219C44.4979 82.9002 44.9237 83.2422 45.3765 83.5436C49.1903 86.0882 55.3845 90.3388 63.959 96.2955C68.0522 99.1389 73.1121 101.973 78.7144 101.982C78.9775 101.982 79.2371 101.921 79.472 101.804C79.7068 101.687 79.9103 101.517 80.0657 101.308L80.835 100.276Z" fill="white"/>
<path d="M146.978 64.9024C147.629 64.7289 148.172 64.9795 148.606 65.6542C148.69 65.7859 148.718 65.9451 148.683 66.0968C148.648 66.2486 148.553 66.3806 148.418 66.4638C148.234 66.5795 147.932 66.6919 147.511 66.8012C147.09 66.9168 146.771 66.9682 146.554 66.9554C146.475 66.9529 146.397 66.9352 146.325 66.9033C146.253 66.8715 146.188 66.826 146.134 66.7696C146.08 66.7132 146.038 66.647 146.01 66.5746C145.982 66.5023 145.97 66.4254 145.972 66.3482C145.998 65.5514 146.334 65.0694 146.978 64.9024Z" fill="white"/>
<path d="M105.158 68.1506C113.331 69.2944 117.878 69.9048 118.799 69.9819C119.489 70.0398 120.068 70.2068 120.535 70.4832C120.699 70.5809 120.831 70.724 120.913 70.8943C120.996 71.0646 121.025 71.2545 120.998 71.4401C120.97 71.6256 120.887 71.7986 120.759 71.937C120.631 72.0755 120.464 72.1733 120.278 72.2181C118.865 72.5715 116.629 72.5747 113.571 72.2278C110.678 71.9 107.729 71.5273 104.724 71.1096C101.719 70.6855 98.7797 70.2325 95.9062 69.7506C92.8749 69.243 90.7312 68.6261 89.4753 67.9C89.3103 67.8056 89.1781 67.6655 89.0955 67.4973C89.0128 67.3291 88.9833 67.1404 89.0107 66.9548C89.0381 66.7693 89.1213 66.5952 89.2496 66.4547C89.3779 66.3141 89.5457 66.2133 89.7318 66.165C90.2578 66.0301 90.8594 66.0301 91.5367 66.165C92.4441 66.3449 96.9845 67.0068 105.158 68.1506Z" fill="black"/>
<path d="M80.8351 100.276L80.0658 101.308C79.9103 101.517 79.7068 101.687 79.472 101.804C79.2372 101.921 78.9775 101.982 78.7144 101.982C73.1121 101.973 68.0523 99.1389 63.959 96.2955C55.3845 90.3388 49.1904 86.0881 45.3766 83.5435C44.9237 83.2421 44.4979 82.9002 44.1042 82.5218C42.3288 80.7933 40.1326 79.1451 37.5155 77.5772C37.2328 77.4101 37.1934 77.076 37.3972 76.5748C37.4309 76.4931 37.4817 76.4193 37.5466 76.3582C37.6114 76.297 37.6886 76.2499 37.7733 76.2199C37.858 76.1898 37.9482 76.1776 38.038 76.184C38.1279 76.1903 38.2153 76.2151 38.2947 76.2567C47.3755 81.1531 56.3741 87.0006 65.2905 93.7991C65.639 94.0625 68.0292 95.3895 72.4611 97.7799C75.1637 99.2385 77.7775 99.7815 80.3025 99.4088C80.4118 99.3938 80.5232 99.4105 80.6229 99.457C80.7225 99.5035 80.8059 99.5777 80.8627 99.6702C80.9195 99.7627 80.9471 99.8695 80.9422 99.9773C80.9373 100.085 80.9001 100.189 80.8351 100.276Z" fill="black"/>
</svg>
