<svg width="186" height="144" viewBox="0 0 186 144" fill="none" xmlns="http://www.w3.org/2000/svg">
<path d="M117.11 63.8419L120.542 58.3383C121.054 57.5225 121.217 56.5427 120.996 55.6105C120.503 53.5671 118.51 52.0057 117.889 49.9719C115.354 41.6152 119.822 31.1861 126.786 26.28C131 23.3049 135.534 21.5025 140.387 20.8727C144.26 20.3715 147.837 20.7828 151.118 22.1065C154.623 23.5202 157.694 25.4511 160.331 27.8993C160.784 28.317 162.063 29.8913 164.167 32.6223C167.718 37.2296 168.843 42.6947 167.541 48.4201C167.172 50.0586 166.403 52.1181 165.233 54.5984C161.11 63.3889 153.979 64.5938 145.2 66.0492C139.743 66.9488 134.841 66.0267 130.494 63.2829C130.36 63.1982 130.205 63.15 130.046 63.1432C129.886 63.1364 129.728 63.1713 129.587 63.2443C125.474 65.4227 122.673 67.3986 118.323 66.5408C118.032 66.4834 117.759 66.3585 117.528 66.1767C117.297 65.9949 117.114 65.7616 116.995 65.4967C116.875 65.2317 116.824 64.9429 116.844 64.6548C116.864 64.3668 116.955 64.0879 117.11 63.8419ZM122.061 63.0998C125.198 62.5664 127.723 61.4419 129.636 59.7262C129.745 59.6291 129.882 59.5683 130.028 59.5527C130.173 59.5371 130.319 59.5675 130.445 59.6395C137.901 63.948 147.735 62.7046 154.945 59.4274C158.427 57.8371 160.479 54.425 162.205 51.0225C167.856 39.8802 159.394 29.962 149.244 25.9716C139.549 22.1547 129.735 27.5716 123.984 35.5332C121.052 39.575 120.102 44.1084 121.134 49.1333C121.14 49.1843 121.157 49.2334 121.183 49.2779L123.876 54.7527C123.986 54.9747 124.04 55.2193 124.034 55.4659C123.994 57.233 123.741 58.5374 123.274 59.3792C122.17 61.3648 121.597 62.4251 121.558 62.56C121.539 62.6302 121.538 62.704 121.555 62.7746C121.573 62.8453 121.609 62.9105 121.659 62.9642C121.709 63.0179 121.772 63.0585 121.842 63.0822C121.912 63.1059 121.988 63.1119 122.061 63.0998Z" fill="black"/>
<path d="M53.5704 59.3118C52.5249 60.0251 51.6175 61.7504 50.2169 62.4251C40.0182 67.3022 30.4114 67.0934 21.3964 61.7986C18.9568 60.3656 16.879 58.1455 15.1628 55.1382C11.8191 49.2779 12.8942 41.8465 16.5535 36.2272C21.4358 28.7476 29.8097 24.9596 38.7755 24.0246C42.918 23.5941 46.7483 23.9668 50.2662 25.1427C57.2954 27.501 61.7372 32.2496 63.5915 39.3886C64.8145 44.0634 64.1241 47.2538 62.1021 51.437C61.9549 51.7411 61.9008 52.0803 61.9463 52.4138C61.9918 52.7472 62.1349 53.0608 62.3586 53.3165L66.1263 57.6539C66.3177 57.8724 66.4483 58.1351 66.5057 58.4171C66.5632 58.6992 66.5457 58.9912 66.4547 59.2654C66.3638 59.5396 66.2026 59.787 65.9863 59.9841C65.77 60.1811 65.5059 60.3213 65.2189 60.3913C61.2539 61.3552 57.7623 60.9793 54.7441 59.2636C54.5636 59.1629 54.3578 59.114 54.1502 59.1226C53.9426 59.1311 53.7416 59.1967 53.5704 59.3118ZM61.2144 56.9985L58.8571 52.9985C58.7729 52.8537 58.7269 52.6913 58.7235 52.5263C58.7201 52.3612 58.7592 52.1987 58.8374 52.0539C60.6522 48.6932 61.1816 45.4674 60.4254 42.3766C58.6566 35.0898 54.2543 30.4536 47.2185 28.468C40.3832 26.5403 33.7748 28.7187 27.2157 31.8416C24.8288 32.9725 23.0106 34.4119 21.7613 36.1597C18.684 40.4585 15.8631 45.6345 17.7963 50.9358C22.8265 64.7673 42.563 63.2058 52.2586 56.372C52.4452 56.241 52.6569 56.1487 52.8808 56.1006C53.1047 56.0526 53.336 56.0498 53.5605 56.0925L60.8298 57.5383C60.8986 57.5521 60.9697 57.5459 61.0348 57.5203C61.0998 57.4947 61.1559 57.4508 61.1965 57.3939C61.237 57.337 61.2603 57.2695 61.2635 57.1994C61.2666 57.1293 61.2496 57.0595 61.2144 56.9985Z" fill="black"/>
<path d="M121.558 62.56C121.597 62.4251 122.17 61.3648 123.274 59.3792C123.741 58.5375 123.994 57.233 124.034 55.4659C124.04 55.2193 123.986 54.9747 123.876 54.7527L121.183 49.2779C121.157 49.2334 121.14 49.1843 121.134 49.1334C120.102 44.1084 121.052 39.575 123.984 35.5332C129.735 27.5716 139.549 22.1547 149.244 25.9716C159.394 29.962 167.856 39.8802 162.205 51.0225C160.479 54.425 158.427 57.8371 154.945 59.4275C147.735 62.7046 137.901 63.948 130.445 59.6395C130.319 59.5675 130.173 59.5371 130.028 59.5527C129.882 59.5683 129.745 59.6292 129.636 59.7263C127.723 61.4419 125.198 62.5664 122.061 63.0998C121.988 63.1119 121.912 63.1059 121.842 63.0822C121.772 63.0585 121.709 63.018 121.659 62.9642C121.609 62.9105 121.573 62.8453 121.555 62.7747C121.538 62.704 121.539 62.6302 121.558 62.56ZM144.875 45.6827C148.574 44.3526 151.582 41.7694 151.858 37.5862C152.154 33.2681 146.69 30.7524 143.011 30.7813C138.493 30.8199 134.045 32.9886 133.739 37.673C133.601 39.8224 135.87 40.4585 137.586 39.9284C137.751 39.8776 137.896 39.7793 138.002 39.6466C138.108 39.5139 138.169 39.3533 138.178 39.1862C138.23 38.2545 138.247 37.5766 138.227 37.1525C138.196 36.5405 138.407 35.9372 138.82 35.4573C139.233 34.9774 139.819 34.6545 140.466 34.55C143.418 34.0745 145.467 35.1187 146.611 37.6826C146.745 37.9799 146.777 38.312 146.702 38.6296C146.628 38.9473 146.45 39.2337 146.196 39.4465L140.16 44.4682C139.956 44.636 139.82 44.8719 139.775 45.1333C139.624 46.0329 139.578 46.9454 139.637 47.8707C139.671 48.356 139.887 48.8125 140.245 49.1536C140.603 49.4947 141.079 49.6967 141.58 49.7213C143.093 49.7856 143.839 48.9406 143.819 47.1863C143.813 46.8596 143.912 46.5391 144.101 46.2696C144.29 46.0001 144.561 45.7949 144.875 45.6827ZM143.366 53.3936C143.366 52.7622 143.109 52.1567 142.652 51.7102C142.195 51.2637 141.576 51.0129 140.929 51.0129C140.283 51.0129 139.664 51.2637 139.207 51.7102C138.75 52.1567 138.493 52.7622 138.493 53.3936C138.493 54.025 138.75 54.6306 139.207 55.0771C139.664 55.5236 140.283 55.7744 140.929 55.7744C141.576 55.7744 142.195 55.5236 142.652 55.0771C143.109 54.6306 143.366 54.025 143.366 53.3936Z" fill="white"/>
<path d="M60.8298 57.5383L53.5606 56.0925C53.336 56.0498 53.1047 56.0526 52.8808 56.1006C52.6569 56.1487 52.4452 56.241 52.2586 56.372C42.563 63.2058 22.8266 64.7673 17.7963 50.9358C15.8631 45.6345 18.684 40.4585 21.7613 36.1597C23.0107 34.4119 24.8288 32.9725 27.2157 31.8416C33.7748 28.7186 40.3832 26.5403 47.2185 28.468C54.2543 30.4536 58.6566 35.0898 60.4254 42.3766C61.1816 45.4674 60.6523 48.6932 58.8374 52.0539C58.7593 52.1987 58.7201 52.3612 58.7235 52.5262C58.727 52.6913 58.7729 52.8537 58.8571 52.9984L61.2144 56.9985C61.2496 57.0595 61.2667 57.1293 61.2635 57.1994C61.2603 57.2695 61.237 57.337 61.1965 57.3939C61.1559 57.4508 61.0998 57.4947 61.0348 57.5203C60.9698 57.5459 60.8986 57.5521 60.8298 57.5383ZM45.8179 44.1212C47.2908 44.269 48.1588 43.5301 48.4218 41.9044C48.4357 41.8208 48.4316 41.7354 48.4098 41.6535C48.388 41.5716 48.3489 41.4951 48.295 41.4289C48.2411 41.3626 48.1737 41.3081 48.097 41.2688C48.0204 41.2295 47.9361 41.2063 47.8497 41.2007L45.9954 41.0658C45.629 41.026 45.2916 40.8523 45.0509 40.5794C44.8102 40.3066 44.684 39.9548 44.6977 39.5948C44.7115 39.2348 44.8641 38.8932 45.1249 38.6386C45.3858 38.384 45.7355 38.2354 46.1039 38.2224H48.0371C48.3746 38.2224 48.6982 38.0914 48.9368 37.8582C49.1754 37.625 49.3095 37.3087 49.3095 36.979V36.5067C49.3095 36.2357 49.1993 35.9758 49.0032 35.7842C48.8072 35.5926 48.5413 35.485 48.264 35.485H34.4652C34.2429 35.485 34.0296 35.5713 33.8724 35.725C33.7152 35.8786 33.6269 36.087 33.6269 36.3043V36.7573C33.6268 36.9099 33.6579 37.0611 33.7184 37.2016C33.7789 37.3422 33.8674 37.4693 33.9788 37.5755C34.0902 37.6816 34.2221 37.7646 34.3666 37.8194C34.5112 37.8743 34.6655 37.8998 34.8203 37.8947C36.405 37.8497 37.8319 37.9493 39.101 38.1935C39.7257 38.3091 40.1794 38.5661 40.4621 38.9645C40.5536 39.0901 40.6093 39.2372 40.6233 39.3907C40.6373 39.5442 40.6093 39.6986 40.5419 39.838C40.4746 39.9774 40.3706 40.0968 40.2404 40.1838C40.1102 40.2709 39.9586 40.3225 39.8013 40.3332C35.9217 40.6224 33.8866 40.767 33.6959 40.767C33.3469 40.789 33.0145 40.9223 32.7493 41.1467C32.4841 41.3711 32.3005 41.6743 32.2263 42.0104L32.0882 42.5019C32.052 42.6387 32.0484 42.7818 32.0776 42.9201C32.1068 43.0585 32.168 43.1884 32.2566 43.3001C32.3451 43.4117 32.4587 43.5021 32.5885 43.5642C32.7183 43.6264 32.8609 43.6586 33.0055 43.6586H37.7004C37.8356 43.6579 37.9688 43.69 38.0883 43.7519C38.2077 43.8138 38.3095 43.9037 38.3847 44.0135C38.46 44.1233 38.5062 44.2495 38.5193 44.381C38.5324 44.5125 38.512 44.6451 38.4599 44.767L37.9667 45.9333C37.8705 46.1607 37.6889 46.3438 37.4583 46.4458C37.2277 46.5477 36.9653 46.5609 36.7239 46.4827C36.0664 46.2707 35.3464 46.2964 34.5639 46.5598C34.3646 46.6279 34.1846 46.7409 34.0386 46.8897C33.8926 47.0384 33.7848 47.2186 33.7241 47.4154C33.6634 47.6121 33.6515 47.8199 33.6895 48.0214C33.7275 48.2229 33.8142 48.4124 33.9425 48.5743C35.7244 50.8426 37.6675 52.327 39.7717 53.0274C41.6556 53.6539 43.1647 54.8684 44.9302 55.7744C45.108 55.8659 45.3033 55.9203 45.5037 55.9342C45.7042 55.9481 45.9054 55.9211 46.0946 55.8549C46.2838 55.7887 46.4568 55.6849 46.6027 55.5499C46.7487 55.4149 46.8643 55.2517 46.9423 55.0708L47.1001 54.6852C47.1809 54.4967 47.2228 54.2944 47.2234 54.09C47.224 53.8856 47.1833 53.6831 47.1035 53.4941C47.0238 53.3051 46.9066 53.1334 46.7588 52.9888C46.6109 52.8442 46.4353 52.7295 46.242 52.6515L42.4249 51.0996C42.3009 51.0489 42.1934 50.9661 42.114 50.8602C42.0345 50.7542 41.9861 50.6291 41.9739 50.4983C41.9618 50.3675 41.9863 50.2359 42.0449 50.1177C42.1035 49.9995 42.194 49.8991 42.3065 49.8273C43.8978 48.8313 44.7658 47.1799 44.9104 44.8731C44.9164 44.7652 44.9449 44.6597 44.9943 44.5629C45.0436 44.4661 45.1128 44.38 45.1976 44.3098C45.2824 44.2395 45.381 44.1866 45.4876 44.1542C45.5942 44.1218 45.7066 44.1106 45.8179 44.1212Z" fill="white"/>
<path d="M144.875 45.6827C144.561 45.7949 144.29 46.0001 144.101 46.2696C143.912 46.5391 143.813 46.8596 143.819 47.1863C143.839 48.9406 143.093 49.7856 141.58 49.7213C141.079 49.6967 140.603 49.4947 140.245 49.1536C139.887 48.8125 139.671 48.356 139.637 47.8707C139.578 46.9453 139.624 46.0329 139.775 45.1333C139.82 44.8719 139.956 44.636 140.16 44.4682L146.196 39.4465C146.45 39.2337 146.628 38.9473 146.702 38.6296C146.777 38.312 146.745 37.9799 146.611 37.6826C145.467 35.1187 143.418 34.0745 140.466 34.55C139.819 34.6545 139.233 34.9774 138.82 35.4573C138.407 35.9372 138.196 36.5405 138.227 37.1525C138.247 37.5766 138.23 38.2545 138.178 39.1862C138.169 39.3533 138.108 39.5139 138.002 39.6466C137.896 39.7793 137.751 39.8776 137.586 39.9284C135.87 40.4585 133.601 39.8224 133.739 37.673C134.045 32.9886 138.493 30.8199 143.011 30.7813C146.69 30.7524 152.154 33.2681 151.858 37.5862C151.582 41.7694 148.574 44.3526 144.875 45.6827Z" fill="black"/>
<path d="M80.073 63.6685C79.1196 64.009 78.0281 63.3504 76.7984 61.6925C75.3091 59.6877 74.7469 57.3262 76.4137 55.7358C76.5781 55.5816 76.6768 55.4531 76.7097 55.3503C76.7627 55.1638 76.7496 54.9656 76.6724 54.7885C76.5953 54.6114 76.4588 54.4661 76.2856 54.3768L75.4768 53.9623C75.3018 53.8725 75.1504 53.745 75.0341 53.5896C74.9178 53.4342 74.8398 53.255 74.8061 53.0659C73.8888 48.343 73.366 46.5598 75.1315 42.6562C76.3612 39.9316 78.4127 38.3252 81.2862 37.8368C81.4917 37.8032 81.682 37.7087 81.8318 37.5658C81.9816 37.4229 82.0837 37.2384 82.1246 37.0368C82.6769 34.2994 84.4425 32.5966 87.4212 31.9283C87.5465 31.8978 87.6764 31.8914 87.8033 31.9096C87.9303 31.9278 88.0518 31.9702 88.1609 32.0343L89.6207 32.8536C89.7631 32.9336 89.9232 32.9782 90.0867 32.9832C90.2501 32.9882 90.412 32.9537 90.5577 32.8825L93.9014 31.3114C93.9734 31.2794 94.0497 31.2567 94.1282 31.244C96.6466 30.8006 98.7278 31.0609 100.372 32.0247C101.726 32.8151 102.729 33.2681 103.38 33.3837C104.8 33.6472 105.8 33.9846 106.378 34.3958C109.653 36.6802 113.628 42.8007 111.014 46.6466C110.933 46.7609 110.883 46.8948 110.871 47.0351C110.859 47.1754 110.885 47.3172 110.945 47.4466L111.221 48.0153C111.319 48.2179 111.364 48.4411 111.354 48.666C111.343 48.8908 111.278 49.1107 111.162 49.3069L107.887 54.8491C107.853 54.9099 107.843 54.981 107.859 55.0475C107.876 55.1139 107.918 55.1706 107.976 55.2057C110.491 56.6901 110.669 60.401 108.667 62.2612C107.049 63.7552 105.293 67.5432 104.889 68.4107C104.734 68.7018 104.51 68.95 104.238 69.1336L102.295 70.4734C102.085 70.6184 101.922 70.82 101.826 71.0537C101.73 71.2873 101.706 71.5431 101.756 71.7899C101.806 72.0368 101.929 72.2642 102.108 72.4445C102.288 72.6248 102.517 72.7504 102.768 72.8059C103.913 73.0565 104.948 74.5313 106.339 75.0036C112.513 77.1241 116.791 78.6695 119.171 79.6398C121.63 80.6422 123.1 82.6181 123.58 85.5675C123.671 86.1153 123.869 86.6419 124.162 87.1194L132.763 100.941C132.822 101.037 132.871 101.137 132.911 101.24L133.167 102.03C133.244 102.406 133.441 102.75 133.729 103.014C137.783 106.686 141.62 109.047 140.15 115.428C139.756 117.137 139.279 118.519 138.72 119.573C138.69 119.63 138.676 119.694 138.678 119.759C138.68 119.823 138.699 119.886 138.732 119.942C138.765 119.997 138.812 120.044 138.869 120.077C138.925 120.11 138.99 120.129 139.055 120.132C142.297 120.228 145.102 120.267 147.469 120.247C150.24 120.228 151.079 120.566 153.446 120.922C153.544 120.935 153.64 120.941 153.732 120.941L179.1 121.154C179.227 121.153 179.35 121.2 179.443 121.284C179.536 121.368 179.593 121.483 179.603 121.607C179.689 122.577 179.534 123.303 179.14 123.785C179.033 123.916 178.896 124.02 178.74 124.089C178.584 124.158 178.413 124.189 178.242 124.18C172.857 123.923 168.606 123.945 165.489 124.247C160.538 124.729 155.793 124.209 151.345 124.305C151.01 124.312 150.405 124.106 149.53 123.688C148.948 123.411 148.3 123.284 147.646 123.322C146.272 123.393 143.165 123.364 138.326 123.235C137.181 123.203 134.831 123.782 131.273 124.97C131.243 124.981 131.216 124.999 131.194 125.021C131.172 125.044 131.156 125.071 131.147 125.101C131.138 125.13 131.137 125.161 131.143 125.19C131.15 125.22 131.164 125.247 131.185 125.269L139.884 135.265C139.936 135.328 140.004 135.378 140.081 135.409C140.305 135.512 140.433 135.592 140.466 135.65C140.617 135.949 140.692 136.279 140.687 136.612C140.682 136.945 140.595 137.271 140.435 137.565C140.275 137.858 140.046 138.109 139.766 138.297C139.487 138.486 139.165 138.606 138.829 138.648C135.81 139.02 133.246 139.265 131.135 139.38C103.426 140.916 77.2883 141.067 52.7222 139.833C51.578 139.775 50.0295 139.573 48.0766 139.226C47.7701 139.172 47.4833 139.041 47.2447 138.846C47.006 138.651 46.8238 138.398 46.7162 138.112C46.6085 137.827 46.5791 137.519 46.6309 137.219C46.6826 136.919 46.8138 136.637 47.0113 136.402C49.1286 133.883 50.7232 131.502 51.795 129.26C52.0514 128.72 53.0608 127.849 54.823 126.648C54.8858 126.605 54.9311 126.542 54.9509 126.469C54.9708 126.397 54.9639 126.32 54.9315 126.252L54.7836 125.944C54.7638 125.903 54.7349 125.866 54.6989 125.837C54.6628 125.807 54.6204 125.786 54.5745 125.774C54.5287 125.762 54.4805 125.76 54.4331 125.768C54.3858 125.775 54.3405 125.793 54.3003 125.819C51.509 127.669 50.0196 127.563 45.522 128.19C44.5143 128.329 43.4861 128.202 42.5432 127.823L30.875 123.091C30.7124 123.021 30.5343 122.985 30.3522 122.985L1.96572 122.58C1.71686 122.577 1.47376 122.505 1.26438 122.372C1.055 122.239 0.887826 122.05 0.782113 121.828L0.49607 121.221C0.421552 121.064 0.388734 120.891 0.400591 120.718C0.412449 120.545 0.468598 120.378 0.563916 120.232C0.659234 120.086 0.790633 119.966 0.945979 119.883C1.10133 119.8 1.27562 119.756 1.45281 119.756H28.2908C28.3625 119.755 28.4331 119.739 28.4972 119.708C28.5612 119.676 28.617 119.632 28.66 119.576C28.703 119.521 28.7321 119.458 28.7451 119.39C28.758 119.322 28.7545 119.253 28.7346 119.187C28.2415 117.439 28.1856 115.149 28.567 112.315C29.1193 108.189 33.4 103.968 36.6253 101.182C43.3455 95.3861 50.0328 89.3941 56.6872 83.2061C57.8511 82.1265 58.7914 81.0759 59.5081 80.0542C60.1416 79.1535 61.0558 78.4801 62.112 78.1361C67.7998 76.2919 73.7178 74.7433 79.8659 73.4903C82.1082 73.034 83.4528 71.8164 83.9 69.8372C83.9414 69.6546 83.9169 69.4637 83.8306 69.2967C83.7443 69.1298 83.6015 68.9973 83.4266 68.9216C81.375 68.0027 80.4643 66.4091 80.6944 64.1408C80.7026 64.0642 80.6908 63.9868 80.6599 63.916C80.629 63.8452 80.5802 63.7832 80.518 63.7359C80.4558 63.6887 80.3823 63.6577 80.3045 63.6459C80.2266 63.6341 80.147 63.6418 80.073 63.6685ZM78.85 58.9166C78.6001 58.4475 78.2944 58.1198 77.9327 57.9334C77.7965 57.8633 77.6396 57.8419 77.489 57.8727C77.3384 57.9036 77.2035 57.9849 77.1076 58.1025C77.0117 58.2202 76.9609 58.3669 76.9639 58.5173C76.9669 58.6676 77.0235 58.8123 77.1239 58.9262C78.199 60.1407 80.0829 62.56 81.8583 61.6636C81.9472 61.6187 82.0468 61.5978 82.1468 61.6031C82.2468 61.6084 82.3435 61.6397 82.4269 61.6937C82.5104 61.7478 82.5776 61.8226 82.6215 61.9105C82.6655 61.9984 82.6846 62.0962 82.6769 62.1938C82.4698 65.4709 84.3438 67.5625 87.4606 68.8444C92.8657 71.0806 97.8565 70.2163 102.433 66.2516C103.387 65.4227 104.034 63.7745 104.376 61.307C104.387 61.2317 104.416 61.1599 104.459 61.0968C104.502 61.0338 104.56 60.9812 104.626 60.9431C104.693 60.905 104.767 60.8824 104.843 60.877C104.92 60.8716 104.996 60.8835 105.067 60.9118L106.083 61.3263C106.252 61.3976 106.443 61.4035 106.617 61.3427C106.791 61.2818 106.935 61.1589 107.02 60.9986C107.513 60.1054 107.894 59.2186 108.164 58.3383C108.218 58.1598 108.219 57.9698 108.166 57.7909C108.113 57.612 108.009 57.4517 107.866 57.3289C107.722 57.2061 107.546 57.1261 107.358 57.0983C107.169 57.0705 106.977 57.0961 106.803 57.172C106.454 57.3262 106.263 57.8274 106.23 58.6756C106.224 58.8114 106.172 58.9413 106.082 59.0445C105.991 59.1477 105.868 59.2183 105.732 59.245C105.595 59.2716 105.454 59.2528 105.329 59.1915C105.205 59.1302 105.106 59.03 105.047 58.907C104.817 58.425 104.718 57.9206 104.751 57.3937C104.988 53.9559 104.919 51.5848 104.544 50.2803C104.282 49.3682 103.769 48.544 103.061 47.8981C102.353 47.2521 101.477 46.8091 100.529 46.6177L96.8012 45.8562C96.4604 45.7921 96.1096 45.7663 95.7557 45.7791C94.0066 45.8562 92.4942 45.6988 91.2185 45.3068C91.0659 45.2611 90.9058 45.246 90.7481 45.2626C90.5904 45.2791 90.4383 45.327 90.3013 45.4032C86.7899 47.3116 83.9592 48.7285 83.6337 52.5262C83.6283 52.5904 83.638 52.655 83.662 52.715C83.686 52.775 83.7236 52.8289 83.7721 52.8726C83.8206 52.9163 83.8786 52.9485 83.9418 52.967C84.005 52.9855 84.0717 52.9896 84.1367 52.9792C87.0858 52.5165 89.9856 51.6201 90.9818 52.6804C91.1126 52.8199 91.1959 52.996 91.2201 53.1841C91.2443 53.3721 91.208 53.5625 91.1166 53.7285C91.0251 53.8945 90.883 54.0278 90.7101 54.1095C90.5373 54.1912 90.3426 54.2173 90.1533 54.184C88.253 53.8434 86.014 53.9141 83.4364 54.3961C83.3073 54.4181 83.1898 54.4827 83.1036 54.5792C83.0175 54.6757 82.9678 54.7982 82.963 54.9262L82.8742 57.4901C82.8661 57.6868 82.792 57.8754 82.6633 58.0268C82.5346 58.1783 82.3585 58.2841 82.1621 58.328C81.9657 58.3718 81.76 58.3513 81.5767 58.2695C81.3935 58.1878 81.2429 58.0493 81.1481 57.8756C80.5037 56.6611 79.5371 56.2756 78.2483 56.719C77.959 56.8154 77.8209 56.9567 77.8341 57.1431C77.8359 57.1786 77.8458 57.2133 77.8629 57.2446C77.8801 57.276 77.9042 57.3032 77.9334 57.3244C77.9627 57.3456 77.9963 57.3602 78.032 57.3672C78.0677 57.3742 78.1045 57.3733 78.1398 57.3648C79.1262 57.1399 79.5799 57.6122 79.501 58.7817C79.4964 58.8553 79.4672 58.9255 79.4179 58.9814C79.3686 59.0373 79.3019 59.0759 79.228 59.0912C79.1541 59.1065 79.0772 59.0977 79.0089 59.0662C78.9406 59.0346 78.8848 58.9821 78.85 58.9166ZM86.6913 72.1794C86.5927 71.7039 86.4743 71.3987 86.3362 71.2637C86.2791 71.2095 86.2113 71.1673 86.1369 71.1398C86.0625 71.1122 85.983 71.0998 85.9035 71.1034C85.824 71.107 85.7461 71.1266 85.6747 71.1608C85.6032 71.195 85.5397 71.2432 85.488 71.3023C84.7976 72.0734 84.8337 72.7031 85.5965 73.1915C85.6162 73.2044 85.6332 73.2143 85.6458 73.2204L86.0896 73.4035C86.5218 73.5774 86.8729 73.9 87.076 74.3096C88.3385 76.8349 90.5906 78.4188 93.8323 79.0614C94.1773 79.1237 94.5324 79.0692 94.8384 78.9072C97.6659 77.4036 99.3064 74.9714 99.7601 71.6107C99.7693 71.5354 99.7572 71.4592 99.7251 71.3901C99.693 71.3211 99.6422 71.262 99.5781 71.2193C99.514 71.1766 99.4392 71.1518 99.3617 71.1478C99.2843 71.1437 99.2071 71.1605 99.1388 71.1963C95.6998 73.0212 92.2049 73.275 88.6541 71.9577C88.2267 71.8035 87.9472 71.7874 87.8157 71.9095C87.6513 72.0573 87.5001 72.2051 87.362 72.3529C87.3125 72.4048 87.2495 72.4427 87.1798 72.4625C87.1101 72.4824 87.0365 72.4834 86.9671 72.4655C86.8977 72.4475 86.8352 72.4113 86.7866 72.3608C86.7379 72.3104 86.7049 72.2476 86.6913 72.1794ZM84.7285 76.1987L86.06 85.8759C86.0797 85.9915 86.1061 86.1043 86.139 86.2133L89.167 95.7652C89.1861 95.8441 89.2335 95.9136 89.3007 95.961C89.3679 96.0085 89.4503 96.0307 89.5328 96.0237C89.6154 96.0167 89.6926 95.9808 89.7504 95.9228C89.8082 95.8647 89.8427 95.7883 89.8476 95.7074C90.2026 93.015 90.6399 90.4286 91.1594 87.9483C91.5342 86.1362 91.2777 85.1338 89.3445 84.8254C89.1647 84.7961 88.9803 84.8345 88.8284 84.9328C88.6764 85.0312 88.5683 85.1823 88.5259 85.3555C88.4141 85.8181 88.3516 86.0527 88.3385 86.0591C88.1766 86.155 87.9857 86.1931 87.7983 86.1669C87.6109 86.1407 87.4386 86.0519 87.3106 85.9155C87.1827 85.7792 87.1071 85.6037 87.0967 85.419C87.0863 85.2343 87.1417 85.0518 87.2535 84.9025C88.687 83.0262 90.1435 81.7635 91.6229 81.1145C91.7349 81.067 91.83 80.9883 91.8965 80.8884C91.963 80.7884 91.9979 80.6715 91.9968 80.5522C91.9958 80.433 91.9588 80.3167 91.8906 80.2178C91.8223 80.119 91.7258 80.042 91.6131 79.9964C89.2393 79.0325 87.865 78.4381 87.4902 78.2132C86.5927 77.6735 86.0304 76.1602 85.3795 75.7746C85.3091 75.7339 85.2285 75.7134 85.1467 75.7155C85.065 75.7177 84.9855 75.7423 84.9175 75.7866C84.8495 75.8309 84.7956 75.8931 84.7622 75.966C84.7288 76.039 84.7171 76.1196 84.7285 76.1987ZM97.3436 95.0423C97.3556 95.0934 97.3836 95.1396 97.4238 95.1743C97.464 95.209 97.5143 95.2305 97.5676 95.2358C97.621 95.2411 97.6747 95.23 97.7212 95.2039C97.7677 95.1779 97.8047 95.1382 97.827 95.0905C98.6555 93.1724 98.2609 88.6905 99.6418 85.6061C100.559 83.5723 99.9969 81.7506 100.352 79.6398C100.529 78.6309 100.664 77.5385 100.756 76.3626C100.768 76.2631 100.744 76.1627 100.688 76.0785C100.632 75.9944 100.549 75.9316 100.451 75.901C100.353 75.8703 100.248 75.8736 100.153 75.9103C100.057 75.947 99.9778 76.0149 99.9278 76.1023C98.8034 77.9915 97.4028 79.2863 95.7261 79.9867C95.6208 80.0304 95.5295 80.1007 95.4614 80.1905C95.3933 80.2803 95.3511 80.3862 95.339 80.4973C95.3269 80.6084 95.3455 80.7206 95.3927 80.8223C95.44 80.9241 95.5142 81.0116 95.6077 81.0759C97.9815 82.7016 98.9152 84.0736 98.4089 85.1916C98.3516 85.3212 98.2542 85.4299 98.1303 85.5026C98.0064 85.5752 97.8624 85.608 97.7184 85.5964L96.5546 85.5097C96.4113 85.4992 96.2674 85.5215 96.1344 85.5747C96.0014 85.6279 95.8829 85.7105 95.7882 85.8162C95.6935 85.9218 95.6252 86.0475 95.5888 86.1833C95.5523 86.3192 95.5487 86.4614 95.5781 86.5988L97.3436 95.0423ZM82.1049 127.313L75.0329 124.44C74.9769 124.418 74.9284 124.38 74.8931 124.332C74.8577 124.284 74.8367 124.227 74.8326 124.168C74.8285 124.109 74.8414 124.05 74.8698 123.997C74.8983 123.945 74.941 123.901 74.9934 123.872C76.0521 123.248 78.6494 124.042 82.7855 126.252C83.1852 126.465 83.6388 126.561 84.0919 126.528C84.545 126.496 84.9784 126.336 85.34 126.069L86.1784 125.443C86.413 125.268 86.5998 125.039 86.7222 124.776C86.8447 124.514 86.899 124.226 86.8805 123.938C86.862 123.651 86.7711 123.372 86.616 123.126C86.4608 122.881 86.2462 122.677 85.991 122.532L78.3864 118.243C78.2446 118.164 78.1316 118.044 78.0631 117.9C77.9947 117.756 77.9742 117.594 78.0047 117.437C78.0352 117.281 78.115 117.138 78.233 117.028C78.351 116.919 78.5013 116.848 78.6626 116.826C79.4779 116.71 80.3919 116.98 81.4046 117.635C84.9027 119.891 87.3686 121.321 88.802 121.925C89.0845 122.042 89.3982 122.068 89.6968 121.997C89.9953 121.927 90.2627 121.765 90.4596 121.535C90.6565 121.305 90.7723 121.019 90.79 120.719C90.8077 120.42 90.7262 120.122 90.5577 119.872C88.9894 117.539 88.447 116.508 86.4348 115.216C84.5279 113.989 82.6967 112.671 80.941 111.264C80.8376 111.182 80.7623 111.071 80.7253 110.947C80.6882 110.823 80.6912 110.692 80.7339 110.57C80.7404 110.557 80.7766 110.477 80.8424 110.329C80.9233 110.149 80.9531 109.95 80.9288 109.753C80.9046 109.557 80.8271 109.37 80.7043 109.211L70.8607 96.5846C70.823 96.5353 70.7755 96.4939 70.7211 96.4628C70.6667 96.4317 70.6065 96.4114 70.544 96.4034C70.4816 96.3953 70.4181 96.3995 70.3573 96.4157C70.2965 96.4319 70.2396 96.4598 70.19 96.4978L68.7401 97.5773C68.5952 97.6849 68.4973 97.8422 68.4662 98.0174C68.4351 98.1927 68.4731 98.3729 68.5725 98.5219C70.624 101.654 74.1551 107.11 77.8932 108.479C78.0446 108.537 78.1703 108.646 78.2487 108.785C78.3272 108.924 78.3535 109.086 78.3231 109.242C78.2928 109.399 78.2076 109.54 78.0824 109.641C77.9571 109.743 77.7996 109.799 77.6368 109.799C74.4806 109.716 71.9555 110.114 70.0618 110.994C65.6135 113.057 63.2167 112.247 58.9459 110.811C58.792 110.759 58.626 110.749 58.4659 110.783C58.3059 110.817 58.158 110.893 58.0385 111.004C55.0795 113.754 53.2975 116.877 52.6926 120.373C52.6636 120.54 52.6727 120.711 52.7191 120.875C52.7654 121.038 52.848 121.19 52.9609 121.318C53.0739 121.447 53.2144 121.55 53.3726 121.62C53.5307 121.69 53.7027 121.725 53.8762 121.722C55.9672 121.69 57.7623 122.236 59.2615 123.361C59.5049 123.543 59.7986 123.644 60.0999 123.65L61.8358 123.708C62.0815 123.72 62.3161 123.794 62.5164 123.92L68.8388 127.91C69.5396 128.348 70.332 128.625 71.1566 128.72C74.543 129.118 78.1596 128.961 82.0062 128.248C82.1119 128.227 82.208 128.174 82.2805 128.096C82.353 128.019 82.3981 127.92 82.4092 127.816C82.4202 127.711 82.3966 127.606 82.3418 127.515C82.2871 127.425 82.204 127.354 82.1049 127.313ZM108.73 100.015C108.49 100.034 108.285 100.35 108.159 100.893C108.033 101.436 107.996 102.162 108.058 102.911C108.12 103.66 108.274 104.371 108.487 104.888C108.701 105.404 108.955 105.683 109.195 105.665C109.435 105.646 109.641 105.33 109.767 104.787C109.893 104.244 109.929 103.518 109.867 102.769C109.805 102.02 109.651 101.309 109.438 100.792C109.224 100.276 108.97 99.9965 108.73 100.015ZM63.4041 100.614C63.2684 100.537 63.108 100.514 62.9569 100.55C62.8058 100.586 62.6761 100.678 62.5953 100.806C61.3065 102.785 59.7119 104.475 57.8116 105.876C57.7681 105.906 57.7337 105.947 57.7121 105.995C57.6905 106.043 57.6822 106.096 57.6882 106.148C57.6942 106.201 57.7142 106.251 57.7462 106.295C57.7782 106.339 57.8212 106.374 57.8708 106.397C60.6128 107.63 62.6052 110.243 66.5406 109.067C66.6713 109.028 66.7885 108.955 66.8788 108.855C66.9691 108.755 67.0289 108.633 67.0515 108.501C67.0741 108.37 67.0586 108.235 67.0066 108.112C66.9547 107.988 66.8684 107.882 66.7576 107.804L63.2561 105.308C63.1706 105.244 63.0681 105.205 62.9602 105.194C62.8522 105.184 62.743 105.203 62.6446 105.25C62.5197 105.314 62.4408 105.346 62.4079 105.346C62.3071 105.351 62.2069 105.33 62.1174 105.285C62.0279 105.239 61.9523 105.171 61.8983 105.087C61.8442 105.003 61.8136 104.906 61.8096 104.806C61.8055 104.706 61.8282 104.606 61.8753 104.517L63.7493 101.124C63.785 101.06 63.7937 100.985 63.7734 100.915C63.7531 100.845 63.7055 100.785 63.6408 100.748L63.4041 100.614ZM50.3451 106.705C48.0568 105.285 45.6042 104.736 42.9871 105.057C42.9357 105.064 42.8889 105.09 42.856 105.129C42.8232 105.168 42.8066 105.218 42.8096 105.269V105.279C42.812 105.326 42.8325 105.372 42.8671 105.405C42.9017 105.439 42.948 105.459 42.997 105.462C45.5088 105.584 47.9187 106.191 50.2267 107.283C50.2402 107.288 50.2546 107.289 50.2673 107.286C50.28 107.282 50.2901 107.274 50.2958 107.264L50.424 107.042C50.4578 106.987 50.4684 106.921 50.4537 106.858C50.439 106.796 50.4001 106.741 50.3451 106.705ZM46.8239 108.479C46.8717 108.467 46.9136 108.44 46.9433 108.402C46.9731 108.364 46.9892 108.317 46.9892 108.269C46.9892 108.22 46.9731 108.172 46.9433 108.132C46.9136 108.091 46.8717 108.061 46.8239 108.045C45.4956 107.627 44.4206 107.791 43.5986 108.536C43.5254 108.606 43.478 108.698 43.4638 108.797C43.4496 108.897 43.4693 108.997 43.52 109.084C43.5707 109.171 43.6495 109.24 43.744 109.278C43.8386 109.317 43.9435 109.324 44.0425 109.298L46.8239 108.479ZM106.95 108.247L103.094 112.402C103.082 112.414 103.072 112.429 103.066 112.445C103.06 112.461 103.057 112.478 103.058 112.495C103.059 112.512 103.064 112.529 103.071 112.545C103.079 112.56 103.09 112.574 103.104 112.585L103.193 112.662C103.276 112.736 103.409 112.755 103.583 112.718C103.758 112.682 103.97 112.59 104.208 112.449C104.446 112.307 104.706 112.119 104.971 111.894C105.237 111.669 105.504 111.413 105.757 111.139L105.925 110.956C106.433 110.406 106.855 109.819 107.097 109.324C107.339 108.83 107.382 108.467 107.217 108.315L107.128 108.238C107.103 108.217 107.07 108.206 107.037 108.208C107.004 108.209 106.973 108.224 106.95 108.247ZM125.898 123.332C126.411 123.075 126.871 122.876 127.279 122.734C127.89 122.516 128.295 122.252 128.492 121.944C131.254 117.664 128.758 112.903 124.645 110.088C124.51 109.994 124.353 109.941 124.191 109.934L121.528 109.847C121.439 109.839 121.349 109.862 121.276 109.913C121.203 109.964 121.15 110.039 121.129 110.124C121.107 110.21 121.118 110.3 121.159 110.378C121.199 110.456 121.268 110.518 121.351 110.551C124.415 111.997 126.167 113.828 126.608 116.045C127.226 119.104 127.532 120.655 127.525 120.7C127.51 121.064 127.392 121.416 127.182 121.716C126.973 122.016 126.682 122.252 126.342 122.397C125.868 122.59 125.586 122.754 125.493 122.888C125.456 122.945 125.439 123.012 125.445 123.079C125.45 123.146 125.478 123.21 125.524 123.26C125.57 123.31 125.631 123.344 125.698 123.357C125.766 123.37 125.836 123.361 125.898 123.332ZM56.0559 110.088C51.509 110.551 49.8815 113.78 48.6486 117.674C48.2212 119.049 48.2541 120.839 48.7473 123.043C49.1812 124.932 51.0849 125.423 52.4263 124.026C52.4827 123.969 52.5223 123.898 52.541 123.82C52.5598 123.743 52.5569 123.662 52.5327 123.586C52.5085 123.51 52.4638 123.442 52.4035 123.389C52.3431 123.336 52.2692 123.299 52.1895 123.284L51.8246 123.216C51.6028 123.173 51.4028 123.057 51.2576 122.889C51.1124 122.721 51.0306 122.51 51.0257 122.291C50.8942 117.594 52.6531 113.712 56.3025 110.647C56.3559 110.603 56.3933 110.544 56.4093 110.477C56.4253 110.411 56.419 110.341 56.3914 110.278C56.3637 110.216 56.3162 110.163 56.2558 110.129C56.1954 110.095 56.1253 110.081 56.0559 110.088ZM109.515 128.479C109.526 128.514 109.549 128.545 109.581 128.566C109.614 128.587 109.653 128.597 109.692 128.595C115.246 128.286 119.082 127.37 122.229 122.676C122.327 122.53 122.459 122.406 122.614 122.316C122.77 122.226 122.945 122.171 123.126 122.156C124.573 122.027 125.145 121.06 124.842 119.255C124.231 115.56 122.452 113.157 119.506 112.045C119.447 112.019 119.385 112 119.319 111.987L111.152 110.252C110.93 110.206 110.7 110.22 110.488 110.293C110.275 110.367 110.088 110.496 109.949 110.667C108.41 112.537 106.648 114.027 104.662 115.139C103.871 115.586 103.153 116.145 102.532 116.797C100.628 118.802 98.1623 120.681 98.399 122.648C98.4103 122.76 98.4584 122.867 98.536 122.951C98.6137 123.035 98.7169 123.093 98.8305 123.115C98.9442 123.138 99.0622 123.124 99.1674 123.076C99.2726 123.029 99.3593 122.949 99.4149 122.85C101.407 119.438 105.787 118.262 109.959 116.392C110.046 116.352 110.143 116.335 110.239 116.344C110.335 116.353 110.427 116.386 110.505 116.441C110.584 116.496 110.646 116.571 110.685 116.657C110.724 116.743 110.739 116.838 110.728 116.932L110.718 117.038C110.688 117.316 110.588 117.582 110.428 117.813C110.268 118.043 110.053 118.231 109.801 118.358C106.106 120.209 103.472 121.848 101.9 123.274C101.368 123.756 101.22 124.395 101.457 125.192C101.478 125.262 101.514 125.326 101.561 125.382C101.609 125.437 101.667 125.483 101.733 125.515C101.798 125.548 101.87 125.567 101.943 125.571C102.016 125.575 102.089 125.564 102.157 125.539L111.665 122.05C111.71 122.033 111.757 122.026 111.805 122.029C111.852 122.031 111.899 122.043 111.942 122.064C111.984 122.085 112.022 122.114 112.052 122.15C112.083 122.185 112.106 122.227 112.119 122.272L112.227 122.609C112.252 122.692 112.246 122.782 112.21 122.861C112.174 122.941 112.11 123.005 112.03 123.043L102.926 127.197C102.879 127.217 102.841 127.253 102.817 127.298C102.793 127.343 102.786 127.394 102.796 127.444C102.807 127.493 102.834 127.538 102.874 127.57C102.914 127.602 102.963 127.62 103.015 127.621C105.126 127.672 107.493 127.46 110.117 126.985C110.485 126.916 110.828 126.756 111.113 126.522L112.158 125.655C112.366 125.482 112.631 125.389 112.904 125.395C113.176 125.4 113.438 125.503 113.638 125.684L113.894 125.915C113.966 125.979 114.02 126.06 114.05 126.151C114.079 126.242 114.084 126.339 114.063 126.432C114.042 126.525 113.996 126.611 113.93 126.681C113.864 126.751 113.78 126.803 113.687 126.831L109.545 128.045C109.504 128.059 109.471 128.086 109.45 128.12C109.43 128.154 109.425 128.193 109.436 128.228L109.515 128.479ZM135.761 134.397C133.276 132.174 131.566 130.574 130.632 129.597C129.324 128.228 127.302 126.975 124.566 125.838C124.362 125.752 124.137 125.72 123.915 125.743C123.692 125.767 123.478 125.846 123.294 125.973L118.313 129.443C117.922 129.71 117.481 129.906 117.011 130.021C108.716 131.987 99.6418 132.084 95.2724 123.91C95.1814 123.747 95.0355 123.619 94.8594 123.547C94.6832 123.475 94.4875 123.465 94.3054 123.517C94.1233 123.569 93.966 123.681 93.8601 123.833C93.7541 123.986 93.706 124.169 93.7238 124.354L94.1874 129.115C94.2068 129.316 94.1579 129.517 94.0484 129.688C93.9388 129.859 93.7746 129.989 93.5813 130.059C93.388 130.13 93.1764 130.136 92.9792 130.077C92.7821 130.017 92.6104 129.896 92.4909 129.732L90.8931 127.534C90.7594 127.35 90.583 127.199 90.3782 127.093C90.1733 126.988 89.9457 126.931 89.7136 126.927C89.4814 126.923 89.2512 126.973 89.0415 127.072C88.8318 127.17 88.6485 127.316 88.5061 127.496C84.9751 132.016 74.1649 132.267 69.3911 131.207C66.8266 130.635 64.3148 129.359 61.8556 127.38C61.0402 126.725 60.021 126.468 58.7979 126.609C58.605 126.633 58.4209 126.699 58.26 126.803C58.0992 126.907 57.9659 127.045 57.8708 127.207L55.04 132.007C55.0078 132.061 54.9904 132.122 54.9896 132.185C54.9887 132.248 55.0044 132.31 55.0351 132.365C55.0658 132.42 55.1105 132.467 55.1649 132.5C55.2193 132.534 55.2816 132.553 55.3458 132.556C81.0758 133.77 106.388 133.536 131.283 131.852C131.446 131.842 131.61 131.875 131.756 131.948C131.902 132.021 132.023 132.132 132.108 132.266C132.192 132.4 132.235 132.554 132.232 132.709C132.23 132.864 132.181 133.015 132.092 133.144C131.836 133.504 131.29 133.684 130.455 133.684C123.166 133.684 115.798 134.416 108.686 134.677C95.9628 135.139 81.7465 135.171 66.0376 134.773C61.4084 134.651 57.9793 134.458 55.7502 134.195C55.5875 134.175 55.4265 134.123 55.2767 134.04L54.0833 133.366C53.9362 133.282 53.7674 133.242 53.5976 133.251C53.4277 133.26 53.2641 133.316 53.1266 133.414L51.5188 134.532C51.4039 134.614 51.3174 134.729 51.2709 134.861C51.2245 134.993 51.2203 135.135 51.2589 135.269C51.2975 135.403 51.377 135.523 51.4869 135.611C51.5968 135.7 51.7319 135.754 51.8739 135.766C58.5875 136.248 65.0348 136.527 71.2158 136.604C93.3753 136.874 114.802 136.376 135.495 135.11C135.577 135.105 135.656 135.077 135.722 135.029C135.788 134.98 135.838 134.914 135.866 134.839C135.895 134.763 135.9 134.681 135.881 134.603C135.862 134.524 135.821 134.453 135.761 134.397Z" fill="black"/>
<path d="M44.9104 44.873C44.7658 47.1799 43.8978 48.8313 42.3065 49.8273C42.194 49.8991 42.1035 49.9994 42.0449 50.1177C41.9863 50.2359 41.9618 50.3675 41.9739 50.4983C41.9861 50.6291 42.0345 50.7542 42.114 50.8602C42.1934 50.9661 42.3009 51.0489 42.4249 51.0996L46.242 52.6515C46.4353 52.7295 46.6109 52.8442 46.7588 52.9888C46.9066 53.1334 47.0238 53.3051 47.1035 53.4941C47.1833 53.6831 47.224 53.8856 47.2234 54.09C47.2228 54.2944 47.1809 54.4967 47.1001 54.6852L46.9423 55.0707C46.8643 55.2517 46.7487 55.4149 46.6027 55.5499C46.4568 55.6849 46.2838 55.7887 46.0946 55.8549C45.9054 55.921 45.7042 55.9481 45.5037 55.9342C45.3033 55.9203 45.108 55.8659 44.9302 55.7744C43.1647 54.8683 41.6556 53.6539 39.7717 53.0274C37.6675 52.3269 35.7244 50.8426 33.9425 48.5743C33.8142 48.4124 33.7275 48.2228 33.6895 48.0213C33.6515 47.8198 33.6634 47.6121 33.7241 47.4154C33.7848 47.2186 33.8926 47.0384 34.0386 46.8897C34.1846 46.7409 34.3646 46.6278 34.5639 46.5598C35.3464 46.2964 36.0664 46.2707 36.7239 46.4827C36.9653 46.5609 37.2277 46.5477 37.4583 46.4458C37.6889 46.3438 37.8705 46.1607 37.9667 45.9333L38.4599 44.767C38.512 44.6451 38.5324 44.5125 38.5193 44.381C38.5062 44.2495 38.46 44.1233 38.3847 44.0135C38.3095 43.9037 38.2077 43.8138 38.0883 43.7519C37.9688 43.69 37.8356 43.6579 37.7004 43.6586H33.0055C32.8609 43.6586 32.7183 43.6264 32.5885 43.5642C32.4587 43.5021 32.3451 43.4117 32.2566 43.3001C32.168 43.1884 32.1068 43.0584 32.0776 42.9201C32.0484 42.7818 32.052 42.6387 32.0882 42.5019L32.2263 42.0104C32.3005 41.6743 32.4841 41.3711 32.7493 41.1467C33.0145 40.9223 33.3469 40.789 33.6959 40.767C33.8866 40.767 35.9217 40.6224 39.8013 40.3332C39.9586 40.3224 40.1102 40.2709 40.2404 40.1838C40.3706 40.0968 40.4746 39.9774 40.5419 39.838C40.6093 39.6986 40.6373 39.5442 40.6233 39.3907C40.6093 39.2372 40.5536 39.0901 40.4621 38.9645C40.1794 38.5661 39.7257 38.3091 39.101 38.1934C37.8319 37.9493 36.405 37.8497 34.8203 37.8947C34.6655 37.8998 34.5112 37.8742 34.3666 37.8194C34.2221 37.7646 34.0902 37.6816 33.9788 37.5755C33.8674 37.4693 33.7789 37.3422 33.7184 37.2016C33.6579 37.0611 33.6268 36.9099 33.6269 36.7573V36.3042C33.6269 36.087 33.7152 35.8786 33.8724 35.725C34.0296 35.5713 34.2429 35.485 34.4652 35.485H48.264C48.5413 35.485 48.8072 35.5926 49.0032 35.7842C49.1993 35.9758 49.3095 36.2357 49.3095 36.5067V36.979C49.3095 37.3087 49.1754 37.625 48.9368 37.8582C48.6982 38.0914 48.3746 38.2224 48.0371 38.2224H46.1039C45.7355 38.2353 45.3858 38.384 45.1249 38.6386C44.8641 38.8932 44.7115 39.2348 44.6978 39.5948C44.684 39.9548 44.8102 40.3066 45.0509 40.5794C45.2916 40.8523 45.629 41.026 45.9954 41.0658L47.8497 41.2007C47.9361 41.2063 48.0204 41.2295 48.097 41.2688C48.1737 41.3081 48.2412 41.3626 48.295 41.4289C48.3489 41.4951 48.388 41.5716 48.4098 41.6535C48.4316 41.7354 48.4357 41.8208 48.4218 41.9043C48.1588 43.5301 47.2908 44.269 45.8179 44.1212C45.7066 44.1106 45.5942 44.1218 45.4876 44.1542C45.381 44.1866 45.2824 44.2395 45.1976 44.3097C45.1128 44.38 45.0436 44.4661 44.9943 44.5629C44.945 44.6597 44.9164 44.7652 44.9104 44.873Z" fill="black"/>
<path d="M78.85 58.9166C78.8848 58.9821 78.9406 59.0347 79.0089 59.0662C79.0772 59.0977 79.1541 59.1065 79.228 59.0912C79.3019 59.0759 79.3686 59.0373 79.4179 58.9814C79.4672 58.9255 79.4964 58.8553 79.501 58.7817C79.5799 57.6122 79.1262 57.1399 78.1398 57.3648C78.1045 57.3734 78.0677 57.3742 78.032 57.3672C77.9963 57.3602 77.9627 57.3456 77.9334 57.3244C77.9042 57.3033 77.8801 57.276 77.8629 57.2446C77.8458 57.2133 77.8359 57.1786 77.8341 57.1431C77.8209 56.9568 77.959 56.8154 78.2483 56.719C79.5371 56.2756 80.5037 56.6611 81.1481 57.8756C81.2429 58.0494 81.3935 58.1878 81.5767 58.2695C81.76 58.3513 81.9657 58.3718 82.1621 58.328C82.3585 58.2841 82.5346 58.1783 82.6633 58.0268C82.792 57.8754 82.8661 57.6868 82.8742 57.4901L82.963 54.9262C82.9678 54.7982 83.0175 54.6757 83.1036 54.5792C83.1898 54.4827 83.3073 54.4181 83.4364 54.3961C86.014 53.9141 88.253 53.8435 90.1533 54.184C90.3426 54.2173 90.5374 54.1912 90.7102 54.1095C90.883 54.0278 91.0251 53.8946 91.1166 53.7285C91.208 53.5625 91.2443 53.3721 91.2201 53.1841C91.1959 52.996 91.1126 52.8199 90.9818 52.6804C89.9857 51.6201 87.0858 52.5165 84.1367 52.9792C84.0717 52.9897 84.005 52.9855 83.9418 52.967C83.8786 52.9485 83.8206 52.9163 83.7721 52.8726C83.7236 52.8289 83.686 52.775 83.662 52.715C83.638 52.655 83.6283 52.5904 83.6337 52.5262C83.9592 48.7285 86.7899 47.3116 90.3013 45.4032C90.4383 45.327 90.5904 45.2791 90.7481 45.2626C90.9059 45.246 91.0659 45.2611 91.2186 45.3068C92.4942 45.6988 94.0066 45.8562 95.7557 45.7791C96.1096 45.7663 96.4604 45.7921 96.8012 45.8562L100.529 46.6177C101.477 46.8091 102.353 47.2521 103.061 47.8981C103.769 48.544 104.282 49.3682 104.544 50.2803C104.919 51.5848 104.988 53.9559 104.751 57.3937C104.718 57.9206 104.817 58.425 105.047 58.907C105.106 59.03 105.205 59.1302 105.329 59.1915C105.454 59.2528 105.595 59.2716 105.732 59.245C105.868 59.2183 105.991 59.1477 106.082 59.0445C106.172 58.9413 106.224 58.8114 106.23 58.6756C106.263 57.8274 106.454 57.3262 106.803 57.172C106.977 57.0961 107.169 57.0705 107.358 57.0983C107.546 57.1261 107.722 57.2062 107.866 57.3289C108.009 57.4517 108.113 57.612 108.166 57.7909C108.219 57.9698 108.218 58.1598 108.164 58.3383C107.894 59.2186 107.513 60.1054 107.02 60.9986C106.935 61.1589 106.791 61.2819 106.617 61.3427C106.443 61.4035 106.252 61.3976 106.083 61.3263L105.067 60.9118C104.996 60.8835 104.92 60.8716 104.843 60.877C104.767 60.8824 104.693 60.905 104.626 60.9431C104.56 60.9812 104.502 61.0338 104.459 61.0968C104.416 61.1599 104.387 61.2317 104.376 61.307C104.034 63.7745 103.387 65.4227 102.433 66.2516C97.8565 70.2163 92.8657 71.0806 87.4606 68.8444C84.3438 67.5625 82.4698 65.4709 82.6769 62.1938C82.6846 62.0962 82.6655 61.9984 82.6215 61.9105C82.5776 61.8226 82.5104 61.7478 82.4269 61.6937C82.3435 61.6397 82.2468 61.6084 82.1468 61.6031C82.0468 61.5978 81.9472 61.6187 81.8583 61.6636C80.0829 62.56 78.199 60.1407 77.1239 58.9262C77.0235 58.8123 76.9669 58.6677 76.9639 58.5173C76.9609 58.3669 77.0117 58.2202 77.1076 58.1026C77.2035 57.9849 77.3384 57.9036 77.489 57.8727C77.6396 57.8419 77.7966 57.8633 77.9327 57.9335C78.2944 58.1198 78.6001 58.4475 78.85 58.9166ZM95.7754 53.9141L102.147 53.9334C102.192 53.9334 102.234 53.9162 102.266 53.8854C102.297 53.8547 102.315 53.813 102.315 53.7696V53.625C102.316 53.4042 102.246 53.1853 102.107 52.9809C101.968 52.7765 101.764 52.5906 101.507 52.4339C101.249 52.2771 100.943 52.1527 100.606 52.0676C100.269 51.9826 99.9081 51.9386 99.5432 51.9382H98.3793C97.6462 51.9374 96.9429 52.1125 96.4234 52.425C95.904 52.7375 95.6107 53.1621 95.6077 53.6057V53.7503C95.6077 53.7937 95.6254 53.8354 95.6568 53.8661C95.6883 53.8969 95.7309 53.9141 95.7754 53.9141ZM89.6817 56.1564C89.539 56.0713 89.3745 56.0243 89.1976 56.018C89.0206 56.0118 88.8347 56.0464 88.6503 56.12C88.4659 56.1935 88.2868 56.3045 88.1231 56.4466C87.9594 56.5887 87.8144 56.7592 87.6963 56.9483C87.4578 57.3301 87.3435 57.7646 87.3785 58.1561C87.4135 58.5476 87.595 58.864 87.883 59.0358C88.0256 59.1209 88.1901 59.1679 88.3671 59.1742C88.544 59.1804 88.73 59.1458 88.9143 59.0722C89.0987 58.9987 89.2779 58.8877 89.4415 58.7456C89.6052 58.6035 89.7503 58.433 89.8684 58.2439C90.1069 57.8621 90.2212 57.4276 90.1862 57.0361C90.1512 56.6447 89.9697 56.3282 89.6817 56.1564ZM98.8626 57.6347C98.8626 57.2691 98.714 56.9185 98.4495 56.6601C98.185 56.4016 97.8262 56.2563 97.4522 56.2563C97.0781 56.2563 96.7193 56.4016 96.4548 56.6601C96.1903 56.9185 96.0417 57.2691 96.0417 57.6347C96.0417 58.0002 96.1903 58.3508 96.4548 58.6093C96.7193 58.8678 97.0781 59.013 97.4522 59.013C97.8262 59.013 98.185 58.8678 98.4495 58.6093C98.714 58.3508 98.8626 58.0002 98.8626 57.6347ZM91.9716 62.1368C91.9443 62.254 91.9509 62.3776 91.991 62.5004C92.0311 62.6233 92.1038 62.7429 92.2051 62.8526C92.3064 62.9623 92.4343 63.0599 92.5814 63.1397C92.7285 63.2196 92.892 63.2802 93.0625 63.318C93.233 63.3559 93.4072 63.3703 93.5752 63.3604C93.7432 63.3505 93.9016 63.3165 94.0415 63.2603C94.1813 63.2042 94.2999 63.127 94.3903 63.0331C94.4808 62.9393 94.5414 62.8306 94.5686 62.7134C94.5959 62.5961 94.5893 62.4725 94.5492 62.3497C94.5091 62.2269 94.4364 62.1072 94.3351 61.9975C94.2338 61.8878 94.106 61.7903 93.9589 61.7104C93.8117 61.6306 93.6483 61.57 93.4777 61.5322C93.3072 61.4943 93.133 61.4799 92.965 61.4898C92.797 61.4997 92.6386 61.5337 92.4987 61.5898C92.3589 61.646 92.2403 61.7232 92.1499 61.817C92.0594 61.9109 91.9989 62.0195 91.9716 62.1368ZM95.4396 65.3684C95.435 65.3002 95.4168 65.2335 95.3859 65.1722C95.355 65.1109 95.3121 65.0561 95.2595 65.011C95.207 64.9659 95.1458 64.9313 95.0796 64.9093C95.0134 64.8873 94.9434 64.8782 94.8736 64.8827L91.4681 65.0979C91.3983 65.1023 91.33 65.1201 91.2673 65.1502C91.2045 65.1804 91.1485 65.2224 91.1023 65.2737C91.0561 65.3251 91.0208 65.3848 90.9982 65.4495C90.9757 65.5142 90.9664 65.5826 90.9709 65.6509L90.9823 65.824C90.9868 65.8922 91.0051 65.9589 91.036 66.0202C91.0668 66.0815 91.1098 66.1363 91.1624 66.1814C91.2149 66.2265 91.276 66.2611 91.3423 66.2831C91.4085 66.3051 91.4785 66.3142 91.5483 66.3098L94.9538 66.0945C95.0236 66.0901 95.0918 66.0723 95.1546 66.0422C95.2173 66.012 95.2734 65.97 95.3196 65.9187C95.3657 65.8673 95.4011 65.8076 95.4237 65.7429C95.4462 65.6782 95.4555 65.6098 95.451 65.5416L95.4396 65.3684Z" fill="white"/>
<path d="M140.929 55.7744C142.275 55.7744 143.366 54.7085 143.366 53.3936C143.366 52.0788 142.275 51.0129 140.929 51.0129C139.584 51.0129 138.493 52.0788 138.493 53.3936C138.493 54.7085 139.584 55.7744 140.929 55.7744Z" fill="black"/>
<path d="M95.7754 53.9141C95.7309 53.9141 95.6883 53.8968 95.6568 53.8661C95.6254 53.8354 95.6077 53.7937 95.6077 53.7502V53.6057C95.6107 53.162 95.904 52.7375 96.4234 52.425C96.9429 52.1124 97.6462 51.9374 98.3793 51.9382H99.5432C99.9081 51.9386 100.269 51.9825 100.606 52.0676C100.943 52.1527 101.249 52.2771 101.507 52.4338C101.764 52.5906 101.968 52.7765 102.107 52.9809C102.246 53.1853 102.316 53.4041 102.315 53.6249V53.7695C102.315 53.813 102.297 53.8547 102.266 53.8854C102.234 53.9161 102.192 53.9334 102.147 53.9334L95.7754 53.9141Z" fill="black"/>
<path d="M89.8684 58.2439C90.365 57.4487 90.2814 56.5141 89.6816 56.1563C89.0818 55.7986 88.193 56.1531 87.6963 56.9483C87.1996 57.7434 87.2832 58.678 87.883 59.0358C88.4828 59.3936 89.3717 59.039 89.8684 58.2439Z" fill="black"/>
<path d="M97.4522 59.013C98.2311 59.013 98.8626 58.3959 98.8626 57.6346C98.8626 56.8734 98.2311 56.2563 97.4522 56.2563C96.6732 56.2563 96.0417 56.8734 96.0417 57.6346C96.0417 58.3959 96.6732 59.013 97.4522 59.013Z" fill="black"/>
<path d="M93.4777 61.5321C92.7606 61.3729 92.0863 61.6436 91.9716 62.1368C91.857 62.6299 92.3454 63.1588 93.0625 63.318C93.7796 63.4772 94.4539 63.2065 94.5686 62.7133C94.6832 62.2202 94.1948 61.6914 93.4777 61.5321Z" fill="black"/>
<path d="M94.8736 64.8826L91.4681 65.0978C91.1745 65.1164 90.9519 65.364 90.9709 65.6508L90.9824 65.8239C91.0014 66.1108 91.2547 66.3283 91.5483 66.3098L94.9538 66.0945C95.2474 66.076 95.47 65.8284 95.451 65.5416L95.4395 65.3684C95.4205 65.0816 95.1672 64.8641 94.8736 64.8826Z" fill="black"/>
<path d="M87.362 72.3529C87.5001 72.2051 87.6513 72.0573 87.8157 71.9095C87.9472 71.7874 88.2267 71.8035 88.6541 71.9577C92.2049 73.275 95.6998 73.0212 99.1388 71.1963C99.2072 71.1605 99.2843 71.1437 99.3618 71.1478C99.4392 71.1518 99.514 71.1766 99.5781 71.2193C99.6422 71.262 99.6931 71.3211 99.7252 71.3901C99.7573 71.4592 99.7694 71.5354 99.7602 71.6107C99.3065 74.9714 97.6659 77.4036 94.8384 78.9072C94.5324 79.0692 94.1773 79.1236 93.8323 79.0614C90.5906 78.4188 88.3385 76.8349 87.076 74.3096C86.8729 73.9 86.5218 73.5774 86.0896 73.4035L85.6458 73.2204C85.6332 73.2143 85.6163 73.2044 85.5965 73.1915C84.8337 72.7031 84.7976 72.0734 85.488 71.3023C85.5397 71.2431 85.6032 71.195 85.6747 71.1608C85.7462 71.1266 85.8241 71.107 85.9036 71.1034C85.9831 71.0998 86.0625 71.1122 86.1369 71.1398C86.2113 71.1673 86.2792 71.2095 86.3362 71.2637C86.4743 71.3987 86.5927 71.7039 86.6913 72.1794C86.7049 72.2476 86.7379 72.3103 86.7866 72.3608C86.8353 72.4113 86.8977 72.4475 86.9671 72.4655C87.0365 72.4834 87.1101 72.4824 87.1798 72.4625C87.2495 72.4427 87.3125 72.4047 87.362 72.3529Z" fill="white"/>
<path d="M85.3795 75.7746C86.0305 76.1602 86.5927 77.6735 87.4902 78.2132C87.865 78.4381 89.2393 79.0325 91.6131 79.9964C91.7258 80.042 91.8223 80.119 91.8906 80.2178C91.9588 80.3167 91.9958 80.433 91.9968 80.5522C91.9979 80.6715 91.963 80.7884 91.8965 80.8884C91.83 80.9883 91.7349 81.067 91.623 81.1145C90.1435 81.7635 88.687 83.0262 87.2535 84.9025C87.1417 85.0518 87.0863 85.2343 87.0967 85.419C87.1072 85.6037 87.1827 85.7792 87.3107 85.9155C87.4386 86.0519 87.6109 86.1407 87.7983 86.1669C87.9857 86.1931 88.1766 86.155 88.3385 86.0591C88.3516 86.0527 88.4141 85.8181 88.5259 85.3555C88.5683 85.1823 88.6764 85.0312 88.8284 84.9328C88.9803 84.8345 89.1648 84.7961 89.3445 84.8254C91.2777 85.1338 91.5342 86.1362 91.1594 87.9483C90.6399 90.4286 90.2027 93.015 89.8476 95.7074C89.8427 95.7883 89.8082 95.8647 89.7504 95.9228C89.6927 95.9808 89.6154 96.0167 89.5328 96.0237C89.4503 96.0307 89.3679 96.0085 89.3007 95.961C89.2335 95.9136 89.1861 95.8441 89.167 95.7652L86.139 86.2133C86.1061 86.1043 86.0798 85.9915 86.0601 85.8759L84.7285 76.1987C84.7171 76.1196 84.7288 76.039 84.7622 75.966C84.7957 75.8931 84.8495 75.8309 84.9175 75.7866C84.9855 75.7423 85.065 75.7177 85.1467 75.7155C85.2285 75.7134 85.3091 75.7339 85.3795 75.7746Z" fill="white"/>
<path d="M97.3437 95.0423L95.5782 86.5988C95.5487 86.4614 95.5523 86.3192 95.5888 86.1833C95.6253 86.0475 95.6936 85.9218 95.7883 85.8162C95.8829 85.7105 96.0015 85.6279 96.1345 85.5747C96.2675 85.5215 96.4113 85.4992 96.5546 85.5097L97.7185 85.5964C97.8624 85.608 98.0065 85.5752 98.1303 85.5025C98.2542 85.4299 98.3516 85.3212 98.4089 85.1916C98.9152 84.0735 97.9815 82.7016 95.6077 81.0759C95.5142 81.0116 95.44 80.9241 95.3928 80.8223C95.3455 80.7206 95.327 80.6084 95.339 80.4973C95.3511 80.3862 95.3934 80.2803 95.4614 80.1905C95.5295 80.1007 95.6209 80.0304 95.7261 79.9867C97.4029 79.2863 98.8034 77.9915 99.9278 76.1023C99.9778 76.0149 100.057 75.947 100.153 75.9103C100.248 75.8736 100.354 75.8703 100.451 75.901C100.549 75.9316 100.632 75.9944 100.688 76.0785C100.744 76.1627 100.768 76.263 100.756 76.3626C100.664 77.5385 100.53 78.6309 100.352 79.6397C99.9969 81.7506 100.559 83.5723 99.6418 85.6061C98.261 88.6905 98.6555 93.1724 97.827 95.0905C97.8047 95.1382 97.7677 95.1779 97.7212 95.2039C97.6747 95.23 97.621 95.2411 97.5676 95.2358C97.5143 95.2305 97.464 95.209 97.4238 95.1743C97.3836 95.1396 97.3556 95.0934 97.3437 95.0423Z" fill="white"/>
<path d="M82.1049 127.313C82.204 127.354 82.2871 127.425 82.3418 127.515C82.3966 127.606 82.4202 127.711 82.4092 127.816C82.3981 127.92 82.353 128.019 82.2805 128.096C82.208 128.174 82.1118 128.227 82.0062 128.248C78.1596 128.961 74.543 129.118 71.1566 128.72C70.332 128.625 69.5395 128.348 68.8388 127.91L62.5164 123.92C62.3161 123.794 62.0815 123.72 61.8358 123.708L60.0999 123.65C59.7986 123.644 59.5049 123.543 59.2615 123.361C57.7623 122.236 55.9672 121.69 53.8762 121.722C53.7027 121.725 53.5307 121.69 53.3726 121.62C53.2144 121.55 53.0739 121.447 52.9609 121.318C52.848 121.19 52.7654 121.038 52.7191 120.875C52.6727 120.711 52.6636 120.54 52.6926 120.373C53.2975 116.877 55.0795 113.754 58.0385 111.004C58.158 110.893 58.3059 110.817 58.4659 110.783C58.626 110.749 58.792 110.759 58.9459 110.811C63.2167 112.247 65.6134 113.057 70.0618 110.994C71.9555 110.114 74.4806 109.716 77.6368 109.799C77.7996 109.799 77.9571 109.743 78.0824 109.641C78.2076 109.54 78.2928 109.399 78.3231 109.242C78.3535 109.086 78.3272 108.924 78.2487 108.785C78.1703 108.646 78.0446 108.537 77.8932 108.479C74.1551 107.11 70.624 101.654 68.5725 98.5219C68.4731 98.3729 68.4351 98.1926 68.4662 98.0174C68.4973 97.8421 68.5952 97.6849 68.7401 97.5773L70.19 96.4978C70.2396 96.4598 70.2965 96.4319 70.3573 96.4157C70.4181 96.3995 70.4816 96.3953 70.544 96.4033C70.6065 96.4114 70.6667 96.4317 70.7211 96.4628C70.7755 96.4939 70.8229 96.5353 70.8607 96.5845L80.7043 109.211C80.827 109.37 80.9046 109.557 80.9288 109.753C80.9531 109.95 80.9233 110.149 80.8424 110.329C80.7766 110.477 80.7404 110.557 80.7339 110.57C80.6912 110.692 80.6882 110.823 80.7253 110.947C80.7623 111.071 80.8376 111.182 80.941 111.264C82.6966 112.671 84.5279 113.989 86.4348 115.216C88.4469 116.508 88.9894 117.539 90.5577 119.872C90.7262 120.122 90.8077 120.42 90.79 120.719C90.7723 121.019 90.6565 121.305 90.4596 121.535C90.2627 121.765 89.9953 121.927 89.6968 121.997C89.3982 122.068 89.0845 122.042 88.802 121.925C87.3686 121.321 84.9027 119.891 81.4046 117.635C80.3919 116.98 79.4779 116.71 78.6626 116.826C78.5012 116.848 78.351 116.919 78.233 117.028C78.115 117.138 78.0352 117.281 78.0047 117.437C77.9742 117.594 77.9947 117.756 78.0631 117.9C78.1316 118.044 78.2446 118.164 78.3864 118.243L85.991 122.532C86.2462 122.677 86.4608 122.881 86.616 123.126C86.7711 123.372 86.862 123.65 86.8805 123.938C86.899 124.226 86.8447 124.514 86.7222 124.776C86.5997 125.039 86.413 125.268 86.1784 125.443L85.34 126.069C84.9784 126.336 84.545 126.496 84.0919 126.528C83.6388 126.561 83.1852 126.465 82.7854 126.252C78.6494 124.042 76.0521 123.248 74.9934 123.872C74.941 123.901 74.8982 123.945 74.8698 123.997C74.8414 124.05 74.8285 124.109 74.8326 124.168C74.8367 124.227 74.8577 124.284 74.893 124.332C74.9284 124.38 74.9769 124.418 75.0329 124.44L82.1049 127.313Z" fill="white"/>
<path d="M109.867 102.769C109.739 101.209 109.23 99.9761 108.73 100.015C108.23 100.055 107.93 101.351 108.058 102.911C108.187 104.471 108.696 105.704 109.195 105.665C109.695 105.625 109.996 104.329 109.867 102.769Z" fill="white"/>
<path d="M63.4041 100.614L63.6408 100.748C63.7055 100.785 63.7531 100.845 63.7734 100.915C63.7937 100.985 63.785 101.06 63.7493 101.124L61.8753 104.517C61.8282 104.606 61.8055 104.706 61.8096 104.806C61.8136 104.906 61.8442 105.003 61.8983 105.087C61.9523 105.171 62.0279 105.239 62.1174 105.285C62.2069 105.33 62.3071 105.351 62.4079 105.346C62.4408 105.346 62.5197 105.314 62.6446 105.25C62.743 105.203 62.8522 105.184 62.9602 105.194C63.0681 105.205 63.1706 105.244 63.2561 105.308L66.7576 107.804C66.8684 107.882 66.9547 107.988 67.0066 108.112C67.0586 108.235 67.0741 108.37 67.0515 108.501C67.0289 108.633 66.9691 108.755 66.8788 108.855C66.7885 108.955 66.6713 109.028 66.5406 109.067C62.6052 110.243 60.6128 107.63 57.8708 106.397C57.8212 106.374 57.7782 106.339 57.7462 106.295C57.7142 106.251 57.6942 106.201 57.6882 106.148C57.6822 106.096 57.6905 106.043 57.7121 105.995C57.7338 105.947 57.7681 105.906 57.8116 105.876C59.7119 104.475 61.3065 102.785 62.5953 100.806C62.6761 100.678 62.8058 100.586 62.9569 100.55C63.108 100.514 63.2684 100.537 63.4041 100.614Z" fill="white"/>
<path d="M50.3451 106.705C50.4002 106.741 50.439 106.796 50.4537 106.858C50.4684 106.921 50.4578 106.987 50.4241 107.042L50.2958 107.264C50.2901 107.274 50.28 107.282 50.2673 107.286C50.2546 107.289 50.2402 107.288 50.2268 107.283C47.9188 106.191 45.5089 105.584 42.997 105.462C42.9481 105.459 42.9018 105.439 42.8671 105.405C42.8325 105.372 42.812 105.326 42.8096 105.279V105.269C42.8066 105.218 42.8232 105.168 42.8561 105.129C42.889 105.09 42.9357 105.064 42.9871 105.057C45.6042 104.736 48.0569 105.285 50.3451 106.705Z" fill="white"/>
<path d="M46.8239 108.479L44.0425 109.298C43.9435 109.324 43.8386 109.317 43.744 109.278C43.6495 109.24 43.5707 109.172 43.52 109.085C43.4693 108.998 43.4496 108.897 43.4638 108.797C43.478 108.698 43.5254 108.607 43.5986 108.537C44.4206 107.791 45.4957 107.627 46.8239 108.045C46.8717 108.061 46.9136 108.091 46.9433 108.132C46.9731 108.172 46.9892 108.22 46.9892 108.269C46.9892 108.317 46.9731 108.364 46.9433 108.402C46.9136 108.44 46.8717 108.467 46.8239 108.479Z" fill="white"/>
<path d="M106.95 108.247C106.973 108.224 107.004 108.209 107.037 108.208C107.07 108.206 107.103 108.217 107.128 108.238L107.217 108.315C107.382 108.467 107.339 108.83 107.097 109.324C106.855 109.819 106.433 110.406 105.925 110.956L105.757 111.139C105.504 111.413 105.237 111.669 104.971 111.894C104.706 112.119 104.446 112.307 104.208 112.449C103.97 112.59 103.758 112.682 103.583 112.718C103.409 112.755 103.276 112.736 103.193 112.662L103.104 112.585C103.09 112.574 103.079 112.56 103.071 112.545C103.064 112.529 103.059 112.512 103.058 112.495C103.057 112.478 103.06 112.461 103.066 112.445C103.072 112.429 103.082 112.414 103.094 112.402L106.95 108.247Z" fill="white"/>
<path d="M125.493 122.888C125.586 122.754 125.868 122.59 126.342 122.397C126.682 122.252 126.973 122.016 127.182 121.716C127.392 121.416 127.51 121.064 127.525 120.7C127.532 120.655 127.226 119.104 126.608 116.045C126.167 113.828 124.415 111.997 121.351 110.551C121.268 110.518 121.199 110.456 121.159 110.378C121.118 110.3 121.107 110.21 121.129 110.124C121.15 110.039 121.203 109.964 121.276 109.913C121.349 109.862 121.439 109.839 121.528 109.847L124.192 109.934C124.353 109.941 124.511 109.994 124.645 110.088C128.758 112.903 131.254 117.664 128.492 121.944C128.295 122.252 127.89 122.516 127.279 122.734C126.871 122.876 126.411 123.075 125.898 123.332C125.836 123.361 125.766 123.37 125.698 123.357C125.631 123.344 125.57 123.31 125.524 123.26C125.478 123.21 125.45 123.146 125.445 123.079C125.439 123.012 125.456 122.945 125.493 122.888Z" fill="white"/>
<path d="M56.0559 110.088C56.1253 110.081 56.1954 110.095 56.2558 110.129C56.3162 110.164 56.3637 110.216 56.3914 110.279C56.419 110.341 56.4253 110.411 56.4093 110.477C56.3933 110.544 56.3559 110.603 56.3025 110.647C52.6531 113.712 50.8942 117.594 51.0257 122.291C51.0306 122.51 51.1124 122.721 51.2576 122.889C51.4028 123.057 51.6028 123.173 51.8246 123.216L52.1895 123.284C52.2692 123.299 52.3431 123.336 52.4035 123.389C52.4638 123.442 52.5085 123.51 52.5327 123.586C52.5569 123.662 52.5598 123.743 52.541 123.82C52.5223 123.898 52.4827 123.969 52.4263 124.026C51.0849 125.423 49.1812 124.932 48.7472 123.043C48.2541 120.839 48.2212 119.049 48.6486 117.674C49.8815 113.78 51.509 110.551 56.0559 110.088Z" fill="white"/>
<path d="M109.545 128.045L113.687 126.831C113.78 126.802 113.864 126.751 113.93 126.681C113.996 126.611 114.042 126.525 114.063 126.432C114.084 126.339 114.079 126.242 114.05 126.151C114.02 126.06 113.966 125.979 113.894 125.915L113.638 125.684C113.438 125.503 113.176 125.4 112.904 125.395C112.631 125.389 112.366 125.482 112.158 125.655L111.113 126.522C110.828 126.756 110.485 126.916 110.117 126.985C107.493 127.46 105.126 127.672 103.015 127.621C102.963 127.62 102.914 127.602 102.874 127.57C102.834 127.538 102.807 127.493 102.796 127.444C102.786 127.394 102.793 127.343 102.817 127.298C102.841 127.253 102.879 127.217 102.926 127.197L112.03 123.043C112.11 123.005 112.174 122.941 112.21 122.861C112.246 122.782 112.252 122.692 112.227 122.609L112.119 122.272C112.106 122.227 112.083 122.185 112.053 122.15C112.022 122.114 111.984 122.084 111.942 122.064C111.899 122.043 111.852 122.031 111.805 122.029C111.757 122.026 111.71 122.033 111.665 122.05L102.157 125.539C102.089 125.564 102.016 125.575 101.943 125.571C101.87 125.567 101.798 125.548 101.733 125.515C101.667 125.483 101.609 125.437 101.561 125.382C101.514 125.326 101.478 125.262 101.457 125.192C101.22 124.395 101.368 123.756 101.9 123.274C103.472 121.848 106.106 120.209 109.801 118.358C110.053 118.231 110.268 118.043 110.428 117.813C110.588 117.582 110.688 117.316 110.718 117.038L110.728 116.932C110.739 116.838 110.724 116.743 110.685 116.657C110.646 116.571 110.584 116.496 110.505 116.441C110.427 116.386 110.335 116.353 110.239 116.344C110.143 116.335 110.046 116.352 109.959 116.392C105.787 118.262 101.407 119.438 99.4149 122.85C99.3593 122.949 99.2726 123.029 99.1674 123.076C99.0622 123.124 98.9442 123.138 98.8305 123.115C98.7169 123.092 98.6137 123.035 98.536 122.951C98.4584 122.867 98.4103 122.76 98.399 122.647C98.1623 120.681 100.628 118.802 102.532 116.797C103.153 116.145 103.871 115.586 104.662 115.139C106.648 114.027 108.41 112.537 109.949 110.667C110.088 110.496 110.275 110.367 110.488 110.293C110.7 110.22 110.93 110.206 111.152 110.252L119.319 111.987C119.385 112 119.447 112.019 119.506 112.045C122.452 113.157 124.231 115.56 124.842 119.255C125.145 121.06 124.573 122.027 123.126 122.156C122.945 122.171 122.77 122.226 122.614 122.316C122.459 122.406 122.327 122.53 122.229 122.676C119.082 127.37 115.246 128.286 109.692 128.595C109.653 128.597 109.614 128.587 109.581 128.566C109.549 128.545 109.526 128.514 109.515 128.479L109.436 128.228C109.425 128.193 109.43 128.154 109.45 128.12C109.471 128.086 109.504 128.059 109.545 128.045Z" fill="white"/>
<path d="M135.495 135.11C114.802 136.376 93.3753 136.874 71.2158 136.604C65.0348 136.527 58.5876 136.248 51.874 135.766C51.7319 135.754 51.5969 135.7 51.487 135.611C51.377 135.523 51.2975 135.403 51.2589 135.269C51.2203 135.135 51.2245 134.993 51.271 134.861C51.3174 134.729 51.4039 134.614 51.5189 134.532L53.1266 133.414C53.2641 133.316 53.4278 133.26 53.5976 133.251C53.7675 133.242 53.9362 133.282 54.0833 133.366L55.2768 134.04C55.4265 134.123 55.5875 134.175 55.7502 134.195C57.9793 134.458 61.4084 134.651 66.0376 134.773C81.7465 135.171 95.9628 135.139 108.686 134.677C115.798 134.416 123.166 133.684 130.455 133.684C131.29 133.684 131.836 133.504 132.092 133.144C132.181 133.015 132.23 132.864 132.232 132.709C132.235 132.554 132.192 132.4 132.108 132.266C132.023 132.132 131.902 132.021 131.756 131.948C131.61 131.875 131.446 131.842 131.283 131.852C106.388 133.536 81.0758 133.77 55.3458 132.556C55.2816 132.553 55.2194 132.534 55.1649 132.5C55.1105 132.467 55.0658 132.42 55.0351 132.365C55.0044 132.31 54.9887 132.248 54.9896 132.185C54.9905 132.122 55.0078 132.061 55.0401 132.007L57.8708 127.207C57.966 127.045 58.0992 126.907 58.26 126.803C58.4209 126.699 58.605 126.633 58.798 126.609C60.021 126.468 61.0402 126.725 61.8556 127.38C64.3148 129.359 66.8267 130.635 69.3911 131.207C74.1649 132.267 84.9751 132.016 88.5062 127.496C88.6485 127.316 88.8319 127.17 89.0416 127.072C89.2513 126.973 89.4814 126.923 89.7136 126.927C89.9457 126.931 90.1733 126.988 90.3782 127.093C90.583 127.199 90.7594 127.35 90.8931 127.534L92.4909 129.732C92.6105 129.896 92.7821 130.017 92.9793 130.077C93.1764 130.136 93.388 130.13 93.5813 130.059C93.7746 129.989 93.9388 129.859 94.0484 129.688C94.158 129.517 94.2068 129.316 94.1874 129.115L93.7238 124.354C93.706 124.169 93.7541 123.986 93.8601 123.833C93.9661 123.681 94.1234 123.569 94.3054 123.517C94.4875 123.465 94.6832 123.475 94.8594 123.547C95.0356 123.619 95.1815 123.747 95.2724 123.91C99.6418 132.084 108.716 131.987 117.011 130.021C117.481 129.906 117.922 129.71 118.313 129.443L123.294 125.973C123.478 125.846 123.692 125.767 123.915 125.743C124.137 125.72 124.362 125.752 124.566 125.838C127.302 126.975 129.324 128.228 130.632 129.597C131.566 130.574 133.276 132.174 135.761 134.397C135.821 134.453 135.862 134.524 135.881 134.603C135.9 134.681 135.895 134.763 135.867 134.839C135.838 134.914 135.788 134.98 135.722 135.029C135.656 135.077 135.577 135.105 135.495 135.11ZM128.314 130.185C128.466 130.134 128.561 130.072 128.6 130.002C128.612 129.979 128.617 129.954 128.614 129.93C128.612 129.905 128.602 129.881 128.587 129.861C128.572 129.841 128.551 129.825 128.527 129.816C128.504 129.807 128.478 129.805 128.452 129.809C128.275 129.848 128.176 129.931 128.157 130.06C128.154 130.079 128.156 130.1 128.163 130.118C128.171 130.137 128.183 130.153 128.199 130.166C128.215 130.179 128.234 130.187 128.254 130.19C128.274 130.194 128.295 130.192 128.314 130.185Z" fill="white"/>
<path d="M128.157 130.06C128.176 129.931 128.275 129.848 128.452 129.809C128.478 129.805 128.504 129.807 128.527 129.816C128.551 129.825 128.572 129.841 128.587 129.861C128.602 129.881 128.612 129.905 128.614 129.929C128.617 129.954 128.612 129.979 128.6 130.002C128.561 130.072 128.466 130.133 128.314 130.185C128.295 130.192 128.274 130.194 128.254 130.19C128.234 130.187 128.215 130.179 128.199 130.166C128.183 130.153 128.171 130.137 128.163 130.118C128.156 130.1 128.154 130.079 128.157 130.06Z" fill="black"/>
</svg>
