<svg width="193" height="152" viewBox="0 0 193 152" fill="none" xmlns="http://www.w3.org/2000/svg">
<path d="M79.8498 71.401C78.5873 70.283 79.1988 68.2299 78.5084 66.7166C78.298 66.254 78.1139 65.4187 77.956 64.2106C77.9312 64.0334 77.8657 63.8647 77.7648 63.7176C77.6639 63.5704 77.5302 63.4489 77.3741 63.3624L74.8787 61.9551C74.7295 61.8712 74.6 61.7574 74.4989 61.6212C74.3978 61.485 74.3272 61.3295 74.2918 61.1648C74.2564 61.0001 74.257 60.83 74.2936 60.6656C74.3301 60.5011 74.4018 60.346 74.5039 60.2105L77.7686 55.8346C78.0255 55.4908 78.1573 55.0722 78.143 54.6447C78.1287 54.2172 77.9693 53.805 77.6898 53.4731C76.7692 52.3936 76.5424 51.2369 77.0092 50.0032C77.0808 49.8072 77.0984 49.5968 77.0603 49.3936C77.0221 49.1904 76.9296 49.0016 76.7922 48.8466C76.1018 48.069 75.3982 46.4465 74.6814 43.979C74.5713 43.599 74.5577 43.2018 74.642 42.8224C75.0365 41.1131 74.8886 39.1404 74.1981 36.9042C74.0764 36.5089 74.0833 36.0847 74.2179 35.6898C75.0661 33.1901 76.1347 31.5194 77.4235 30.6777C78.5084 29.9708 80.0504 29.8005 82.0493 30.1668C82.2135 30.1972 82.3833 30.1717 82.5305 30.0945C82.6777 30.0174 82.7933 29.8932 82.8581 29.7427C83.5814 28.0656 84.9294 27.5226 86.9021 28.1138C87.0545 28.1565 87.1964 28.23 87.3186 28.3296C87.4409 28.4291 87.5409 28.5526 87.6122 28.6921C87.8621 29.174 88.1185 29.4953 88.3815 29.656C88.7432 29.8744 89.1377 29.807 89.5652 29.4536C90.1569 28.9523 90.7159 28.8463 91.2419 29.1355C91.8337 29.4568 92.4025 29.6013 92.9482 29.5692C96.0519 29.3829 99.7375 30.2985 104.005 32.3162C104.991 32.7853 106.02 33.5564 107.092 34.6295C107.967 35.5099 108.805 36.0271 109.607 36.1813C109.97 36.2285 110.314 36.3672 110.605 36.5836C110.895 36.8 111.123 37.0866 111.264 37.4151L113.444 42.4658C113.583 42.7751 113.594 43.1243 113.474 43.4393C113.02 44.6537 112.783 46.3758 112.764 48.6056C112.757 49.3253 112.09 50.7261 110.761 52.808C110.611 53.0444 110.498 53.3044 110.426 53.5792L109.341 57.9166C109.184 58.5299 108.935 59.1148 108.601 59.6515C107.191 61.9262 106.027 62.9383 105.366 66.4468C105.349 66.5323 105.351 66.6204 105.373 66.7052C105.394 66.7899 105.435 66.8692 105.491 66.9378C105.547 67.0064 105.618 67.0626 105.698 67.1026C105.779 67.1426 105.867 67.1655 105.958 67.1697L106.727 67.1986C106.942 67.2044 107.144 67.291 107.289 67.4395C109.058 69.2773 110.521 70.3151 111.679 70.5528C117.985 71.8444 123.978 73.7625 129.659 76.3071C130.547 76.6991 130.998 77.332 131.011 78.2059C131.011 78.5157 131.131 78.8123 131.346 79.0349C131.622 79.324 132.645 80.9016 134.413 83.7675C134.972 84.6735 136.038 86.1225 137.609 88.1145C141.706 93.3001 148.107 100.118 156.813 108.568C158.812 110.508 160.107 113.181 160.699 116.587C161.163 119.267 160.423 121.166 158.855 123.228C158.805 123.293 158.774 123.369 158.766 123.45C158.758 123.53 158.773 123.612 158.81 123.685C158.846 123.758 158.903 123.821 158.973 123.866C159.044 123.912 159.126 123.937 159.21 123.941L191.788 125.031C191.96 125.036 192.123 125.101 192.25 125.215C192.376 125.328 192.458 125.481 192.479 125.647C192.63 126.836 192.252 127.44 191.344 127.46C180.613 127.704 170.418 127.816 160.758 127.797C159.792 127.79 158.549 127.665 157.03 127.421C156.691 127.365 156.343 127.423 156.044 127.585C153.177 129.101 150.08 130.142 146.752 130.708C146.654 130.726 146.563 130.771 146.49 130.838C146.416 130.905 146.364 130.991 146.338 131.085C146.312 131.18 146.314 131.28 146.344 131.373C146.374 131.467 146.43 131.55 146.506 131.614C149.794 134.313 152.621 137.625 154.988 141.551C155.152 141.824 155.244 142.132 155.257 142.448C155.27 142.764 155.202 143.078 155.061 143.362C154.919 143.646 154.708 143.892 154.446 144.077C154.184 144.262 153.879 144.381 153.558 144.424C150.974 144.771 148.922 145.281 146.338 145.561C139.802 146.287 132.773 146.682 125.25 146.747C116.729 146.814 110.84 145.773 102.22 145.291C94.99 144.886 83.9727 145.465 79.6328 145.956C71.8343 146.843 64.2395 147.216 56.8487 147.074C51.345 146.978 45.3283 147.624 42.2707 142.448C42.1689 142.277 42.1153 142.083 42.1153 141.885C42.1153 141.687 42.1689 141.492 42.2707 141.32L48.238 131.209C48.2519 131.185 48.2592 131.159 48.2592 131.132C48.2591 131.104 48.2516 131.078 48.2376 131.054C48.2236 131.031 48.2035 131.011 48.1793 130.998C48.1552 130.984 48.1278 130.977 48.0999 130.978C44.4111 131.045 41.1956 128.982 36.9643 126.486C36.7144 126.342 36.4247 126.278 36.1358 126.303C29.8101 126.856 23.7737 126.904 18.0267 126.448C17.7382 126.422 17.4506 126.425 17.1686 126.457C13.7461 126.804 6.66424 127.537 4.33651 125.445C4.17928 125.308 4.0778 125.12 4.05061 124.916C4.02342 124.712 4.07233 124.505 4.18841 124.333C4.30449 124.161 4.47999 124.035 4.68284 123.979C4.88569 123.924 5.10239 123.941 5.29327 124.028C6.14152 124.401 7.69661 124.411 9.95859 124.057C18.441 122.717 25.9667 122.698 33.157 123.276C33.2729 123.288 33.3897 123.264 33.4901 123.206C33.5905 123.148 33.6692 123.061 33.7146 122.956C33.7599 122.851 33.7695 122.734 33.742 122.624C33.7144 122.513 33.6511 122.414 33.5614 122.341C32.6606 121.577 32.3581 120.655 32.654 119.575C34.4984 113.011 38.1479 107.739 42.8921 102.524C46.9886 98.0134 53.5938 90.6752 62.7075 80.5096C62.7943 80.411 62.8476 80.2885 62.86 80.1589C62.8724 80.0294 62.8432 79.8993 62.7764 79.7867C62.0992 78.6622 62.3721 77.8204 63.5951 77.2613C68.6057 74.9866 74.5631 74.0324 79.7117 72.1143C79.7817 72.0888 79.8438 72.0461 79.892 71.9903C79.9401 71.9345 79.9727 71.8675 79.9866 71.7957C80.0005 71.724 79.9952 71.65 79.9713 71.5808C79.9473 71.5117 79.9054 71.4498 79.8498 71.401ZM102.841 63.5841C101.927 64.3038 101.154 64.5865 100.523 64.4323C100.346 64.386 100.189 64.285 100.076 64.1442C99.9623 64.0035 99.8986 63.8306 99.8941 63.6515C99.8897 63.4724 99.9448 63.2967 100.051 63.1508C100.157 63.0048 100.309 62.8965 100.484 62.8419C104.659 61.5889 106.622 58.8997 106.372 54.7743C106.36 54.5738 106.296 54.3792 106.186 54.209C106.075 54.0387 105.922 53.8983 105.741 53.8008C104.715 53.2546 103.712 53.2289 102.733 53.7237C102.455 53.8686 102.226 54.0858 102.072 54.3502C101.099 56.0274 99.5764 57.1133 97.5051 57.6081C97.366 57.6401 97.2209 57.6381 97.0828 57.6022C96.9447 57.5662 96.8179 57.4976 96.7134 57.4022C96.609 57.3068 96.5303 57.1877 96.4843 57.0555C96.4383 56.9233 96.4264 56.782 96.4497 56.6442L97.0908 52.8852C97.1271 52.6694 97.1074 52.4479 97.0333 52.2408C96.9592 52.0338 96.8332 51.8477 96.6667 51.6996L94.4574 49.7526C94.3473 49.654 94.271 49.5249 94.2392 49.3833C94.2074 49.2417 94.2216 49.0946 94.2798 48.9622C94.3521 48.808 94.3981 48.6988 94.4179 48.6345C94.4836 48.4541 94.4809 48.2566 94.4103 48.078C94.3398 47.8994 94.2059 47.7514 94.0332 47.661C92.1197 46.6393 88.3618 45.1742 87.267 43.767C86.5568 42.8481 85.9059 42.44 85.3141 42.5429C85.2624 42.5491 85.2083 42.5689 85.1562 42.6007L80.6389 45.1453C80.4754 45.2374 80.3376 45.3682 80.2378 45.5263C80.138 45.6843 80.0793 45.8647 80.0668 46.0513C79.9879 47.3525 80.1654 47.7188 79.1495 48.9237C78.6695 49.502 78.6695 50.1124 79.1495 50.755C80.4515 52.49 80.3627 54.8996 79.8597 56.7021C79.8273 56.8286 79.7628 56.9447 79.6723 57.0394L77.0782 59.8539C76.9628 59.9799 76.8877 60.1361 76.8619 60.3033C76.8361 60.4705 76.8609 60.6413 76.9332 60.7949C77.0055 60.9486 77.1222 61.0782 77.2689 61.1678C77.4155 61.2575 77.5858 61.3033 77.7588 61.2997L80.2641 61.2322C80.3418 61.2306 80.4189 61.245 80.4906 61.2744C80.5622 61.3039 80.6266 61.3479 80.6797 61.4034C80.7328 61.4589 80.7733 61.5247 80.7985 61.5965C80.8238 61.6683 80.8333 61.7446 80.8263 61.8202C80.7671 62.4371 80.4317 62.9158 79.8202 63.2564C79.6856 63.3318 79.5783 63.4463 79.513 63.5839C79.4478 63.7215 79.4279 63.8755 79.456 64.0246C79.4842 64.1738 79.559 64.3107 79.6701 64.4165C79.7813 64.5223 79.9234 64.5918 80.0767 64.6154L82.4143 65.001C82.5313 65.0201 82.6415 65.0675 82.7349 65.139C82.8283 65.2104 82.9019 65.3036 82.949 65.41C82.9961 65.5164 83.0151 65.6326 83.0044 65.748C82.9937 65.8635 82.9536 65.9745 82.8877 66.0709C82.5063 66.6363 81.8718 66.9351 80.9841 66.9673C80.8164 66.9743 80.6575 67.0426 80.5388 67.1586C80.4201 67.2746 80.3502 67.4299 80.3429 67.5938C80.264 69.4444 81.0794 70.283 82.7891 70.1095C86.3596 69.7432 88.3848 69.4444 88.8648 69.2131C88.9297 69.1815 88.9982 69.1681 89.0621 69.1745L93.1554 69.4733C93.2299 69.4792 93.3018 69.5031 93.3646 69.5427C93.4273 69.5823 93.4788 69.6363 93.5143 69.6998C93.5497 69.7633 93.568 69.8341 93.5673 69.9057C93.5666 69.9774 93.5471 70.0475 93.5105 70.1095C92.6885 71.5617 91.3175 72.0565 89.3975 71.5938C89.3143 71.5746 89.2269 71.583 89.1491 71.6177C89.0713 71.6524 89.0076 71.7115 88.968 71.7856C88.9284 71.8597 88.9152 71.9445 88.9305 72.0267C88.9457 72.1089 88.9886 72.1838 89.0522 72.2396L94.0431 76.6541C94.1448 76.7424 94.2685 76.8031 94.4018 76.8302C94.535 76.8572 94.6732 76.8497 94.8026 76.8083C100.464 74.977 103.443 70.7135 103.739 64.0178C103.741 63.9151 103.713 63.8138 103.659 63.7259C103.605 63.638 103.526 63.567 103.431 63.5215C103.337 63.4759 103.231 63.4576 103.127 63.4687C103.022 63.4798 102.923 63.5198 102.841 63.5841ZM101.253 114.65C101.858 112.343 102.295 110.091 102.565 107.893C103.755 98.1066 104.432 91.7675 104.597 88.8759C104.866 84.2558 105.261 79.504 105.78 74.6204C105.905 73.4187 105.902 71.9697 105.771 70.2733C105.764 70.2067 105.737 70.1433 105.692 70.0922C105.647 70.0411 105.588 70.0049 105.522 69.9888C105.456 69.9727 105.387 69.9776 105.326 70.0028C105.264 70.0279 105.213 70.072 105.179 70.1287C102.963 73.5922 99.9446 76.2846 96.1242 78.2059C95.8251 78.3552 95.4814 78.3929 95.1576 78.312C92.3827 77.6051 89.9893 76.0694 87.9772 73.7047C87.933 73.6489 87.8722 73.6086 87.8031 73.5894C87.7341 73.5701 87.6603 73.5728 87.592 73.5972C87.5236 73.6216 87.4642 73.6664 87.4218 73.7254C87.3795 73.7844 87.3564 73.8546 87.3558 73.9264C87.3854 79.8252 86.8922 84.6157 87.8391 90.2254C88.8123 95.9957 89.4534 99.9347 89.7624 102.042C89.7953 102.299 89.9695 102.569 90.2852 102.852C90.3117 102.875 90.3441 102.89 90.3789 102.897C90.4138 102.903 90.4497 102.9 90.483 102.889C90.5163 102.877 90.5458 102.856 90.5682 102.83C90.5907 102.803 90.6053 102.771 90.6107 102.736L93.3033 86.9868C93.3683 86.6189 93.3481 86.2402 93.2441 85.8783C93.0206 85.1201 92.9942 84.41 93.1652 83.7482C93.1819 83.686 93.182 83.6207 93.1655 83.5585C93.1489 83.4962 93.1164 83.4392 93.0709 83.3928C93.0254 83.3464 92.9684 83.3121 92.9055 83.2934C92.8426 83.2746 92.7758 83.2719 92.7115 83.2855L90.5614 83.7096C90.2678 83.7686 89.9624 83.7284 89.6953 83.5955C89.4282 83.4626 89.2153 83.245 89.0914 82.9782C88.9676 82.7115 88.9402 82.4116 89.0137 82.1277C89.0872 81.8438 89.2573 81.5927 89.4961 81.4156L92.8595 78.9192C93.0883 78.7456 93.376 78.6599 93.6682 78.6782L98.6394 79.0445C98.8988 79.063 99.1518 79.1312 99.3837 79.2454C99.6156 79.3595 99.8219 79.5173 99.9906 79.7096L103.127 83.3144C103.196 83.3905 103.238 83.4858 103.249 83.5869C103.259 83.688 103.236 83.7896 103.183 83.8772C103.131 83.9648 103.051 84.034 102.956 84.0749C102.861 84.1157 102.755 84.1262 102.654 84.1048L100.375 83.6518C99.9883 83.5752 99.5878 83.5964 99.2115 83.7135C98.8352 83.8306 98.4954 84.0397 98.2241 84.3212C97.9529 84.6026 97.7591 84.9472 97.6609 85.3224C97.5627 85.6977 97.5634 86.0913 97.6629 86.4663C100.168 95.7194 101.253 105.101 100.918 114.611C100.913 114.655 100.925 114.698 100.953 114.733C100.981 114.767 101.021 114.789 101.066 114.794C101.11 114.799 101.155 114.787 101.19 114.76C101.225 114.733 101.248 114.693 101.253 114.65ZM80.1753 88.635C80.1358 88.5836 80.0372 88.5418 79.8794 88.5097C79.8322 88.5043 79.7844 88.5151 79.7443 88.54C79.7042 88.565 79.6741 88.6026 79.6591 88.6467C79.644 88.6908 79.6449 88.7387 79.6617 88.7822C79.6785 88.8257 79.7101 88.8622 79.7512 88.8856C79.7577 88.8856 79.8728 88.8663 80.0964 88.8278C80.1171 88.826 80.1367 88.8186 80.1532 88.8063C80.1697 88.7941 80.1826 88.7774 80.1906 88.7579C80.1986 88.7384 80.2013 88.7168 80.1986 88.6953C80.196 88.6737 80.1879 88.6529 80.1753 88.635ZM112.29 98.4568C112.422 98.5018 112.918 97.5829 113.779 95.7001C114.24 94.7041 114.266 94.1387 113.858 94.0037C113.451 93.8624 113.115 94.325 112.852 95.3917C112.346 97.3901 112.159 98.4118 112.29 98.4568ZM129.147 98.0423C129.008 98.158 128.946 98.3283 128.959 98.5532C128.961 98.5961 128.976 98.6374 129.003 98.6717C129.029 98.7061 129.066 98.7317 129.107 98.7453C129.149 98.7589 129.194 98.7597 129.236 98.7478C129.278 98.7359 129.316 98.7117 129.344 98.6785C129.462 98.5371 129.528 98.4375 129.541 98.3797C129.549 98.3208 129.542 98.2588 129.521 98.2016C129.5 98.1444 129.466 98.0945 129.424 98.0583C129.382 98.0222 129.333 98.0013 129.283 97.9985C129.234 97.9957 129.186 98.0109 129.147 98.0423ZM78.2421 125.57L86.1919 127.604C86.4347 127.667 86.6912 127.65 86.9218 127.556C88.0528 127.113 88.7564 126.749 89.0326 126.467C89.1801 126.317 89.2757 126.127 89.3131 125.91C89.3504 125.692 89.3285 125.453 89.2489 125.209C89.1692 124.964 89.0337 124.72 88.8516 124.493C88.6695 124.266 88.4452 124.061 88.1941 123.893C86.3661 122.66 84.0286 121.358 81.1814 119.99C80.9457 119.876 80.7461 119.702 80.6036 119.487C80.4612 119.271 80.3813 119.022 80.3726 118.765L80.3627 118.284C80.3569 118.13 80.3936 117.978 80.4688 117.842C80.5439 117.707 80.6548 117.595 80.7899 117.516C80.925 117.437 81.0794 117.395 81.2367 117.394C81.3941 117.394 81.5487 117.435 81.6844 117.512L91.4786 123.035C91.6706 123.145 91.889 123.203 92.1113 123.202C92.3337 123.202 92.5519 123.144 92.7437 123.034C92.9355 122.924 93.0939 122.766 93.2027 122.577C93.3114 122.387 93.3665 122.173 93.3625 121.956C93.3329 119.893 91.232 117.84 89.0424 116.693C86.2741 115.247 84.285 113.108 83.0751 110.274C82.3189 108.513 81.5397 107.247 80.7375 106.476C80.0668 105.834 78.0941 103.485 74.8195 99.4303C74.68 99.254 74.4901 99.1226 74.2738 99.0526C74.0575 98.9825 73.8244 98.9771 73.604 99.0369C73.3836 99.0967 73.1857 99.219 73.0351 99.3885C72.8846 99.558 72.7882 99.7671 72.7581 99.9894C72.6003 101.194 73.8036 102.659 74.2869 103.45C76.2859 106.765 78.5972 109.226 81.2208 110.833C81.325 110.896 81.4063 110.989 81.453 111.1C81.4998 111.21 81.5097 111.332 81.4813 111.449C81.4529 111.565 81.3876 111.67 81.2948 111.748C81.202 111.826 81.0863 111.873 80.9643 111.883L75.6974 112.375C75.1546 112.426 74.6306 112.619 74.1784 112.934L72.0381 114.418C71.5939 114.727 71.0658 114.901 70.5192 114.92L64.8083 115.074C64.6218 115.08 64.4395 115.13 64.2766 115.219C64.1136 115.307 63.9747 115.433 63.8713 115.585C61.8691 118.573 59.5216 122.794 60.5967 125.792C60.6449 125.929 60.7383 126.047 60.8618 126.125C60.9852 126.204 61.1316 126.239 61.2773 126.226L62.4609 126.11C62.6085 126.097 62.7561 126.128 62.885 126.197C67.0078 128.395 73.3894 132.134 78.7747 131.46C81.7206 131.093 83.9431 130.811 85.4423 130.611C85.5551 130.597 85.6597 130.546 85.7396 130.467C85.8195 130.388 85.8702 130.285 85.8838 130.174C85.8973 130.064 85.873 129.952 85.8145 129.857C85.756 129.762 85.6667 129.688 85.5607 129.648L77.9067 126.544C77.7746 126.5 77.6656 126.407 77.6036 126.285C77.5417 126.163 77.5318 126.022 77.5763 125.893C77.6208 125.764 77.7159 125.658 77.8408 125.597C77.9656 125.537 78.11 125.527 78.2421 125.57ZM113.76 113.705C114.746 113.519 115.752 113.204 116.778 112.761C117.098 112.62 117.391 112.431 117.646 112.202C120.572 109.541 122.762 106.364 124.215 102.669C124.246 102.59 124.253 102.504 124.236 102.421C124.219 102.338 124.178 102.262 124.118 102.201C124.058 102.141 123.981 102.098 123.897 102.078C123.813 102.059 123.725 102.063 123.643 102.091C123.294 102.206 122.946 102.466 122.597 102.871C120.408 105.358 118.537 108.105 116.985 111.112C116.709 111.633 115.568 112.272 113.563 113.03C113.486 113.067 113.425 113.129 113.39 113.206C113.356 113.282 113.35 113.368 113.373 113.448C113.397 113.529 113.448 113.598 113.519 113.645C113.589 113.692 113.675 113.713 113.76 113.705ZM67.8166 104.982C67.6793 104.947 67.5332 104.965 67.4096 105.033C67.286 105.102 67.1949 105.215 67.1557 105.348C66.5179 107.533 65.3047 109.217 63.5162 110.399C63.3947 110.478 63.2996 110.59 63.2422 110.721C63.1848 110.852 63.1675 110.997 63.1925 111.138C63.2174 111.279 63.2836 111.411 63.383 111.517C63.4823 111.624 63.6108 111.701 63.753 111.739C65.6664 112.234 67.8791 112.243 70.3909 111.768C70.5506 111.74 70.6968 111.663 70.8083 111.547C70.9198 111.432 70.9906 111.285 71.0105 111.128C71.0303 110.971 70.9981 110.811 70.9186 110.673C70.8391 110.535 70.7163 110.426 70.5685 110.361C68.5169 109.435 67.7574 107.887 68.29 105.715C68.3292 105.563 68.3057 105.402 68.2245 105.266C68.1433 105.131 68.011 105.033 67.8561 104.992L67.8166 104.982ZM139.217 110.852L146.999 109.975L146.979 109.811C146.951 109.617 146.531 109.475 145.81 109.418C145.089 109.36 144.127 109.39 143.133 109.503L142.876 109.532C141.883 109.644 140.94 109.828 140.25 110.045C139.561 110.261 139.183 110.493 139.197 110.688L139.217 110.852ZM48.958 112.047L56.2864 111.026C56.3161 111.021 56.3428 111.005 56.3611 110.982C56.3794 110.959 56.388 110.93 56.3851 110.9L56.3752 110.862C56.3549 110.713 56.241 110.58 56.04 110.468C55.8391 110.356 55.555 110.268 55.2041 110.21C54.8532 110.152 54.4423 110.124 53.995 110.129C53.5478 110.133 53.0729 110.169 52.5976 110.235L52.2721 110.283C51.7973 110.349 51.3314 110.444 50.901 110.561C50.4705 110.679 50.0839 110.817 49.7633 110.969C49.4427 111.12 49.1943 111.281 49.0324 111.443C48.8706 111.605 48.7984 111.764 48.8199 111.912L48.8298 111.951C48.8347 111.98 48.8506 112.006 48.8744 112.024C48.8982 112.042 48.9281 112.05 48.958 112.047ZM112.852 129.811C112.789 129.807 112.725 129.823 112.671 129.857C112.617 129.891 112.576 129.941 112.554 129.999C112.532 130.058 112.53 130.122 112.548 130.182C112.566 130.242 112.604 130.295 112.655 130.332C116.383 132.761 123.416 131.527 127.647 130.698C129.502 130.338 130.781 129.464 131.484 128.076C132.145 126.756 133.23 126.843 134.305 127.084C134.456 127.117 134.613 127.12 134.765 127.091C134.917 127.062 135.061 127.003 135.187 126.916C135.314 126.83 135.42 126.719 135.499 126.59C135.578 126.461 135.628 126.317 135.646 126.168C136.028 123.141 135.383 120.321 133.713 117.705C132.681 116.08 131.632 115.819 130.567 116.925C130.462 117.031 130.325 117.101 130.176 117.122C130.027 117.143 129.877 117.114 129.748 117.04L122.42 112.905C122.238 112.801 122.036 112.736 121.827 112.712C121.617 112.689 121.405 112.708 121.203 112.768C121.002 112.829 120.814 112.93 120.654 113.065C120.493 113.199 120.362 113.365 120.27 113.551C119.362 115.376 117.745 116.822 115.417 117.888C112.241 119.325 109.696 121.416 108.226 123.537C108.168 123.618 108.136 123.714 108.137 123.814C108.138 123.913 108.171 124.009 108.231 124.089C108.291 124.169 108.375 124.229 108.472 124.259C108.568 124.29 108.672 124.29 108.769 124.26L120.556 120.78C120.635 120.756 120.721 120.757 120.8 120.783C120.879 120.808 120.948 120.857 120.998 120.923C121.047 120.988 121.075 121.067 121.077 121.148C121.079 121.23 121.056 121.31 121.009 121.378C119.421 123.662 111.748 125.917 109.075 126.621C108.916 126.663 108.77 126.744 108.651 126.854C108.531 126.964 108.442 127.1 108.393 127.249C108.343 127.399 108.334 127.556 108.367 127.706C108.401 127.856 108.474 127.994 108.582 128.105C109.597 129.146 111.521 127.961 112.813 128.414C113.218 128.558 113.654 128.582 114.066 128.481C116.433 127.903 118.846 127.524 121.305 127.344C122.048 127.286 122.558 127.399 122.834 127.681C122.886 127.736 122.923 127.802 122.943 127.874C122.963 127.947 122.965 128.022 122.949 128.095C122.932 128.168 122.898 128.236 122.849 128.293C122.8 128.35 122.737 128.395 122.666 128.423C119.26 129.734 115.989 130.197 112.852 129.811ZM90.5346 113.107C90.4937 113.159 90.4929 113.241 90.5323 113.347C90.5717 113.453 90.6505 113.581 90.7642 113.725C90.8779 113.868 91.0242 114.024 91.1949 114.183C91.3656 114.343 91.5572 114.502 91.7589 114.653C92.1662 114.957 92.5897 115.207 92.9361 115.348C93.2825 115.488 93.5236 115.508 93.6062 115.402C93.6471 115.35 93.6479 115.268 93.6085 115.162C93.5691 115.056 93.4903 114.928 93.3766 114.784C93.2629 114.641 93.1166 114.485 92.9459 114.326C92.7752 114.167 92.5836 114.007 92.3819 113.856C91.9746 113.552 91.5512 113.302 91.2047 113.162C90.8583 113.021 90.6173 113.002 90.5346 113.107ZM139.542 128.019C140.14 127.646 140.578 127.074 140.775 126.409C142.067 122.361 138.053 116.394 134.946 114.37C134.085 113.811 132.572 113.458 130.409 113.31C130.349 113.306 130.288 113.318 130.235 113.347C130.182 113.375 130.139 113.417 130.11 113.469C130.08 113.521 130.067 113.58 130.071 113.639C130.075 113.698 130.097 113.754 130.133 113.802L130.656 114.515C130.674 114.539 130.697 114.56 130.722 114.575C130.748 114.59 130.776 114.599 130.804 114.602C133.24 114.929 135.064 115.527 136.179 118.091C137.777 121.779 138.263 125.143 137.639 128.182C137.62 128.28 137.63 128.381 137.669 128.473C137.707 128.564 137.772 128.643 137.856 128.699C137.94 128.756 138.038 128.787 138.14 128.789C138.241 128.792 138.342 128.765 138.428 128.713L139.542 128.019ZM62.0959 114.139C58.1604 114.515 53.939 121.175 53.7023 124.635C53.6581 125.307 53.8788 126.015 54.3376 126.674C54.7965 127.332 55.4735 127.914 56.2864 128.346C56.4706 128.443 57.2761 128.391 58.703 128.192C58.7818 128.182 58.8575 128.156 58.9256 128.116C58.9938 128.076 59.0527 128.022 59.0989 127.959C59.1451 127.896 59.1776 127.824 59.1943 127.748C59.211 127.672 59.2117 127.594 59.1961 127.517L58.5747 124.558C58.5233 124.314 58.5473 124.062 58.6437 123.835L62.5201 114.708C62.5477 114.641 62.5576 114.569 62.5489 114.498C62.5403 114.427 62.5133 114.359 62.4705 114.302C62.4278 114.244 62.3707 114.199 62.3051 114.171C62.2394 114.142 62.1673 114.131 62.0959 114.139ZM138.842 132.105L146.092 138.496C146.19 138.58 146.258 138.693 146.286 138.817C146.315 138.942 146.303 139.072 146.252 139.19C146.2 139.307 146.113 139.406 146.001 139.471C145.889 139.537 145.758 139.567 145.628 139.556L141.949 139.286C141.775 139.274 141.607 139.217 141.462 139.121C141.317 139.024 141.199 138.892 141.121 138.737C139.503 135.44 137.027 132.555 133.693 130.081C133.572 129.99 133.432 129.925 133.283 129.89C133.134 129.856 132.979 129.852 132.829 129.879C132.678 129.906 132.535 129.964 132.409 130.049C132.283 130.133 132.176 130.243 132.096 130.37C131.494 131.334 131.119 132.105 130.044 132.703C127.611 134.065 125.109 134.727 122.538 134.689C118.566 134.631 115.121 134.387 112.201 133.956C111.32 133.821 109.042 132.668 105.366 130.496C104.432 129.943 103.972 128.976 103.985 127.595C103.985 127.5 103.948 127.408 103.88 127.338C103.812 127.269 103.72 127.226 103.62 127.219L97.2585 126.756C97.1068 126.745 96.9549 126.775 96.8191 126.842C96.6833 126.909 96.5688 127.011 96.4877 127.136C96.4066 127.262 96.3621 127.407 96.3589 127.556C96.3556 127.704 96.3939 127.851 96.4694 127.98C98.0805 130.743 98.452 134.117 97.584 138.101C97.5726 138.15 97.5735 138.202 97.5867 138.251C97.5999 138.3 97.6249 138.345 97.6597 138.383C97.6944 138.421 97.7379 138.45 97.7865 138.468C97.8351 138.486 97.8874 138.492 97.9391 138.486C99.5764 138.313 100.596 138.313 100.997 138.486C101.054 138.511 101.102 138.551 101.135 138.602C101.169 138.653 101.186 138.713 101.185 138.774C101.184 138.835 101.165 138.894 101.129 138.944C101.094 138.994 101.045 139.032 100.987 139.055C99.241 139.681 94.7631 139.219 92.317 139.373C78.732 140.221 70.8052 140.665 68.5366 140.703C61.0077 140.851 55.2771 140.69 51.3449 140.221C50.3586 140.105 49.5695 139.955 48.9777 139.768C48.8901 139.742 48.8121 139.692 48.753 139.624C48.6939 139.556 48.6564 139.472 48.6449 139.383C48.6335 139.295 48.6485 139.205 48.6883 139.124C48.7282 139.043 48.791 138.976 48.8692 138.93C52.1241 136.944 57.7067 138.101 61.1392 138.072C81.7337 137.911 93.3033 137.898 95.8481 138.033C95.9409 138.038 96.0336 138.023 96.1199 137.99C96.2062 137.956 96.284 137.905 96.3478 137.84C96.4116 137.775 96.4599 137.697 96.4894 137.613C96.519 137.528 96.529 137.438 96.5188 137.349C96.2689 135.01 95.5489 132.674 94.3587 130.342C93.5828 128.812 92.557 128.607 91.2814 129.725C89.6572 131.145 88.1185 132.263 86.6653 133.079C86.3386 133.264 85.9858 133.398 85.6198 133.474C77.7424 135.209 70.5652 134.023 64.0883 129.917C63.7648 129.714 63.3882 129.605 63.0033 129.605C62.6185 129.605 62.2418 129.714 61.9183 129.917C58.8673 131.852 56.0892 132.186 53.5839 130.92C53.5075 130.881 53.4237 130.859 53.3379 130.854C53.2522 130.849 53.1663 130.861 53.0856 130.89C53.005 130.919 52.9314 130.964 52.8695 131.022C52.8075 131.081 52.7586 131.151 52.7258 131.228C52.1537 132.597 48.0407 136.732 48.2084 139.045C48.2199 139.207 48.1852 139.368 48.1084 139.509C48.0316 139.651 47.9158 139.767 47.7744 139.845L46.5514 140.539C46.4039 140.622 46.2831 140.743 46.2028 140.89C46.1225 141.036 46.0859 141.202 46.0972 141.368C46.1086 141.533 46.1673 141.693 46.2668 141.827C46.3662 141.962 46.5025 142.067 46.6599 142.13C47.2056 142.348 47.758 142.464 48.3169 142.477C58.5287 142.644 64.9694 142.647 67.6391 142.486C67.672 142.486 73.5504 142.155 85.2746 141.493C94.4737 140.973 103.476 141.079 112.28 141.812C118.836 142.364 123.34 142.57 125.793 142.428C133.674 141.966 141.831 142.168 149.652 140.915C149.783 140.895 149.906 140.84 150.009 140.758C150.111 140.676 150.189 140.568 150.236 140.447C150.282 140.325 150.294 140.194 150.271 140.066C150.248 139.939 150.191 139.819 150.106 139.72L143.29 131.884C143.152 131.727 142.98 131.603 142.787 131.519C142.594 131.436 142.385 131.396 142.176 131.402L139.079 131.489C139.007 131.491 138.937 131.514 138.878 131.555C138.82 131.597 138.775 131.654 138.75 131.72C138.724 131.786 138.72 131.858 138.736 131.926C138.753 131.995 138.789 132.057 138.842 132.105ZM109.558 130.226C109.124 129.95 108.877 129.815 108.818 129.821C108.743 129.827 108.672 129.854 108.614 129.9C108.555 129.946 108.512 130.008 108.489 130.079C108.466 130.149 108.464 130.225 108.484 130.298C108.504 130.37 108.545 130.436 108.601 130.486C108.628 130.512 108.9 130.557 109.42 130.621C109.47 130.629 109.522 130.619 109.565 130.593C109.609 130.567 109.642 130.527 109.658 130.48C109.675 130.433 109.674 130.382 109.656 130.335C109.637 130.289 109.603 130.25 109.558 130.226Z" fill="black"/>
<path d="M102.841 63.5841C102.923 63.5198 103.022 63.4798 103.127 63.4687C103.231 63.4576 103.337 63.4759 103.431 63.5215C103.526 63.567 103.605 63.638 103.659 63.7259C103.714 63.8138 103.741 63.9151 103.739 64.0178C103.443 70.7135 100.464 74.977 94.8026 76.8083C94.6732 76.8497 94.5351 76.8572 94.4018 76.8302C94.2686 76.8031 94.1449 76.7424 94.0431 76.6541L89.0523 72.2396C88.9886 72.1838 88.9458 72.1089 88.9305 72.0267C88.9152 71.9445 88.9285 71.8597 88.9681 71.7856C89.0077 71.7115 89.0714 71.6524 89.1491 71.6177C89.2269 71.583 89.3143 71.5746 89.3975 71.5938C91.3176 72.0565 92.6886 71.5617 93.5105 70.1095C93.5471 70.0475 93.5667 69.9774 93.5673 69.9057C93.568 69.8341 93.5497 69.7633 93.5143 69.6998C93.4789 69.6363 93.4274 69.5823 93.3646 69.5427C93.3019 69.5031 93.23 69.4792 93.1554 69.4733L89.0622 69.1745C88.9982 69.1681 88.9297 69.1815 88.8649 69.2131C88.3849 69.4444 86.3596 69.7432 82.7891 70.1095C81.0795 70.283 80.2641 69.4444 80.343 67.5938C80.3502 67.4299 80.4201 67.2746 80.5388 67.1586C80.6575 67.0426 80.8164 66.9743 80.9841 66.9673C81.8718 66.9351 82.5064 66.6363 82.8877 66.0709C82.9536 65.9745 82.9938 65.8635 83.0045 65.748C83.0152 65.6326 82.9961 65.5164 82.949 65.41C82.9019 65.3036 82.8283 65.2104 82.7349 65.139C82.6415 65.0675 82.5313 65.0201 82.4143 65.001L80.0767 64.6154C79.9234 64.5918 79.7814 64.5223 79.6702 64.4165C79.559 64.3107 79.4842 64.1738 79.4561 64.0246C79.4279 63.8755 79.4478 63.7215 79.5131 63.5839C79.5783 63.4463 79.6857 63.3318 79.8203 63.2564C80.4318 62.9158 80.7672 62.4371 80.8263 61.8202C80.8333 61.7446 80.8238 61.6683 80.7986 61.5965C80.7733 61.5247 80.7328 61.4589 80.6798 61.4034C80.6267 61.3479 80.5622 61.3039 80.4906 61.2744C80.419 61.245 80.3418 61.2306 80.2641 61.2322L77.7588 61.2997C77.5858 61.3033 77.4156 61.2575 77.2689 61.1678C77.1222 61.0782 77.0056 60.9486 76.9333 60.795C76.861 60.6414 76.8362 60.4705 76.8619 60.3033C76.8877 60.1361 76.9629 59.9799 77.0782 59.8539L79.6723 57.0394C79.7628 56.9447 79.8273 56.8286 79.8597 56.7021C80.3627 54.8996 80.4515 52.49 79.1496 50.755C78.6696 50.1124 78.6696 49.502 79.1496 48.9237C80.1655 47.7188 79.9879 47.3525 80.0669 46.0513C80.0793 45.8647 80.138 45.6843 80.2378 45.5263C80.3376 45.3682 80.4754 45.2374 80.6389 45.1453L85.1563 42.6007C85.2084 42.5689 85.2624 42.5491 85.3141 42.5429C85.9059 42.4401 86.5569 42.8481 87.267 43.767C88.3619 45.1742 92.1198 46.6393 94.0332 47.661C94.206 47.7514 94.3398 47.8994 94.4104 48.078C94.481 48.2566 94.4836 48.4541 94.4179 48.6345C94.3982 48.6988 94.3521 48.808 94.2798 48.9622C94.2216 49.0946 94.2074 49.2417 94.2392 49.3833C94.271 49.5249 94.3473 49.654 94.4574 49.7526L96.6668 51.6996C96.8332 51.8477 96.9593 52.0338 97.0333 52.2408C97.1074 52.4479 97.1272 52.6694 97.0909 52.8852L96.4497 56.6442C96.4265 56.782 96.4384 56.9233 96.4844 57.0555C96.5304 57.1877 96.6091 57.3068 96.7135 57.4022C96.8179 57.4976 96.9448 57.5662 97.0829 57.6022C97.221 57.6381 97.366 57.6401 97.5051 57.6081C99.5764 57.1133 101.099 56.0274 102.072 54.3502C102.226 54.0858 102.455 53.8686 102.733 53.7237C103.712 53.2289 104.715 53.2546 105.741 53.8008C105.922 53.8983 106.075 54.0387 106.186 54.209C106.296 54.3792 106.36 54.5738 106.372 54.7743C106.622 58.8997 104.659 61.5889 100.484 62.8419C100.309 62.8965 100.157 63.0048 100.051 63.1508C99.9448 63.2967 99.8897 63.4724 99.8942 63.6515C99.8986 63.8306 99.9623 64.0035 100.076 64.1442C100.189 64.285 100.346 64.386 100.523 64.4323C101.155 64.5865 101.927 64.3038 102.841 63.5841ZM89.3877 52.5189C88.066 51.3558 86.238 50.7197 83.9037 50.6104C83.6916 50.598 83.4822 50.662 83.3152 50.7903C83.1481 50.9186 83.035 51.1023 82.9974 51.3066C82.9597 51.511 83 51.7217 83.1107 51.899C83.2213 52.0762 83.3947 52.2076 83.5979 52.2683C84.8078 52.6474 85.5837 53.0105 85.9256 53.3575C86.1594 53.5982 86.4545 53.7747 86.7816 53.8694C87.1086 53.9641 87.4563 53.9737 87.7898 53.8972L89.1016 53.6081C89.2166 53.5811 89.322 53.5239 89.4063 53.4428C89.4906 53.3617 89.5508 53.2596 89.5802 53.1476C89.6096 53.0356 89.6072 52.9179 89.5733 52.8071C89.5393 52.6964 89.4752 52.5967 89.3877 52.5189ZM85.3355 55.506C85.2038 55.5981 85.0949 55.7185 85.0148 55.8603C84.9347 56.0022 84.8851 56.1626 84.8688 56.3325C84.8525 56.5025 84.8698 56.6785 84.9197 56.8507C84.9697 57.0229 85.0512 57.1878 85.1598 57.336C85.2684 57.4842 85.4019 57.6128 85.5526 57.7145C85.7033 57.8162 85.8683 57.8889 86.0382 57.9286C86.208 57.9683 86.3795 57.9741 86.5426 57.9457C86.7058 57.9173 86.8576 57.8553 86.9892 57.7632C87.1209 57.6711 87.2298 57.5507 87.3099 57.4089C87.39 57.2671 87.4396 57.1066 87.4559 56.9367C87.4723 56.7667 87.4549 56.5907 87.405 56.4185C87.355 56.2463 87.2735 56.0814 87.1649 55.9332C87.0563 55.785 86.9228 55.6564 86.7721 55.5547C86.6214 55.453 86.4564 55.3802 86.2865 55.3406C86.1167 55.3009 85.9453 55.2951 85.7821 55.3235C85.6189 55.3519 85.4671 55.4139 85.3355 55.506ZM104.327 55.6294C104.192 55.4765 103.961 55.4155 103.685 55.4598C103.409 55.504 103.11 55.65 102.855 55.8654C102.599 56.0809 102.408 56.3483 102.323 56.6087C102.238 56.8692 102.266 57.1014 102.401 57.2543C102.536 57.4071 102.767 57.4682 103.043 57.4239C103.319 57.3796 103.618 57.2337 103.873 57.0182C104.128 56.8028 104.32 56.5354 104.405 56.2749C104.49 56.0145 104.462 55.7822 104.327 55.6294Z" fill="white"/>
<path d="M89.3876 52.5189C89.4751 52.5967 89.5393 52.6963 89.5732 52.8071C89.6071 52.9179 89.6095 53.0356 89.5801 53.1476C89.5507 53.2596 89.4906 53.3617 89.4063 53.4428C89.3219 53.5239 89.2166 53.5811 89.1015 53.6081L87.7897 53.8972C87.4562 53.9737 87.1086 53.9641 86.7815 53.8694C86.4544 53.7747 86.1593 53.5982 85.9256 53.3574C85.5836 53.0105 84.8077 52.6474 83.5979 52.2683C83.3947 52.2076 83.2213 52.0762 83.1106 51.899C82.9999 51.7217 82.9596 51.511 82.9973 51.3066C83.035 51.1023 83.148 50.9186 83.3151 50.7903C83.4821 50.6619 83.6915 50.598 83.9036 50.6104C86.2379 50.7197 88.0659 51.3558 89.3876 52.5189Z" fill="black"/>
<path d="M87.1648 55.9333C86.7082 55.31 85.8892 55.1187 85.3355 55.5061C84.7819 55.8934 84.7032 56.7127 85.1598 57.336C85.6165 57.9593 86.4355 58.1505 86.9891 57.7632C87.5428 57.3758 87.6214 56.5565 87.1648 55.9333Z" fill="black"/>
<path d="M103.873 57.0182C104.405 56.5695 104.608 55.9477 104.327 55.6294C104.046 55.311 103.387 55.4167 102.855 55.8654C102.323 56.3141 102.119 56.9359 102.401 57.2543C102.682 57.5726 103.341 57.4669 103.873 57.0182Z" fill="black"/>
<path d="M101.253 114.65C101.248 114.693 101.225 114.733 101.19 114.76C101.155 114.787 101.11 114.799 101.066 114.794C101.021 114.789 100.981 114.767 100.953 114.733C100.925 114.698 100.913 114.655 100.918 114.611C101.253 105.101 100.168 95.7194 97.6629 86.4663C97.5634 86.0913 97.5627 85.6977 97.6609 85.3225C97.759 84.9472 97.9528 84.6027 98.2241 84.3212C98.4953 84.0397 98.8351 83.8306 99.2114 83.7135C99.5878 83.5964 99.9883 83.5752 100.375 83.6518L102.654 84.1048C102.755 84.1262 102.861 84.1158 102.956 84.0749C103.051 84.034 103.131 83.9648 103.183 83.8772C103.236 83.7896 103.259 83.688 103.249 83.5869C103.238 83.4859 103.196 83.3905 103.127 83.3145L99.9906 79.7096C99.8219 79.5173 99.6156 79.3595 99.3837 79.2454C99.1518 79.1313 98.8988 79.063 98.6394 79.0445L93.6682 78.6783C93.3759 78.6599 93.0883 78.7456 92.8594 78.9192L89.4961 81.4156C89.2573 81.5927 89.0872 81.8438 89.0137 82.1277C88.9402 82.4116 88.9676 82.7116 89.0914 82.9783C89.2153 83.245 89.4282 83.4626 89.6953 83.5955C89.9624 83.7284 90.2678 83.7687 90.5613 83.7096L92.7115 83.2855C92.7758 83.2719 92.8426 83.2746 92.9055 83.2934C92.9684 83.3122 93.0253 83.3464 93.0709 83.3928C93.1164 83.4392 93.1489 83.4963 93.1654 83.5585C93.182 83.6207 93.1819 83.686 93.1652 83.7482C92.9942 84.4101 93.0205 85.1201 93.2441 85.8783C93.3481 86.2402 93.3683 86.6189 93.3033 86.9868L90.6106 102.736C90.6053 102.771 90.5907 102.803 90.5682 102.83C90.5457 102.856 90.5163 102.877 90.483 102.889C90.4497 102.9 90.4137 102.903 90.3789 102.897C90.3441 102.89 90.3117 102.875 90.2851 102.852C89.9695 102.569 89.7953 102.299 89.7624 102.042C89.4534 99.9348 88.8122 95.9957 87.8391 90.2254C86.8922 84.6157 87.3854 79.8253 87.3558 73.9264C87.3564 73.8547 87.3795 73.7844 87.4218 73.7254C87.4641 73.6664 87.5236 73.6216 87.5919 73.5972C87.6603 73.5729 87.7341 73.5701 87.8031 73.5894C87.8721 73.6086 87.933 73.6489 87.9772 73.7047C89.9893 76.0694 92.3827 77.6051 95.1576 78.312C95.4814 78.3929 95.8251 78.3552 96.1242 78.206C99.9446 76.2847 102.963 73.5923 105.179 70.1288C105.213 70.072 105.264 70.0279 105.326 70.0028C105.387 69.9777 105.456 69.9728 105.522 69.9888C105.588 70.0049 105.647 70.0411 105.692 70.0922C105.736 70.1433 105.764 70.2067 105.77 70.2733C105.902 71.9697 105.905 73.4188 105.78 74.6204C105.261 79.504 104.866 84.2558 104.597 88.876C104.432 91.7676 103.755 98.1066 102.565 107.893C102.295 110.091 101.858 112.343 101.253 114.65Z" fill="white"/>
<path d="M80.0963 88.8277C79.8728 88.8663 79.7577 88.8856 79.7511 88.8856C79.71 88.8621 79.6785 88.8256 79.6617 88.7821C79.6449 88.7386 79.644 88.6908 79.659 88.6467C79.6741 88.6026 79.7041 88.565 79.7443 88.54C79.7844 88.515 79.8321 88.5043 79.8794 88.5096C80.0372 88.5418 80.1358 88.5835 80.1752 88.635C80.1879 88.6529 80.1959 88.6737 80.1986 88.6953C80.2013 88.7168 80.1985 88.7384 80.1905 88.7579C80.1826 88.7774 80.1697 88.7941 80.1531 88.8063C80.1366 88.8186 80.117 88.826 80.0963 88.8277Z" fill="white"/>
<path d="M113.858 94.0037C114.266 94.1386 114.24 94.7041 113.779 95.7001C112.918 97.5829 112.422 98.5017 112.29 98.4568C112.159 98.4118 112.346 97.3901 112.852 95.3917C113.115 94.325 113.451 93.8623 113.858 94.0037Z" fill="white"/>
<path d="M129.147 98.0423C129.186 98.0109 129.234 97.9956 129.283 97.9985C129.333 98.0013 129.382 98.0221 129.424 98.0583C129.466 98.0945 129.5 98.1443 129.521 98.2016C129.542 98.2588 129.549 98.3208 129.541 98.3797C129.528 98.4375 129.462 98.5371 129.344 98.6785C129.316 98.7117 129.278 98.7359 129.236 98.7478C129.194 98.7597 129.149 98.7588 129.107 98.7453C129.066 98.7317 129.029 98.706 129.003 98.6717C128.976 98.6374 128.961 98.5961 128.959 98.5532C128.946 98.3283 129.008 98.158 129.147 98.0423Z" fill="white"/>
<path d="M78.2421 125.57C78.11 125.527 77.9656 125.537 77.8408 125.597C77.7159 125.658 77.6208 125.764 77.5763 125.893C77.5319 126.022 77.5417 126.163 77.6037 126.285C77.6656 126.407 77.7747 126.5 77.9068 126.544L85.5607 129.648C85.6667 129.688 85.756 129.762 85.8145 129.857C85.873 129.952 85.8973 130.064 85.8838 130.174C85.8702 130.285 85.8195 130.388 85.7396 130.467C85.6597 130.546 85.5551 130.597 85.4423 130.611C83.9431 130.811 81.7206 131.093 78.7747 131.46C73.3894 132.134 67.0079 128.395 62.885 126.197C62.7561 126.128 62.6085 126.097 62.4609 126.11L61.2773 126.226C61.1316 126.239 60.9853 126.204 60.8618 126.125C60.7383 126.047 60.6449 125.929 60.5967 125.792C59.5216 122.794 61.8691 118.573 63.8713 115.585C63.9747 115.433 64.1137 115.307 64.2766 115.219C64.4396 115.13 64.6218 115.08 64.8083 115.074L70.5192 114.92C71.0658 114.901 71.5939 114.727 72.0381 114.418L74.1784 112.934C74.6307 112.619 75.1547 112.426 75.6974 112.375L80.9644 111.883C81.0864 111.873 81.202 111.826 81.2948 111.748C81.3876 111.67 81.4529 111.565 81.4813 111.449C81.5097 111.332 81.4998 111.21 81.4531 111.1C81.4063 110.989 81.325 110.896 81.2208 110.833C78.5972 109.226 76.2859 106.765 74.287 103.45C73.8037 102.659 72.6004 101.194 72.7582 99.9893C72.7883 99.7671 72.8846 99.558 73.0352 99.3885C73.1857 99.219 73.3836 99.0967 73.604 99.0369C73.8245 98.9771 74.0575 98.9825 74.2738 99.0525C74.4901 99.1226 74.68 99.254 74.8196 99.4303C78.0942 103.485 80.0668 105.834 80.7375 106.476C81.5397 107.247 82.3189 108.513 83.0751 110.274C84.285 113.108 86.2741 115.247 89.0424 116.693C91.232 117.84 93.3329 119.893 93.3625 121.956C93.3666 122.173 93.3114 122.387 93.2027 122.577C93.0939 122.766 92.9355 122.924 92.7437 123.034C92.5519 123.144 92.3337 123.202 92.1114 123.202C91.889 123.203 91.6707 123.145 91.4787 123.035L81.6844 117.512C81.5487 117.435 81.3941 117.394 81.2368 117.394C81.0794 117.395 80.9251 117.437 80.79 117.516C80.6549 117.595 80.544 117.707 80.4688 117.842C80.3936 117.978 80.357 118.13 80.3627 118.284L80.3726 118.765C80.3813 119.022 80.4612 119.271 80.6036 119.487C80.7461 119.702 80.9458 119.876 81.1814 119.99C84.0286 121.358 86.3662 122.659 88.1942 123.893C88.4453 124.061 88.6696 124.266 88.8516 124.493C89.0337 124.72 89.1692 124.964 89.2489 125.209C89.3285 125.453 89.3505 125.692 89.3131 125.91C89.2758 126.127 89.1801 126.317 89.0326 126.467C88.7564 126.749 88.0528 127.113 86.9218 127.556C86.6913 127.65 86.4347 127.667 86.192 127.604L78.2421 125.57Z" fill="white"/>
<path d="M113.76 113.705C113.675 113.713 113.59 113.692 113.519 113.645C113.448 113.598 113.397 113.529 113.373 113.448C113.35 113.368 113.356 113.282 113.39 113.206C113.425 113.129 113.486 113.067 113.563 113.03C115.568 112.272 116.709 111.633 116.985 111.112C118.537 108.105 120.408 105.358 122.597 102.871C122.946 102.466 123.294 102.206 123.643 102.091C123.725 102.063 123.813 102.059 123.897 102.078C123.981 102.098 124.058 102.14 124.118 102.201C124.178 102.262 124.219 102.338 124.236 102.421C124.253 102.504 124.246 102.59 124.215 102.669C122.762 106.364 120.572 109.541 117.646 112.202C117.391 112.431 117.098 112.62 116.778 112.761C115.752 113.204 114.746 113.519 113.76 113.705Z" fill="white"/>
<path d="M67.8166 104.982L67.856 104.992C68.0109 105.033 68.1433 105.131 68.2244 105.266C68.3056 105.402 68.3292 105.563 68.29 105.715C67.7574 107.887 68.5169 109.435 70.5684 110.361C70.7163 110.426 70.839 110.535 70.9185 110.673C70.9981 110.812 71.0303 110.971 71.0104 111.128C70.9906 111.285 70.9197 111.432 70.8083 111.547C70.6968 111.663 70.5505 111.74 70.3909 111.768C67.879 112.243 65.6664 112.234 63.7529 111.739C63.6107 111.701 63.4823 111.624 63.3829 111.517C63.2836 111.411 63.2174 111.279 63.1924 111.138C63.1675 110.997 63.1848 110.852 63.2422 110.721C63.2996 110.59 63.3947 110.478 63.5161 110.399C65.3047 109.217 66.5179 107.533 67.1557 105.348C67.1948 105.215 67.286 105.102 67.4096 105.033C67.5331 104.965 67.6793 104.947 67.8166 104.982Z" fill="white"/>
<path d="M139.217 110.852L139.197 110.688C139.183 110.493 139.561 110.261 140.25 110.045C140.94 109.828 141.883 109.644 142.876 109.532L143.133 109.503C144.127 109.39 145.089 109.36 145.81 109.418C146.531 109.475 146.951 109.617 146.979 109.811L146.999 109.975L139.217 110.852Z" fill="white"/>
<path d="M48.958 112.047C48.9281 112.05 48.8982 112.042 48.8744 112.024C48.8506 112.006 48.8347 111.98 48.8298 111.951L48.8199 111.912C48.7984 111.764 48.8706 111.605 49.0325 111.443C49.1943 111.281 49.4427 111.12 49.7633 110.969C50.0839 110.817 50.4705 110.679 50.901 110.561C51.3314 110.444 51.7973 110.349 52.2721 110.283L52.5976 110.235C53.0729 110.169 53.5478 110.133 53.995 110.129C54.4423 110.124 54.8532 110.152 55.2041 110.21C55.555 110.268 55.8391 110.356 56.0401 110.468C56.241 110.58 56.3549 110.713 56.3752 110.862L56.3851 110.9C56.388 110.93 56.3794 110.959 56.3611 110.982C56.3428 111.005 56.3161 111.021 56.2865 111.026L48.958 112.047Z" fill="white"/>
<path d="M112.852 129.811C115.989 130.197 119.26 129.734 122.666 128.423C122.737 128.395 122.8 128.35 122.849 128.293C122.898 128.236 122.932 128.168 122.949 128.095C122.965 128.022 122.963 127.946 122.943 127.874C122.923 127.802 122.886 127.736 122.834 127.681C122.558 127.398 122.048 127.286 121.305 127.344C118.846 127.524 116.433 127.903 114.066 128.481C113.654 128.582 113.218 128.558 112.813 128.414C111.521 127.961 109.597 129.146 108.582 128.105C108.474 127.993 108.401 127.856 108.367 127.706C108.334 127.556 108.343 127.399 108.393 127.249C108.442 127.1 108.531 126.964 108.651 126.854C108.77 126.744 108.916 126.663 109.075 126.621C111.748 125.917 119.421 123.662 121.009 121.378C121.056 121.31 121.079 121.23 121.077 121.148C121.075 121.067 121.047 120.988 120.998 120.923C120.948 120.857 120.879 120.808 120.8 120.783C120.721 120.757 120.635 120.756 120.556 120.78L108.769 124.259C108.672 124.29 108.568 124.29 108.472 124.259C108.375 124.229 108.291 124.169 108.231 124.089C108.171 124.009 108.138 123.913 108.137 123.814C108.137 123.714 108.168 123.617 108.226 123.537C109.696 121.416 112.241 119.325 115.417 117.888C117.745 116.822 119.362 115.376 120.27 113.551C120.362 113.365 120.493 113.199 120.654 113.065C120.814 112.93 121.002 112.829 121.203 112.768C121.405 112.708 121.617 112.689 121.827 112.712C122.036 112.736 122.238 112.801 122.42 112.905L129.748 117.04C129.877 117.114 130.027 117.143 130.176 117.122C130.325 117.101 130.462 117.031 130.567 116.924C131.632 115.819 132.681 116.079 133.713 117.705C135.383 120.32 136.028 123.141 135.646 126.168C135.628 126.317 135.578 126.461 135.499 126.59C135.42 126.719 135.314 126.83 135.187 126.916C135.061 127.003 134.917 127.062 134.765 127.091C134.613 127.12 134.456 127.117 134.305 127.084C133.23 126.843 132.145 126.756 131.484 128.076C130.781 129.464 129.502 130.338 127.647 130.698C123.416 131.527 116.383 132.761 112.655 130.332C112.604 130.295 112.566 130.242 112.548 130.182C112.53 130.122 112.532 130.058 112.554 129.999C112.576 129.941 112.617 129.891 112.671 129.857C112.725 129.823 112.789 129.807 112.852 129.811Z" fill="white"/>
<path d="M92.3819 113.856C91.5337 113.223 90.7067 112.887 90.5346 113.107C90.3626 113.327 90.9107 114.019 91.7589 114.653C92.607 115.287 93.4341 115.622 93.6061 115.402C93.7782 115.182 93.2301 114.49 92.3819 113.856Z" fill="white"/>
<path d="M137.639 128.182C138.263 125.143 137.777 121.779 136.179 118.091C135.064 115.527 133.24 114.929 130.804 114.602C130.776 114.599 130.748 114.59 130.722 114.575C130.697 114.56 130.674 114.539 130.656 114.515L130.133 113.802C130.097 113.754 130.075 113.698 130.071 113.639C130.067 113.58 130.08 113.521 130.11 113.469C130.139 113.417 130.182 113.375 130.235 113.347C130.288 113.318 130.349 113.306 130.409 113.31C132.572 113.458 134.085 113.811 134.946 114.37C138.053 116.394 142.067 122.361 140.775 126.409C140.578 127.074 140.14 127.646 139.542 128.019L138.428 128.713C138.342 128.765 138.241 128.792 138.14 128.789C138.038 128.787 137.94 128.756 137.856 128.699C137.772 128.643 137.707 128.564 137.669 128.473C137.63 128.381 137.62 128.28 137.639 128.182Z" fill="white"/>
<path d="M62.52 114.708L58.6437 123.835C58.5473 124.062 58.5233 124.314 58.5747 124.558L59.1961 127.517C59.2117 127.594 59.211 127.672 59.1943 127.748C59.1776 127.824 59.1451 127.896 59.0989 127.959C59.0527 128.022 58.9937 128.076 58.9256 128.116C58.8575 128.156 58.7818 128.182 58.703 128.192C57.2761 128.391 56.4706 128.443 56.2864 128.346C55.4735 127.914 54.7964 127.332 54.3376 126.674C53.8788 126.015 53.6581 125.307 53.7023 124.635C53.939 121.175 58.1604 114.515 62.0959 114.139C62.1673 114.131 62.2394 114.142 62.3051 114.171C62.3707 114.199 62.4277 114.244 62.4705 114.302C62.5133 114.359 62.5403 114.427 62.5489 114.498C62.5576 114.569 62.5477 114.641 62.52 114.708Z" fill="white"/>
<path d="M138.842 132.105C138.789 132.057 138.753 131.995 138.736 131.926C138.72 131.858 138.724 131.786 138.75 131.72C138.775 131.654 138.82 131.596 138.878 131.555C138.937 131.514 139.007 131.491 139.079 131.488L142.176 131.402C142.385 131.396 142.594 131.436 142.787 131.519C142.98 131.603 143.152 131.727 143.29 131.884L150.106 139.72C150.191 139.819 150.249 139.939 150.271 140.066C150.294 140.194 150.282 140.325 150.236 140.447C150.189 140.568 150.111 140.676 150.009 140.758C149.906 140.84 149.783 140.894 149.652 140.915C141.831 142.168 133.674 141.966 125.793 142.428C123.34 142.57 118.836 142.364 112.28 141.812C103.476 141.079 94.4738 140.973 85.2746 141.493C73.5505 142.155 67.672 142.486 67.6391 142.486C64.9695 142.647 58.5287 142.644 48.3169 142.477C47.758 142.464 47.2057 142.348 46.6599 142.13C46.5025 142.067 46.3663 141.962 46.2668 141.827C46.1673 141.693 46.1086 141.533 46.0973 141.368C46.086 141.202 46.1225 141.036 46.2028 140.89C46.2831 140.743 46.4039 140.622 46.5514 140.539L47.7745 139.845C47.9158 139.767 48.0316 139.651 48.1084 139.509C48.1852 139.368 48.2199 139.207 48.2085 139.045C48.0408 136.732 52.1537 132.597 52.7258 131.228C52.7586 131.151 52.8076 131.081 52.8695 131.022C52.9314 130.964 53.005 130.919 53.0857 130.89C53.1663 130.861 53.2522 130.849 53.338 130.854C53.4237 130.859 53.5075 130.881 53.584 130.92C56.0892 132.186 58.8673 131.852 61.9184 129.917C62.2418 129.714 62.6186 129.605 63.0034 129.605C63.3882 129.605 63.7649 129.714 64.0883 129.917C70.5652 134.023 77.7424 135.209 85.6199 133.474C85.9858 133.397 86.3386 133.264 86.6654 133.079C88.1186 132.263 89.6572 131.145 91.2814 129.725C92.5571 128.607 93.5828 128.812 94.3587 130.341C95.5489 132.674 96.2689 135.01 96.5188 137.349C96.529 137.438 96.519 137.528 96.4895 137.612C96.46 137.697 96.4116 137.775 96.3478 137.84C96.284 137.905 96.2063 137.956 96.12 137.99C96.0337 138.023 95.9409 138.038 95.8481 138.033C93.3034 137.898 81.7337 137.911 61.1392 138.072C57.7068 138.101 52.1242 136.944 48.8693 138.93C48.791 138.976 48.7282 139.043 48.6884 139.124C48.6486 139.204 48.6335 139.295 48.645 139.383C48.6565 139.472 48.694 139.556 48.753 139.624C48.8121 139.692 48.8902 139.742 48.9778 139.768C49.5696 139.954 50.3587 140.105 51.345 140.221C55.2771 140.69 61.0077 140.851 68.5367 140.703C70.8052 140.665 78.732 140.221 92.317 139.373C94.7631 139.219 99.2411 139.681 100.987 139.055C101.045 139.032 101.094 138.994 101.129 138.944C101.165 138.894 101.184 138.834 101.185 138.774C101.186 138.713 101.169 138.653 101.135 138.602C101.102 138.551 101.054 138.511 100.997 138.486C100.596 138.313 99.5764 138.313 97.9391 138.486C97.8875 138.492 97.8352 138.486 97.7866 138.468C97.738 138.45 97.6945 138.421 97.6597 138.383C97.625 138.345 97.5999 138.3 97.5868 138.251C97.5736 138.202 97.5727 138.15 97.5841 138.101C98.452 134.117 98.0805 130.743 96.4695 127.98C96.3939 127.851 96.3557 127.704 96.3589 127.556C96.3621 127.407 96.4067 127.262 96.4877 127.136C96.5688 127.011 96.6834 126.909 96.8191 126.842C96.9549 126.775 97.1068 126.745 97.2585 126.756L103.62 127.219C103.72 127.226 103.812 127.269 103.88 127.338C103.948 127.408 103.985 127.5 103.985 127.594C103.972 128.976 104.432 129.943 105.366 130.496C109.042 132.668 111.32 133.821 112.201 133.956C115.121 134.387 118.567 134.631 122.538 134.689C125.109 134.727 127.611 134.065 130.044 132.703C131.119 132.105 131.494 131.334 132.096 130.37C132.176 130.243 132.283 130.133 132.409 130.049C132.535 129.964 132.678 129.906 132.829 129.879C132.979 129.852 133.134 129.856 133.283 129.89C133.432 129.925 133.572 129.99 133.694 130.081C137.027 132.555 139.503 135.44 141.121 138.737C141.199 138.892 141.317 139.024 141.462 139.121C141.607 139.217 141.775 139.274 141.949 139.286L145.628 139.556C145.758 139.567 145.889 139.537 146.001 139.471C146.113 139.406 146.2 139.307 146.252 139.19C146.303 139.072 146.315 138.942 146.287 138.817C146.258 138.693 146.19 138.58 146.092 138.496L138.842 132.105ZM119.54 140.327C122.762 140.334 127.825 140.057 134.729 139.498C135.222 139.453 135.558 139.35 135.735 139.19C135.793 139.137 135.834 139.07 135.853 138.995C135.872 138.92 135.868 138.841 135.842 138.768C135.816 138.696 135.768 138.632 135.706 138.585C135.643 138.539 135.567 138.511 135.489 138.505C130.419 138.255 125.221 138.698 119.54 138.698C113.858 138.689 108.66 138.226 103.591 138.467C103.512 138.472 103.437 138.5 103.374 138.547C103.311 138.593 103.264 138.657 103.237 138.73C103.211 138.803 103.207 138.881 103.226 138.956C103.245 139.031 103.286 139.099 103.344 139.151C103.522 139.312 103.857 139.415 104.35 139.46C111.248 140.038 116.311 140.327 119.54 140.327Z" fill="white"/>
<path d="M109.42 130.621C108.9 130.557 108.628 130.512 108.601 130.486C108.545 130.436 108.504 130.37 108.484 130.298C108.464 130.225 108.466 130.149 108.489 130.079C108.512 130.008 108.555 129.946 108.614 129.9C108.672 129.854 108.743 129.827 108.818 129.821C108.877 129.815 109.124 129.95 109.558 130.226C109.603 130.25 109.637 130.289 109.656 130.335C109.674 130.382 109.675 130.433 109.658 130.48C109.642 130.527 109.609 130.567 109.565 130.593C109.522 130.619 109.47 130.629 109.42 130.621Z" fill="white"/>
<path d="M119.325 114.301C125.007 114.301 130.205 113.857 135.274 114.108C135.353 114.113 135.428 114.141 135.491 114.188C135.554 114.235 135.601 114.298 135.628 114.371C135.654 114.444 135.658 114.522 135.639 114.597C135.62 114.672 135.579 114.74 135.521 114.792C135.343 114.953 135.008 115.056 134.515 115.101C127.61 115.66 122.547 115.936 119.325 115.93C116.097 115.93 111.034 115.641 104.136 115.062C103.643 115.017 103.307 114.914 103.13 114.754C103.072 114.701 103.031 114.634 103.012 114.559C102.993 114.484 102.997 114.405 103.023 114.332C103.049 114.26 103.097 114.196 103.159 114.149C103.222 114.103 103.298 114.075 103.376 114.069C108.446 113.828 113.644 114.291 119.325 114.301Z" fill="black"/>
</svg>
