<svg width="164" height="134" viewBox="0 0 164 134" fill="none" xmlns="http://www.w3.org/2000/svg">
<path d="M28.9689 25.4053C28.8991 25.4057 28.8307 25.4246 28.7711 25.4601C28.7114 25.4955 28.6627 25.5462 28.6303 25.6066C28.5979 25.667 28.5829 25.735 28.5869 25.8031C28.591 25.8712 28.6139 25.937 28.6533 25.9933L30.7049 28.8174C30.8176 28.9689 30.9673 29.0911 31.1409 29.1734C31.3146 29.2558 31.5069 29.2957 31.7011 29.2897L38.3884 29.1066C38.5769 29.1021 38.7644 29.136 38.9386 29.2061C39.1129 29.2762 39.2701 29.3809 39.4002 29.5134C39.5303 29.646 39.6303 29.8035 39.6939 29.9758C39.7574 30.1481 39.7831 30.3314 39.7692 30.5138L39.7101 31.2271C39.6759 31.7048 39.4611 32.153 39.1074 32.4844C38.7537 32.8158 38.2864 33.0067 37.7966 33.0199L32.8255 33.1548C32.7354 33.1574 32.647 33.1791 32.5663 33.2184C32.4857 33.2577 32.4147 33.3137 32.3584 33.3825C32.3021 33.4512 32.2618 33.5312 32.2403 33.6167C32.2187 33.7022 32.2165 33.7913 32.2337 33.8777L32.717 36.191C32.7677 36.4326 32.898 36.6516 33.0884 36.815C33.2787 36.9784 33.5188 37.0774 33.7724 37.097L37.984 37.3958C38.3115 37.4195 38.6186 37.5615 38.8462 37.7946C39.0738 38.0277 39.2058 38.3353 39.2169 38.6585L39.2662 40.4898C39.2702 40.6294 39.2456 40.7684 39.1939 40.8986C39.1423 41.0288 39.0646 41.1476 38.9654 41.2481C38.8662 41.3486 38.7476 41.4288 38.6163 41.4839C38.485 41.5391 38.3439 41.5681 38.201 41.5694L33.7132 41.6079C33.5464 41.6112 33.3866 41.6726 33.2633 41.7807C33.14 41.8888 33.0616 42.0363 33.0425 42.1959C33.0162 42.408 32.5822 43.2979 31.7405 44.8658C29.906 48.2843 27.1508 50.392 23.4751 51.1888C23.2789 51.2312 23.0971 51.3222 22.9472 51.453C22.7972 51.5838 22.6842 51.7501 22.6188 51.9358C22.5535 52.1215 22.5381 52.3206 22.574 52.5138C22.61 52.707 22.6961 52.888 22.8241 53.0394C25.3228 55.9888 28.8276 59.0539 33.3384 62.2347C33.5804 62.405 33.7817 62.6247 33.9284 62.8785C34.0751 63.1322 34.1637 63.4141 34.1881 63.7046C34.2124 63.9951 34.172 64.2873 34.0696 64.5611C33.9672 64.8348 33.8052 65.0835 33.5948 65.2902L33.5159 65.3576C33.0403 65.8185 32.4201 66.1099 31.7547 66.1851C31.0893 66.2602 30.4174 66.1148 29.8468 65.7721C23.5409 61.9745 18.1391 57.033 13.6414 50.9478C13.5028 50.7598 13.4155 50.5407 13.3879 50.3112C13.3603 50.0818 13.3932 49.8497 13.4836 49.637L14.1543 48.0562C14.2459 47.8406 14.3991 47.6557 14.5952 47.5239C14.7913 47.3922 15.0219 47.3192 15.259 47.314L19.8947 47.1791C20.5586 47.161 21.2111 47.0125 21.8129 46.7425C22.4147 46.4725 22.9533 46.0865 23.3962 45.608L25.1025 43.7477C25.2865 43.5507 25.4071 43.3052 25.4493 43.0418C25.4915 42.7783 25.4535 42.5085 25.3399 42.266C25.2264 42.0235 25.0423 41.819 24.8107 41.678C24.5791 41.537 24.3101 41.4657 24.0373 41.473L13.8979 41.7525C13.4475 41.7673 13.0021 41.652 12.6165 41.4208C12.2309 41.1895 11.922 40.8526 11.7279 40.4513L11.1657 39.2657C11.0759 39.0775 11.0358 38.8701 11.0492 38.6628C11.0625 38.4556 11.1288 38.2552 11.2419 38.0802C11.3551 37.9052 11.5114 37.7613 11.6963 37.6619C11.8813 37.5625 12.0889 37.5108 12.3 37.5115H24.3233C24.4607 37.5111 24.5957 37.4769 24.716 37.4121C24.8363 37.3473 24.938 37.2539 25.0117 37.1406C25.0854 37.0273 25.1287 36.8977 25.1377 36.7638C25.1467 36.6299 25.121 36.4959 25.0631 36.3741L24.0472 34.2536C23.8772 33.8933 23.6014 33.5897 23.2542 33.3807C22.907 33.1716 22.5037 33.0663 22.0942 33.0777L13.9472 33.2994C13.5911 33.3101 13.2405 33.2087 12.9474 33.0102C12.6543 32.8117 12.4344 32.5267 12.3202 32.1975C12.2061 31.8684 12.2039 31.5127 12.314 31.1834C12.4241 30.854 12.6406 30.5684 12.9312 30.3692L13.5921 29.9066C13.7794 29.7802 13.9935 29.7038 14.2135 29.6849L19.7172 29.1837C20.3013 29.1331 20.8623 28.9405 21.3484 28.6238C21.8346 28.3071 22.2301 27.8764 22.4986 27.3716L22.5578 27.2656C22.6457 27.1174 22.6933 26.9498 22.6961 26.7786C22.6989 26.6073 22.6567 26.4383 22.5736 26.2875C22.4905 26.1367 22.3693 26.0092 22.2215 25.9172C22.0737 25.8252 21.9042 25.7718 21.7293 25.762L13.4639 25.28C13.2997 25.2708 13.1395 25.2272 12.994 25.152C12.8484 25.0768 12.721 24.9718 12.6201 24.844C12.5192 24.7163 12.4473 24.5687 12.4091 24.4111C12.3709 24.2536 12.3673 24.0898 12.3986 23.9306C12.6485 22.6969 12.7373 21.8647 12.6649 21.4342C12.647 21.3228 12.6587 21.2087 12.699 21.103C12.7394 20.9973 12.807 20.9035 12.8952 20.8308C12.9835 20.7581 13.0895 20.7089 13.2029 20.688C13.3164 20.6671 13.4334 20.6751 13.5428 20.7113C16.1072 21.5209 19.1648 20.6053 22.2718 20.6438C27.69 20.7145 33.0228 20.676 38.27 20.5282C38.581 20.5199 38.8903 20.5742 39.1787 20.6877C39.467 20.8012 39.7282 20.9714 39.9458 21.1877C40.1634 21.4039 40.3328 21.6616 40.4433 21.9445C40.5537 22.2275 40.603 22.5295 40.5879 22.8318L40.5682 23.0824C40.5255 23.7185 40.2346 24.3148 39.7545 24.7499C39.2744 25.185 38.6413 25.4263 37.984 25.4246L28.9689 25.4053Z" fill="black"/>
<path d="M26.6511 75.7578L26.5623 75.5939C26.4782 75.4438 26.4356 75.2748 26.4388 75.1037C26.4419 74.9326 26.4908 74.7653 26.5805 74.6183C26.6701 74.4712 26.7975 74.3497 26.95 74.2655C27.1025 74.1814 27.2749 74.1376 27.45 74.1385L36.6228 74.1867C36.9036 74.1892 37.1721 74.3 37.3697 74.4949C37.5673 74.6899 37.6782 74.9532 37.6782 75.2276V77.0686C37.6782 77.1821 37.7014 77.2944 37.7465 77.3987C37.7916 77.503 37.8576 77.5972 37.9406 77.6756C38.0236 77.754 38.1218 77.815 38.2293 77.8548C38.3368 77.8946 38.4513 77.9124 38.5659 77.9072C42.6592 77.753 45.2927 75.218 48.4292 72.818C49.4418 72.0469 50.9936 71.1633 53.0847 70.1673C59.2854 67.2115 65.805 65.1231 72.6435 63.9022C73.1448 63.8109 73.6005 63.5593 73.9382 63.1874C74.276 62.8154 74.4764 62.3444 74.5077 61.8492C74.5866 60.6925 74.8266 59.5584 75.2277 58.4467C78.0749 50.6073 83.4438 44.7887 91.3345 40.9911C99.2908 37.1549 107.372 37.6047 115.578 42.3405C116.42 42.8224 117.715 44.1236 119.465 46.2441C124.475 52.3069 125.826 61.2323 124.771 68.7505C124.76 68.8285 124.769 68.908 124.798 68.9818C124.826 69.0556 124.873 69.1215 124.935 69.1738C124.996 69.2261 125.07 69.2632 125.149 69.2818C125.229 69.3004 125.313 69.3 125.392 69.2806C128.812 68.4388 131.771 69.5697 134.269 72.6734C134.374 72.8019 134.442 72.9565 134.464 73.121C134.487 73.2855 134.464 73.4539 134.398 73.6084C133.569 75.6068 132.714 76.9016 131.833 77.4927C128.526 79.7161 125.964 81.6759 124.15 83.3723C120.411 86.8519 118.399 88.0664 113.744 91.5266C110.144 94.2062 103.358 97.4833 98.7615 98.7845C90.7821 101.03 85.5348 102.033 78.9067 105.455C75.3461 107.286 70.4835 107.941 65.2264 107.845C58.2234 107.723 50.8654 108.06 43.1523 108.857C42.9678 108.876 42.7971 108.96 42.6732 109.091C42.5493 109.223 42.4811 109.394 42.4816 109.57V110.399C42.4815 110.563 42.4376 110.723 42.3544 110.864C42.2712 111.005 42.1517 111.12 42.0082 111.199C40.6273 111.964 39.6443 112.925 39.0591 114.081C38.9601 114.278 38.8102 114.447 38.6237 114.572C38.4372 114.697 38.2204 114.774 37.9938 114.794C35.7582 114.987 34.2228 115.096 33.3877 115.122C32.4474 115.154 31.872 115.318 31.6616 115.614C31.4592 115.9 31.1738 116.116 30.8411 116.235C30.5085 116.354 30.1433 116.37 29.7915 116.282C29.4398 116.193 29.117 116.004 28.8636 115.738C28.6102 115.471 28.4376 115.14 28.3673 114.785C26.1776 103.79 25.1157 92.5644 25.1814 81.1072C25.1814 81.0393 25.1676 80.9721 25.1407 80.9095C25.1138 80.8469 25.0745 80.7901 25.0249 80.7426C24.9753 80.695 24.9165 80.6576 24.8519 80.6325C24.7873 80.6074 24.7183 80.5951 24.6488 80.5964C23.4455 80.6221 20.5194 80.6671 15.8705 80.7313C14.7658 80.7506 13.4639 80.6124 11.9646 80.3169C10.7087 80.0727 9.4758 79.6839 8.26591 79.1506C7.98363 79.0276 7.75259 78.8143 7.6108 78.546C7.46901 78.2776 7.4249 77.9701 7.48573 77.6739C7.54657 77.3778 7.70872 77.1107 7.94552 76.9166C8.18232 76.7225 8.47967 76.613 8.78866 76.606L26.4932 76.1144C26.5354 76.1142 26.5767 76.102 26.6119 76.0793C26.6471 76.0566 26.6748 76.0244 26.6915 75.9865C26.7082 75.9487 26.7133 75.9069 26.7062 75.8663C26.699 75.8256 26.6798 75.7879 26.6511 75.7578ZM78.2755 61.2516L89.1152 58.0515C89.2984 58.0018 89.4957 58.0224 89.6676 58.1094C91.5284 59.0668 92.4786 60.5833 92.5181 62.6588C92.6167 67.7737 90.7394 72.0469 86.8861 75.4783C86.7769 75.5753 86.6902 75.694 86.6318 75.8265C86.5734 75.9589 86.5446 76.102 86.5474 76.2463C86.5502 76.3905 86.5845 76.5324 86.648 76.6626C86.7115 76.7928 86.8028 76.9082 86.9157 77.0012C91.946 81.1169 101.148 82.4856 107.303 80.6446C107.644 80.5422 107.972 80.3998 108.28 80.2205C115.154 76.1915 119.741 73.4541 120.402 65.7914C120.983 59.0443 118.981 50.3984 113.339 46.2538C106.918 41.5405 98.5248 41.7043 91.581 45.6755C85.479 49.1711 80.9682 54.2796 78.0486 61.001C78.0336 61.0332 78.0285 61.069 78.0338 61.104C78.0392 61.139 78.0548 61.1717 78.0788 61.1982C78.1028 61.2248 78.1341 61.2439 78.1691 61.2534C78.204 61.2628 78.2409 61.2622 78.2755 61.2516ZM93.9285 84.2495L87.0341 82.8904C86.9298 82.8695 86.8213 82.8773 86.7205 82.913C86.6196 82.9487 86.5302 83.0109 86.462 83.0928L86.1957 83.4109C86.037 83.5919 85.8327 83.7285 85.6038 83.8064C85.375 83.8844 85.1298 83.9009 84.8937 83.8542C82.5331 83.4109 81.3923 82.1996 81.4712 80.2205C81.48 80.0432 81.4406 79.867 81.3569 79.7095C81.2732 79.552 81.1482 79.4188 80.9943 79.3231C80.8405 79.2275 80.6632 79.1727 80.4804 79.1644C80.2975 79.1562 80.1154 79.1946 79.9522 79.2759C74.5143 82.0454 70.0561 84.0149 66.5776 85.1844C65.874 85.4157 65.3348 85.3611 64.96 85.0205C64.8905 84.957 64.8356 84.8797 64.7989 84.7939C64.7623 84.708 64.7448 84.6154 64.7476 84.5224C64.7504 84.4294 64.7735 84.3381 64.8152 84.2545C64.8569 84.1708 64.9164 84.0968 64.9896 84.0374C66.479 82.8325 69.1026 81.0494 71.4402 79.9988C76.3784 77.7755 80.1429 75.9345 82.7337 74.4758C87.0341 72.0597 89.0462 68.3681 88.77 63.401C88.7618 63.2368 88.719 63.0761 88.6443 62.9289C88.5697 62.7816 88.4647 62.651 88.336 62.5451C88.2074 62.4393 88.0577 62.3605 87.8965 62.3137C87.7353 62.267 87.5659 62.2532 87.399 62.2733C85.7683 62.4596 84.3414 63.0829 83.1183 64.1432C83.0026 64.2443 82.9135 64.3715 82.8585 64.5141C82.8036 64.6567 82.7845 64.8105 82.8027 64.9625L83 66.3697C83.0083 66.4372 83.0347 66.5013 83.0766 66.5556C83.1184 66.6099 83.1743 66.6524 83.2383 66.6788C83.3024 66.7052 83.3725 66.7146 83.4415 66.7061C83.5105 66.6975 83.576 66.6712 83.6312 66.6299C83.7693 66.5271 83.9271 66.2058 84.1047 65.6661C84.2888 65.107 84.6176 64.8082 85.091 64.7697C85.6236 64.7183 86.222 64.834 86.8861 65.1167C86.9998 65.166 87.1009 65.2393 87.1819 65.3314C87.2628 65.4235 87.3216 65.5319 87.3538 65.6486C87.386 65.7652 87.3909 65.8871 87.3679 66.0053C87.345 66.1235 87.295 66.2348 87.2215 66.3311C85.4921 68.6187 83.3781 69.4573 80.8794 68.8468C80.7489 68.8148 80.6361 68.7348 80.5644 68.6234C80.4928 68.5121 80.4678 68.3781 80.4947 68.2493L81.2345 64.6637C81.2502 64.5903 81.2434 64.5144 81.2148 64.4451C81.1862 64.3758 81.137 64.316 81.0733 64.2732C81.0096 64.2303 80.934 64.2061 80.8558 64.2036C80.7776 64.201 80.7001 64.2202 80.6328 64.2588L77.0623 66.4275C76.7741 66.6003 76.4659 66.7363 76.145 66.8324L57.0497 72.4613C56.6051 72.5955 56.1829 72.7937 55.7971 73.0493C49.5174 77.1939 46.2494 79.3691 45.993 79.5747C44.2373 80.9498 42.2416 81.5378 40.006 81.3386C39.8799 81.3266 39.7526 81.3421 39.6334 81.3839C39.5141 81.4256 39.4058 81.4927 39.3162 81.5802C39.2267 81.6678 39.158 81.7736 39.1153 81.8901C39.0725 82.0067 39.0567 82.131 39.0689 82.2542L41.2882 105.011C41.299 105.105 41.3321 105.195 41.3847 105.274C41.4373 105.353 41.5081 105.419 41.5914 105.467C41.6746 105.514 41.7681 105.543 41.8645 105.549C41.9608 105.555 42.0573 105.539 42.1463 105.503C45.3025 104.192 48.7152 103.488 52.3844 103.392C55.7181 103.302 61.6953 103.247 70.3158 103.228C70.7997 103.222 71.285 103.144 71.7558 102.997C76.7467 101.416 80.6328 99.4593 85.7913 98.0424C89.9339 96.905 97.9823 94.8713 103.121 92.4327C108.414 89.9266 112.886 87.1539 116.535 84.1145C121.894 79.6614 126.014 76.3554 128.894 74.1963C129.031 74.0915 129.132 73.9474 129.181 73.7841C129.231 73.6209 129.228 73.4465 129.171 73.2853C129.115 73.1241 129.008 72.9841 128.867 72.8848C128.725 72.7855 128.555 72.7318 128.381 72.7312H125.166C124.653 72.7313 124.146 72.8418 123.681 73.055C123.215 73.2682 122.803 73.5788 122.473 73.965C116.959 80.4325 111.465 84.6639 102.875 86.2157C99.8629 86.7619 97.9724 87.1667 97.2031 87.4302C89.8451 89.962 82.2898 90.5853 74.5373 89.3001C74.0998 89.2246 73.6946 89.0233 73.3734 88.7218C72.6172 87.9957 71.5553 87.533 70.1876 87.3338C69.7875 87.2755 69.4229 87.076 69.1615 86.7728C68.9002 86.4695 68.7601 86.0831 68.7673 85.6856V85.5796C68.7704 85.4207 68.8114 85.2646 68.8871 85.124C68.9628 84.9833 69.071 84.8618 69.2032 84.7692C69.3353 84.6765 69.4878 84.6153 69.6484 84.5903C69.809 84.5654 69.9734 84.5774 70.1284 84.6254C76.3949 86.5917 82.4509 86.868 88.2966 85.4543C90.3777 84.9531 91.9361 85.6663 93.9778 84.9049C94.0488 84.8771 94.1092 84.8277 94.1501 84.764C94.191 84.7004 94.2101 84.6261 94.2046 84.5521C94.199 84.4782 94.1691 84.4087 94.1193 84.3541C94.0695 84.2995 94.0026 84.2628 93.9285 84.2495ZM36.4749 109.994C36.7903 109.815 37.0491 109.554 37.223 109.241C37.397 108.929 37.4794 108.576 37.4612 108.221C36.9812 99.4432 36.3763 91.5684 35.6464 84.5964C35.4688 82.9322 35.1598 80.8052 34.7192 78.2156C34.6911 78.06 34.6072 77.9192 34.4825 77.8185C34.3577 77.7178 34.2004 77.6638 34.0387 77.6662L29.9553 77.7819C29.8098 77.7863 29.6711 77.8438 29.5656 77.9434C29.4601 78.0429 29.3951 78.1776 29.3832 78.3216C29.1399 81.2582 29.1366 84.2559 29.3733 87.3145C30.0506 96.1307 30.8265 104.166 31.7011 111.421C31.7152 111.55 31.7624 111.673 31.8384 111.78C31.9143 111.886 32.0166 111.972 32.1361 112.031C32.2555 112.089 32.3882 112.118 32.5224 112.114C32.6565 112.11 32.7878 112.074 32.9044 112.009L36.4749 109.994ZM83.4241 81.1844C83.7332 81.5699 84.2987 81.8012 85.1206 81.8783C85.1906 81.8847 85.2612 81.8747 85.3265 81.8492C85.3917 81.8237 85.4499 81.7834 85.4961 81.7317C85.5424 81.6799 85.5754 81.6181 85.5924 81.5515C85.6094 81.4848 85.61 81.4151 85.594 81.3482C85.5217 81.0847 85.2653 80.6735 84.8247 80.1145C84.3776 79.5618 84.0324 79.2213 83.7891 79.0928C83.7256 79.0593 83.6547 79.0415 83.5826 79.0408C83.5105 79.0402 83.4393 79.0567 83.3752 79.089C83.3111 79.1212 83.256 79.1683 83.2147 79.2261C83.1734 79.2838 83.1471 79.3505 83.1381 79.4205C83.0263 80.2173 83.1216 80.8052 83.4241 81.1844Z" fill="black"/>
<path d="M78.0486 61.001C80.9681 54.2796 85.4789 49.1711 91.581 45.6755C98.5248 41.7043 106.918 41.5405 113.339 46.2538C118.981 50.3984 120.983 59.0443 120.402 65.7914C119.741 73.4541 115.154 76.1915 108.28 80.2205C107.972 80.3998 107.644 80.5422 107.303 80.6446C101.148 82.4856 91.946 81.1169 86.9157 77.0012C86.8028 76.9082 86.7115 76.7928 86.648 76.6626C86.5845 76.5324 86.5502 76.3905 86.5474 76.2463C86.5446 76.102 86.5733 75.9589 86.6318 75.8265C86.6902 75.694 86.7769 75.5753 86.8861 75.4783C90.7394 72.0469 92.6167 67.7737 92.518 62.6588C92.4786 60.5833 91.5284 59.0668 89.6676 58.1094C89.4957 58.0224 89.2984 58.0018 89.1152 58.0515L78.2755 61.2516C78.2409 61.2622 78.2039 61.2628 78.169 61.2534C78.1341 61.2439 78.1028 61.2248 78.0788 61.1982C78.0548 61.1717 78.0392 61.139 78.0338 61.104C78.0284 61.069 78.0336 61.0332 78.0486 61.001ZM107.865 64.1624C110.213 63.1504 112.777 60.4998 111.534 57.878C111.51 57.825 111.499 57.7666 111.503 57.7084C111.507 57.6502 111.527 57.594 111.559 57.5449C111.592 57.4959 111.636 57.4557 111.689 57.428C111.741 57.4003 111.8 57.386 111.86 57.3865H114.217C114.379 57.3861 114.539 57.3479 114.683 57.275C114.827 57.2021 114.951 57.0966 115.044 56.9674C115.138 56.8381 115.198 56.6889 115.221 56.5321C115.244 56.3753 115.227 56.2154 115.174 56.066C114.576 54.4338 113.464 52.7792 111.84 51.1021C108.378 47.5261 100.724 47.8153 96.2168 48.3647C94.6189 48.5574 92.6956 49.5213 91.7093 50.4852C91.6261 50.5664 91.5623 50.6646 91.5225 50.7725C91.4828 50.8805 91.468 50.9955 91.4794 51.1091C91.4907 51.2227 91.5278 51.3322 91.5881 51.4293C91.6484 51.5265 91.7302 51.609 91.8276 51.6707C92.4654 52.082 93.4287 52.0274 94.7175 51.5069C94.8124 51.4709 94.9175 51.4694 95.0134 51.5028C95.1093 51.5361 95.1897 51.6021 95.24 51.6886C95.2902 51.7752 95.3069 51.8765 95.2871 51.9741C95.2672 52.0716 95.2121 52.159 95.1318 52.2201C93.2446 53.6402 91.7652 53.6724 90.6933 52.3165C90.5914 52.1853 90.4547 52.0837 90.298 52.0227C90.1414 51.9618 89.9707 51.9437 89.8043 51.9704C89.6379 51.9972 89.4822 52.0678 89.3538 52.1746C89.2254 52.2815 89.1293 52.4205 89.0758 52.5768C88.4708 54.286 88.6056 55.6419 89.4801 56.6443C89.6767 56.87 89.9431 57.0275 90.2398 57.0935C90.5365 57.1594 90.8477 57.1304 91.1273 57.0106C93.7838 55.8603 95.8781 54.5784 97.4102 53.1647C100.843 50.0129 104.009 50.2249 108.033 51.449C109.217 51.8153 110.157 52.7021 110.854 54.1093C110.897 54.2005 110.917 54.3008 110.91 54.4011C110.904 54.5013 110.873 54.5982 110.818 54.6827C110.764 54.7673 110.69 54.8368 110.601 54.8849C110.512 54.9329 110.413 54.9579 110.311 54.9575L103.959 54.9864C103.586 54.99 103.226 55.1211 102.941 55.357C102.657 55.5929 102.466 55.9188 102.401 56.278L102.381 56.4322C102.347 56.5985 102.35 56.77 102.39 56.9351C102.43 57.1001 102.506 57.2548 102.612 57.3885C102.719 57.5222 102.854 57.6317 103.009 57.7095C103.163 57.7874 103.332 57.8317 103.506 57.8395L108.497 58.0612C108.62 58.064 108.74 58.1067 108.836 58.1825C108.932 58.2584 109 58.3632 109.03 58.4807C109.059 58.5982 109.048 58.7219 108.998 58.8325C108.948 58.9431 108.862 59.0345 108.753 59.0925L107.707 59.6805C107.369 59.8744 106.977 59.9524 106.593 59.9022L103.506 59.5552C103.408 59.5429 103.308 59.5514 103.213 59.5801C103.118 59.6089 103.031 59.6572 102.956 59.7218C102.882 59.7865 102.822 59.8661 102.78 59.9553C102.739 60.0446 102.717 60.1414 102.717 60.2395V60.6443C102.719 60.8855 102.819 61.116 102.995 61.2856C103.17 61.4552 103.407 61.5504 103.654 61.5504H104.906C105.015 61.5499 105.123 61.5789 105.216 61.6342C105.309 61.6894 105.385 61.7688 105.435 61.8636C105.485 61.9583 105.507 62.0647 105.499 62.1711C105.491 62.2774 105.453 62.3795 105.39 62.4661L99.4815 70.3697C99.3108 70.6052 99.2284 70.8911 99.2484 71.1791C99.2685 71.4671 99.3896 71.7394 99.5913 71.9502C99.7931 72.161 100.063 72.2972 100.356 72.3359C100.649 72.3746 100.946 72.3134 101.198 72.1626L102.717 71.2373C102.834 71.1609 102.934 71.0626 103.013 70.9481L106.011 66.6589C106.102 66.5308 106.228 66.4302 106.374 66.3689C106.521 66.3075 106.682 66.2877 106.84 66.3119C106.997 66.336 107.145 66.4031 107.265 66.5054C107.385 66.6077 107.474 66.7411 107.52 66.8902L108.082 68.6926C108.101 68.7542 108.133 68.8109 108.177 68.8585C108.221 68.9061 108.275 68.9433 108.336 68.9674C108.397 68.9915 108.462 69.0019 108.528 68.9977C108.593 68.9935 108.657 68.9749 108.714 68.9432L109.7 68.3746C109.876 68.2781 110.081 68.2454 110.278 68.2825C110.475 68.3196 110.651 68.424 110.775 68.577C110.9 68.7376 111.1 68.9946 111.377 69.3481C111.424 69.4109 111.452 69.4853 111.459 69.563C111.466 69.6407 111.45 69.7186 111.415 69.7884C111.379 69.8581 111.324 69.9169 111.257 69.9582C111.189 69.9996 111.111 70.0219 111.031 70.0228H110.134C110.035 70.0235 109.937 70.0465 109.849 70.0902C109.761 70.1338 109.684 70.1968 109.625 70.2743C109.566 70.3518 109.525 70.4416 109.508 70.5368C109.49 70.6319 109.495 70.7298 109.522 70.8228C109.733 71.5489 110.242 71.8573 111.051 71.7481C112.254 71.5875 112.889 71.0284 112.955 70.071C113.113 67.9215 112.688 66.042 110.637 64.4516C110.085 64.0339 109.657 63.8894 109.355 64.0179C108.908 64.2042 108.497 64.4227 108.122 64.6733C108.092 64.6929 108.059 64.7065 108.024 64.7132C107.989 64.7199 107.953 64.7196 107.918 64.7124C107.883 64.7052 107.85 64.6913 107.82 64.6713C107.791 64.6513 107.766 64.6258 107.747 64.5962L107.737 64.5865C107.714 64.5522 107.699 64.5132 107.693 64.4723C107.687 64.4313 107.69 64.3894 107.702 64.3493C107.714 64.3091 107.735 64.2717 107.763 64.2394C107.791 64.2072 107.826 64.181 107.865 64.1624Z" fill="white"/>
<path d="M107.865 64.1624C107.826 64.181 107.791 64.2072 107.763 64.2395C107.735 64.2717 107.714 64.3091 107.702 64.3493C107.69 64.3894 107.687 64.4313 107.693 64.4723C107.699 64.5132 107.714 64.5522 107.737 64.5865L107.747 64.5962C107.766 64.6258 107.791 64.6513 107.82 64.6713C107.85 64.6913 107.883 64.7052 107.918 64.7124C107.953 64.7196 107.989 64.7199 108.024 64.7132C108.059 64.7065 108.092 64.6929 108.122 64.6733C108.497 64.4227 108.908 64.2042 109.355 64.0179C109.657 63.8894 110.085 64.0339 110.637 64.4516C112.689 66.042 113.113 67.9215 112.955 70.071C112.889 71.0284 112.255 71.5875 111.051 71.7481C110.242 71.8573 109.733 71.5489 109.522 70.8228C109.495 70.7298 109.49 70.6319 109.508 70.5368C109.525 70.4416 109.566 70.3518 109.625 70.2743C109.684 70.1968 109.761 70.1338 109.849 70.0902C109.937 70.0465 110.035 70.0235 110.134 70.0228H111.031C111.111 70.0219 111.189 69.9996 111.257 69.9582C111.324 69.9169 111.379 69.8581 111.415 69.7884C111.45 69.7186 111.466 69.6407 111.459 69.563C111.452 69.4853 111.424 69.4109 111.377 69.3481C111.101 68.9946 110.9 68.7376 110.775 68.577C110.651 68.424 110.475 68.3196 110.278 68.2825C110.081 68.2454 109.876 68.2781 109.7 68.3746L108.714 68.9432C108.657 68.9749 108.593 68.9935 108.528 68.9977C108.462 69.0019 108.397 68.9915 108.336 68.9674C108.275 68.9433 108.221 68.9061 108.177 68.8585C108.133 68.8109 108.101 68.7542 108.082 68.6926L107.52 66.8902C107.474 66.7411 107.385 66.6077 107.265 66.5054C107.145 66.4031 106.997 66.336 106.84 66.3119C106.682 66.2877 106.521 66.3075 106.374 66.3689C106.228 66.4302 106.102 66.5308 106.011 66.6589L103.013 70.9481C102.935 71.0626 102.834 71.1609 102.717 71.2373L101.198 72.1626C100.946 72.3134 100.649 72.3746 100.356 72.3359C100.063 72.2972 99.7932 72.161 99.5914 71.9502C99.3896 71.7394 99.2685 71.4671 99.2485 71.1791C99.2285 70.8911 99.3108 70.6052 99.4816 70.3698L105.39 62.4661C105.453 62.3795 105.491 62.2774 105.499 62.1711C105.507 62.0647 105.485 61.9583 105.435 61.8636C105.385 61.7688 105.309 61.6894 105.216 61.6342C105.123 61.5789 105.015 61.5499 104.906 61.5504H103.654C103.407 61.5504 103.17 61.4552 102.995 61.2856C102.819 61.116 102.719 60.8855 102.717 60.6443V60.2395C102.717 60.1414 102.739 60.0446 102.781 59.9553C102.822 59.8661 102.882 59.7865 102.956 59.7218C103.031 59.6572 103.118 59.6089 103.213 59.5801C103.308 59.5514 103.408 59.5429 103.506 59.5552L106.593 59.9022C106.977 59.9524 107.369 59.8744 107.708 59.6805L108.753 59.0925C108.862 59.0345 108.948 58.9431 108.998 58.8325C109.048 58.7219 109.059 58.5982 109.03 58.4807C109 58.3632 108.932 58.2584 108.836 58.1825C108.74 58.1067 108.62 58.064 108.497 58.0612L103.506 57.8395C103.332 57.8317 103.163 57.7874 103.009 57.7096C102.854 57.6317 102.719 57.5222 102.612 57.3885C102.506 57.2548 102.43 57.1001 102.39 56.9351C102.35 56.77 102.347 56.5985 102.381 56.4322L102.401 56.278C102.466 55.9188 102.657 55.5929 102.941 55.357C103.226 55.1211 103.586 54.99 103.959 54.9864L110.311 54.9575C110.413 54.9579 110.512 54.9329 110.601 54.8849C110.69 54.8368 110.764 54.7673 110.819 54.6827C110.873 54.5982 110.904 54.5013 110.91 54.4011C110.917 54.3008 110.897 54.2005 110.854 54.1093C110.157 52.7021 109.217 51.8153 108.033 51.449C104.009 50.2249 100.843 50.0129 97.4103 53.1647C95.8782 54.5784 93.7839 55.8603 91.1274 57.0106C90.8478 57.1304 90.5365 57.1594 90.2398 57.0935C89.9431 57.0275 89.6768 56.87 89.4802 56.6443C88.6057 55.6419 88.4709 54.286 89.0758 52.5768C89.1293 52.4205 89.2255 52.2815 89.3538 52.1746C89.4822 52.0678 89.638 51.9972 89.8044 51.9704C89.9707 51.9437 90.1414 51.9618 90.2981 52.0227C90.4547 52.0837 90.5914 52.1853 90.6934 52.3165C91.7652 53.6724 93.2447 53.6402 95.1319 52.2201C95.2122 52.159 95.2673 52.0716 95.2871 51.9741C95.307 51.8765 95.2903 51.7752 95.24 51.6886C95.1898 51.6021 95.1093 51.5361 95.0134 51.5028C94.9175 51.4694 94.8125 51.4709 94.7176 51.5069C93.4288 52.0274 92.4655 52.082 91.8277 51.6707C91.7302 51.609 91.6484 51.5265 91.5882 51.4293C91.5279 51.3322 91.4907 51.2227 91.4794 51.1091C91.4681 50.9955 91.4828 50.8805 91.5226 50.7725C91.5624 50.6646 91.6262 50.5664 91.7093 50.4852C92.6956 49.5213 94.619 48.5574 96.2168 48.3647C100.724 47.8153 108.378 47.5261 111.84 51.1021C113.464 52.7792 114.576 54.4338 115.174 56.066C115.228 56.2154 115.244 56.3753 115.221 56.5321C115.198 56.6889 115.138 56.8381 115.044 56.9674C114.951 57.0966 114.827 57.2021 114.683 57.275C114.539 57.3479 114.379 57.3861 114.217 57.3865H111.86C111.8 57.386 111.741 57.4003 111.689 57.428C111.636 57.4557 111.592 57.4959 111.559 57.5449C111.527 57.594 111.507 57.6502 111.503 57.7084C111.499 57.7666 111.51 57.825 111.534 57.878C112.777 60.4998 110.213 63.1504 107.865 64.1624Z" fill="black"/>
<path d="M93.9778 84.9049C91.9361 85.6663 90.3777 84.9531 88.2966 85.4543C82.451 86.868 76.3949 86.5917 70.1284 84.6254C69.9734 84.5774 69.809 84.5654 69.6484 84.5903C69.4878 84.6153 69.3353 84.6765 69.2032 84.7692C69.071 84.8618 68.9628 84.9833 68.8871 85.124C68.8115 85.2646 68.7704 85.4207 68.7673 85.5796V85.6856C68.7601 86.0832 68.9002 86.4695 69.1616 86.7728C69.4229 87.076 69.7875 87.2755 70.1876 87.3338C71.5553 87.533 72.6173 87.9957 73.3734 88.7218C73.6947 89.0233 74.0998 89.2246 74.5373 89.3001C82.2899 90.5853 89.8451 89.962 97.2031 87.4302C97.9725 87.1667 99.8629 86.7619 102.875 86.2157C111.465 84.6639 116.959 80.4325 122.473 73.965C122.803 73.5788 123.215 73.2682 123.681 73.055C124.146 72.8418 124.653 72.7313 125.166 72.7312H128.381C128.555 72.7318 128.725 72.7855 128.867 72.8848C129.008 72.9841 129.115 73.1241 129.171 73.2853C129.228 73.4465 129.231 73.6209 129.182 73.7841C129.132 73.9474 129.031 74.0915 128.894 74.1963C126.014 76.3554 121.894 79.6614 116.535 84.1145C112.886 87.1539 108.414 89.9266 103.121 92.4327C97.9823 94.8713 89.9339 96.905 85.7913 98.0424C80.6328 99.4593 76.7467 101.416 71.7559 102.997C71.2851 103.144 70.7998 103.222 70.3158 103.228C61.6953 103.247 55.7182 103.302 52.3844 103.392C48.7152 103.488 45.3026 104.192 42.1463 105.503C42.0573 105.539 41.9608 105.555 41.8645 105.549C41.7682 105.543 41.6747 105.514 41.5914 105.467C41.5081 105.419 41.4374 105.353 41.3847 105.274C41.3321 105.195 41.299 105.105 41.2882 105.011L39.069 82.2542C39.0567 82.131 39.0726 82.0067 39.1153 81.8901C39.1581 81.7736 39.2267 81.6678 39.3163 81.5802C39.4059 81.4927 39.5142 81.4256 39.6334 81.3839C39.7526 81.3421 39.8799 81.3266 40.006 81.3386C42.2417 81.5378 44.2373 80.9498 45.993 79.5747C46.2494 79.3691 49.5175 77.1939 55.7971 73.0493C56.183 72.7937 56.6051 72.5955 57.0497 72.4613L76.145 66.8324C76.4659 66.7363 76.7741 66.6003 77.0623 66.4275L80.6328 64.2588C80.7002 64.2202 80.7777 64.201 80.8559 64.2036C80.934 64.2061 81.0096 64.2303 81.0733 64.2732C81.137 64.316 81.1862 64.3758 81.2148 64.4451C81.2434 64.5144 81.2502 64.5903 81.2345 64.6637L80.4947 68.2493C80.4678 68.3781 80.4928 68.5121 80.5644 68.6234C80.6361 68.7348 80.7489 68.8148 80.8794 68.8468C83.3781 69.4573 85.4921 68.6187 87.2215 66.3311C87.295 66.2348 87.3451 66.1235 87.368 66.0053C87.3909 65.8871 87.386 65.7652 87.3538 65.6486C87.3216 65.5319 87.2629 65.4235 87.1819 65.3314C87.1009 65.2393 86.9998 65.166 86.8862 65.1167C86.222 64.834 85.6236 64.7183 85.091 64.7697C84.6176 64.8082 84.2888 65.107 84.1047 65.6661C83.9272 66.2058 83.7694 66.5271 83.6313 66.6299C83.576 66.6712 83.5105 66.6975 83.4415 66.7061C83.3725 66.7146 83.3025 66.7052 83.2384 66.6788C83.1743 66.6524 83.1185 66.6099 83.0766 66.5556C83.0347 66.5013 83.0083 66.4372 83 66.3697L82.8028 64.9625C82.7845 64.8105 82.8036 64.6567 82.8586 64.5141C82.9135 64.3715 83.0026 64.2443 83.1184 64.1432C84.3414 63.0829 85.7683 62.4596 87.399 62.2733C87.566 62.2532 87.7353 62.267 87.8965 62.3137C88.0578 62.3605 88.2074 62.4393 88.3361 62.5451C88.4647 62.651 88.5697 62.7816 88.6443 62.9289C88.719 63.0761 88.7618 63.2369 88.77 63.401C89.0462 68.3681 87.0341 72.0597 82.7337 74.4758C80.1429 75.9345 76.3785 77.7755 71.4403 79.9988C69.1027 81.0494 66.479 82.8325 64.9897 84.0374C64.9164 84.0968 64.8569 84.1708 64.8152 84.2545C64.7735 84.3381 64.7504 84.4294 64.7477 84.5224C64.7449 84.6154 64.7623 84.708 64.799 84.7939C64.8356 84.8798 64.8905 84.957 64.9601 85.0205C65.3349 85.3611 65.8741 85.4157 66.5776 85.1844C70.0561 84.0149 74.5143 82.0454 79.9523 79.2759C80.1154 79.1946 80.2975 79.1562 80.4804 79.1644C80.6633 79.1727 80.8405 79.2275 80.9944 79.3231C81.1482 79.4188 81.2732 79.552 81.3569 79.7095C81.4406 79.867 81.48 80.0432 81.4712 80.2205C81.3923 82.1996 82.5332 83.4109 84.8938 83.8542C85.1298 83.9009 85.375 83.8844 85.6039 83.8064C85.8327 83.7285 86.0371 83.5919 86.1957 83.4109L86.462 83.0928C86.5302 83.0109 86.6196 82.9487 86.7205 82.913C86.8213 82.8773 86.9298 82.8695 87.0341 82.8904L93.9285 84.2495C94.0026 84.2628 94.0695 84.2995 94.1193 84.3541C94.1691 84.4087 94.199 84.4782 94.2046 84.5521C94.2101 84.6261 94.1911 84.7004 94.1502 84.764C94.1093 84.8277 94.0488 84.8771 93.9778 84.9049Z" fill="white"/>
<path d="M36.4749 109.994L32.9044 112.009C32.7878 112.074 32.6566 112.11 32.5224 112.114C32.3883 112.118 32.2555 112.089 32.1361 112.031C32.0167 111.972 31.9144 111.886 31.8384 111.78C31.7625 111.673 31.7153 111.55 31.7011 111.421C30.8265 104.166 30.0506 96.1307 29.3733 87.3145C29.1366 84.2559 29.1399 81.2582 29.3832 78.3216C29.3952 78.1776 29.4601 78.0429 29.5656 77.9434C29.6712 77.8438 29.8099 77.7863 29.9553 77.7819L34.0387 77.6662C34.2004 77.6638 34.3578 77.7178 34.4825 77.8185C34.6072 77.9191 34.6911 78.0599 34.7193 78.2156C35.1598 80.8052 35.4689 82.9321 35.6464 84.5964C36.3763 91.5684 36.9812 99.4432 37.4612 108.221C37.4794 108.576 37.397 108.929 37.223 109.241C37.0491 109.554 36.7903 109.815 36.4749 109.994Z" fill="white"/>
<path d="M84.8247 80.1144C85.2653 80.6735 85.5217 81.0847 85.594 81.3482C85.61 81.4151 85.6094 81.4848 85.5924 81.5514C85.5754 81.6181 85.5424 81.6799 85.4961 81.7316C85.4499 81.7834 85.3917 81.8237 85.3265 81.8492C85.2612 81.8747 85.1906 81.8847 85.1206 81.8783C84.2987 81.8012 83.7332 81.5699 83.4241 81.1843C83.1216 80.8052 83.0263 80.2172 83.1381 79.4204C83.1471 79.3505 83.1734 79.2838 83.2147 79.226C83.256 79.1683 83.3111 79.1212 83.3752 79.0889C83.4393 79.0567 83.5105 79.0402 83.5826 79.0408C83.6547 79.0415 83.7256 79.0593 83.7891 79.0927C84.0324 79.2213 84.3776 79.5618 84.8247 80.1144Z" fill="white"/>
<path d="M158.977 120.896C158.674 121.609 157.905 122.181 156.669 122.611C156.512 122.662 156.349 122.692 156.186 122.698C144.317 123.007 132.984 123.039 122.187 122.794C108.595 122.486 94.9444 123.267 83.6214 122.978C78.0881 122.843 69.0533 123.864 62.2279 123.093C58.5259 122.676 55.2907 122.647 52.5225 123.007C49.6687 123.386 47.1075 123.611 44.839 123.681C35.7976 123.977 27.9563 124.064 21.315 123.941C18.8032 123.89 16.2617 123.707 13.6907 123.392C13.3018 123.342 12.946 123.165 12.6847 122.891C11.9351 122.113 10.9224 121.596 9.64677 121.339C8.76565 121.159 8.24948 120.87 8.09824 120.472C7.8681 119.829 7.80563 119.386 7.91084 119.141C7.97805 118.997 8.08837 118.875 8.22737 118.793C8.36638 118.71 8.52762 118.67 8.69005 118.679C23.8072 119.321 37.9248 119.292 51.043 118.592C57.1056 118.264 61.6131 118.245 64.5655 118.534C67.7744 118.843 71.3646 118.83 75.3362 118.496C76.9933 118.354 80.5868 118.287 86.1168 118.293C91.6994 118.3 99.1922 118.229 108.595 118.081C115.901 117.966 126.507 118.168 140.414 118.688C146.766 118.926 152.444 118.978 157.448 118.843C157.711 118.836 157.972 118.891 158.207 119.003C158.443 119.115 158.646 119.281 158.798 119.485C158.95 119.689 159.046 119.925 159.077 120.171C159.109 120.418 159.074 120.667 158.977 120.896Z" fill="black"/>
</svg>
